<?xml version="1.0" encoding="utf-8"?>
<!-- Generator: Adobe Illustrator 24.0.3, SVG Export Plug-In . SVG Version: 6.00 Build 0)  -->
<svg version="1.1" id="picto_x5F_ateliers" xmlns="http://www.w3.org/2000/svg" xmlns:xlink="http://www.w3.org/1999/xlink" x="0px"
	 y="0px" viewBox="0 0 20.1 25" enable-background="new 0 0 20.1 25" xml:space="preserve">
<path fill="none" stroke="#B8BECC" stroke-linejoin="round" stroke-miterlimit="10" d="M3.8,7.6C2.9,7.6,2.1,6.9,1.9,6
	C1.6,6,1.4,5.7,1.4,5.4V4.8c0-0.3,0.2-0.6,0.5-0.7c0-1,0.9-1.9,2-1.9c1,0,1.9,0.9,2,1.9C6,4.3,6.2,4.5,6.2,4.8v0.6
	C6.2,5.7,6,6,5.7,6C5.5,6.9,4.8,7.6,3.8,7.6z"/>
<path fill="none" stroke="#B8BECC" stroke-linejoin="round" stroke-miterlimit="10" d="M3.1,23.5"/>
<path fill="none" stroke="#B8BECC" stroke-linejoin="round" stroke-miterlimit="10" d="M2.5,16.4"/>
<path fill="none" stroke="#B8BECC" stroke-linejoin="round" stroke-miterlimit="10" d="M1.1,16.4"/>
<path fill="none" stroke="#B8BECC" stroke-linejoin="round" stroke-miterlimit="10" d="M1.1,10.9"/>
<path fill="none" stroke="#B8BECC" stroke-linejoin="round" stroke-miterlimit="10" d="M3.4,9.5"/>
<path fill="none" stroke="#B8BECC" stroke-linejoin="round" stroke-miterlimit="10" d="M3.4,8.3"/>
<path fill="none" stroke="#B8BECC" stroke-linejoin="round" stroke-miterlimit="10" d="M4.9,7.3v1.3h6.4c1.1,0,2,1,2,2v0.3h-1.5H8.1
	c-0.8,0-1.3,0.6-1.3,1.3L6.7,16l-0.8,7.2H2.6L2,16.3H0.5v-5.8c0-1,0.9-1.9,1.9-1.9h0.4V7.3"/>
<path fill="none" stroke="#B8BECC" stroke-linejoin="round" stroke-miterlimit="10" d="M4.3,2.3V0.5h14.2v13H6.8"/>
<line fill="none" stroke="#B8BECC" stroke-linejoin="round" stroke-miterlimit="10" x1="8.3" y1="3.1" x2="16.3" y2="3.1"/>
<line fill="none" stroke="#B8BECC" stroke-linejoin="round" stroke-miterlimit="10" x1="8.3" y1="5.9" x2="16.3" y2="5.9"/>
</svg>
