<?xml version="1.0" encoding="utf-8"?>
<!-- Generator: Adobe Illustrator 24.0.3, SVG Export Plug-In . SVG Version: 6.00 Build 0)  -->
<svg version="1.1" id="picto_x5F_rapports" xmlns="http://www.w3.org/2000/svg" xmlns:xlink="http://www.w3.org/1999/xlink" x="0px"
	 y="0px" viewBox="0 0 25 25.6" enable-background="new 0 0 25 25.6" xml:space="preserve">
<g id="feuilles" transform="translate(0.5 0.5)">
	<g id="Groupe_34104" transform="translate(9.446)">
		<g id="Groupe_34102">
			<path id="Tracé_7542" fill="none" stroke="#B8BECC" stroke-linecap="round" stroke-miterlimit="10" d="M-3.8,19.8v1.7h15.3V0
				H-3.8v4.4"/>
		</g>
		<g id="Groupe_34103" transform="translate(5.077 5.077)">
			<path id="Tracé_7543" fill="none" stroke="#B8BECC" stroke-linecap="round" stroke-miterlimit="10" d="M-5.8,17.5v2.1H9.5V-2
				H7.6"/>
		</g>
	</g>
</g>
<g id="Calculette" transform="translate(0 9.468)">
	
		<rect id="Rectangle_20" x="0.5" y="-3.3" fill="none" stroke="#B8BECC" stroke-linecap="round" stroke-miterlimit="10" width="9.7" height="3.7"/>
	
		<rect id="Rectangle_21" x="0.5" y="0.4" fill="none" stroke="#B8BECC" stroke-linecap="round" stroke-miterlimit="10" width="9.7" height="9.7"/>
	
		<line id="Ligne_18" fill="none" stroke="#B8BECC" stroke-linecap="round" stroke-miterlimit="10" x1="0.5" y1="0.4" x2="0.5" y2="10"/>
	
		<line id="Ligne_19" fill="none" stroke="#B8BECC" stroke-linecap="round" stroke-miterlimit="10" x1="3.7" y1="0.4" x2="3.7" y2="10"/>
	
		<line id="Ligne_20" fill="none" stroke="#B8BECC" stroke-linecap="round" stroke-miterlimit="10" x1="6.9" y1="0.4" x2="6.9" y2="10"/>
	
		<line id="Ligne_21" fill="none" stroke="#B8BECC" stroke-linecap="round" stroke-miterlimit="10" x1="10.2" y1="0.4" x2="10.2" y2="10"/>
	
		<line id="Ligne_22" fill="none" stroke="#B8BECC" stroke-linecap="round" stroke-miterlimit="10" x1="10.2" y1="0.4" x2="0.5" y2="0.4"/>
	
		<line id="Ligne_23" fill="none" stroke="#B8BECC" stroke-linecap="round" stroke-miterlimit="10" x1="10.2" y1="3.5" x2="0.5" y2="3.5"/>
	
		<line id="Ligne_24" fill="none" stroke="#B8BECC" stroke-linecap="round" stroke-miterlimit="10" x1="6.9" y1="6.8" x2="0.5" y2="6.8"/>
	
		<line id="Ligne_25" fill="none" stroke="#B8BECC" stroke-linecap="round" stroke-miterlimit="10" x1="10.2" y1="10" x2="0.5" y2="10"/>
</g>
<g id="graphiques" transform="translate(18.98 5.533)">
	<path id="Tracé_7544" fill="none" stroke="#B8BECC" stroke-linecap="round" stroke-miterlimit="10" d="M-6.5,13V6.5h2.7V13"/>
	<path id="Tracé_7545" fill="none" stroke="#B8BECC" stroke-linecap="round" stroke-miterlimit="10" d="M-2.1,13V2.6h2.7V13"/>
	
		<line id="Ligne_26" fill="none" stroke="#B8BECC" stroke-linecap="round" stroke-miterlimit="10" x1="-7.4" y1="4" x2="-6.4" y2="3.6"/>
	<path id="Tracé_7546" fill="none" stroke="#B8BECC" stroke-linecap="round" stroke-miterlimit="10" d="M-4.2,2.2
		c0.5,0.6,0.4,1.4-0.2,1.9c-0.5,0.4-1.4,0.4-1.9-0.2C-6.7,3.3-6.6,2.5-6,2c0.2-0.2,0.5-0.3,0.8-0.3C-4.8,1.7-4.4,1.9-4.2,2.2z"/>
	
		<line id="Ligne_27" fill="none" stroke="#B8BECC" stroke-linecap="round" stroke-miterlimit="10" x1="-4.2" y1="2.2" x2="-1.8" y2="0.2"/>
	<path id="Tracé_7547" fill="none" stroke="#B8BECC" stroke-linecap="round" stroke-miterlimit="10" d="M0.6-0.7
		C0.6,0,0,0.6-0.7,0.6S-2.1,0-2.1-0.7S-1.5-2-0.7-2l0,0C0-2,0.6-1.4,0.6-0.7z"/>
</g>
</svg>
