<?xml version="1.0" encoding="utf-8"?>
<!-- Generator: Adobe Illustrator 24.0.2, SVG Export Plug-In . SVG Version: 6.00 Build 0)  -->
<svg version="1.1" id="picto_x5F_light-mode" xmlns="http://www.w3.org/2000/svg" xmlns:xlink="http://www.w3.org/1999/xlink"
	 x="0px" y="0px" viewBox="0 0 50 36" style="enable-background:new 0 0 50 36;" xml:space="preserve">
<style type="text/css">
	.st0{fill:none;stroke:#3D4A64;}
</style>
<path class="st0" d="M5,0.5h40c2.5,0,4.5,2,4.5,4.5v26c0,2.5-2,4.5-4.5,4.5H5c-2.5,0-4.5-2-4.5-4.5V5C0.5,2.5,2.5,0.5,5,0.5z"/>
<g id="picto_x5F_sun" transform="translate(16.5 9.5)">
	<circle id="Ellipse_26" class="st0" cx="8.5" cy="8.5" r="4.7"/>
	<line id="Ligne_135" class="st0" x1="14.8" y1="8.5" x2="16.5" y2="8.5"/>
	<line id="Ligne_136" class="st0" x1="0.5" y1="8.5" x2="2.2" y2="8.5"/>
	<line id="Ligne_137" class="st0" x1="8.5" y1="0.5" x2="8.5" y2="2.2"/>
	<line id="Ligne_138" class="st0" x1="8.5" y1="14.8" x2="8.5" y2="16.5"/>
	<line id="Ligne_139" class="st0" x1="14" y1="5.3" x2="15.4" y2="4.5"/>
	<line id="Ligne_140" class="st0" x1="1.6" y1="12.5" x2="3" y2="11.7"/>
	<line id="Ligne_141" class="st0" x1="4.5" y1="1.6" x2="5.3" y2="3"/>
	<line id="Ligne_142" class="st0" x1="11.7" y1="14" x2="12.5" y2="15.4"/>
	<line id="Ligne_143" class="st0" x1="11.7" y1="3" x2="12.5" y2="1.6"/>
	<line id="Ligne_144" class="st0" x1="4.5" y1="15.4" x2="5.3" y2="14"/>
	<line id="Ligne_145" class="st0" x1="1.6" y1="4.5" x2="3" y2="5.3"/>
	<line id="Ligne_146" class="st0" x1="14" y1="11.7" x2="15.4" y2="12.5"/>
</g>
</svg>
