<?xml version="1.0" encoding="utf-8"?>
<!-- Generator: Adobe Illustrator 24.0.3, SVG Export Plug-In . SVG Version: 6.00 Build 0)  -->
<svg version="1.1" id="icon_x5F_filters" xmlns="http://www.w3.org/2000/svg" xmlns:xlink="http://www.w3.org/1999/xlink" x="0px"
	 y="0px" viewBox="0 0 34 17.4" enable-background="new 0 0 34 17.4" xml:space="preserve">
<line id="Ligne_91" fill="none" stroke="#B7BDCB" stroke-width="2" stroke-linecap="round" x1="23" y1="2" x2="33" y2="2"/>
<line id="Ligne_92" fill="none" stroke="#B7BDCB" stroke-width="2" stroke-linecap="round" x1="20" y1="9" x2="33" y2="9"/>
<line id="Ligne_93" fill="none" stroke="#B7BDCB" stroke-width="2" stroke-linecap="round" x1="16" y1="16" x2="33" y2="16"/>
<path id="Tracé_7790" fill="none" stroke="#B7BDCB" stroke-linecap="round" stroke-miterlimit="10" d="M1.5,2.8
	c-0.7-0.2-1-0.5-1-0.8c0-0.9,3.6-1.5,8-1.5s8,0.7,8,1.5s-3.6,1.5-8,1.5c-1.6,0-3.3-0.1-4.9-0.3"/>
<path id="Tracé_7791" fill="none" stroke="#B7BDCB" stroke-linecap="round" stroke-miterlimit="10" d="M0.5,2.3v1.6
	c0,0.8,0.3,1.5,0.9,2l5.2,4.3C6.8,10.5,7,10.7,7,11v5.5l3.1-1.8V11c0-0.3,0.1-0.6,0.4-0.8l5.2-4.3c0.6-0.5,0.9-1.2,0.9-2V2.3"/>
</svg>
