<?xml version="1.0" encoding="utf-8"?>
<!-- Generator: Adobe Illustrator 24.0.2, SVG Export Plug-In . SVG Version: 6.00 Build 0)  -->
<svg version="1.1" id="picto_x5F_light-mode" xmlns="http://www.w3.org/2000/svg" xmlns:xlink="http://www.w3.org/1999/xlink"
	 x="0px" y="0px" viewBox="0 0 50 36" style="enable-background:new 0 0 50 36;" xml:space="preserve">
<style type="text/css">
	.st0{fill:none;stroke:#3D4A64;}
</style>
<path class="st0" d="M5,0.5h40c2.5,0,4.5,2,4.5,4.5v26c0,2.5-2,4.5-4.5,4.5H5c-2.5,0-4.5-2-4.5-4.5V5C0.5,2.5,2.5,0.5,5,0.5z"/>
<path id="picto_x5F_moon" class="st0" d="M27.8,11.1c1.7,3.6,0.2,8-3.5,9.7c-2,0.9-4.3,0.9-6.2,0c1.7,3.6,6.1,5.2,9.7,3.5
	s5.2-6.1,3.5-9.7C30.5,13,29.3,11.8,27.8,11.1z"/>
</svg>
