<?xml version="1.0" encoding="utf-8"?>
<!-- Generator: Adobe Illustrator 24.0.3, SVG Export Plug-In . SVG Version: 6.00 Build 0)  -->
<svg version="1.1" id="icon_x5F_offres" xmlns="http://www.w3.org/2000/svg" xmlns:xlink="http://www.w3.org/1999/xlink" x="0px"
	 y="0px" viewBox="0 0 25 25" enable-background="new 0 0 25 25" xml:space="preserve">
<polyline fill="none" stroke="#B7BCCA" stroke-miterlimit="10" points="0.5,18.3 2.8,17.1 6.7,23.3 4.8,24.5 "/>
<path fill="none" stroke="#B7BCCA" stroke-miterlimit="10" d="M10.6,17.9l4.6,0c0.9,0,1.5-0.7,1.5-1.5l0,0c0-0.9-0.7-1.5-1.5-1.5
	l-5.9,0c-0.7,0-1.4,0.2-1.9,0.5l-3.7,2.2"/>
<path fill="none" stroke="#B7BCCA" stroke-miterlimit="10" d="M15.6,17.9l6.8-3c0.8-0.3,1.7,0.1,2,0.8l0,0c0.3,0.8-0.1,1.7-0.8,2
	l-6.8,3.3c-0.5,0.2-1,0.3-1.5,0.3H9.1c-0.4,0-0.8,0.1-1.2,0.3l-1.4,0.8"/>
<line fill="none" stroke="#B7BCCA" stroke-miterlimit="10" x1="6.7" y1="15.6" x2="6.7" y2="11.7"/>
<line fill="none" stroke="#B7BCCA" stroke-miterlimit="10" x1="23" y1="9.4" x2="23" y2="14.8"/>
<path fill="none" stroke="#B7BCCA" stroke-miterlimit="10" d="M11,2.8V1.7c0,0,1.1-1.2,3.9-1.2c2.7,0,3.9,1.2,3.9,1.2v1.2"/>
<path fill="none" stroke="#B7BCCA" stroke-miterlimit="10" d="M15.4,12.1h-1.2c-0.3,0-0.6-0.3-0.6-0.6V10c0-0.3,0.3-0.6,0.6-0.6h1.2
	c0.3,0,0.6,0.3,0.6,0.6v1.6C16,11.9,15.7,12.1,15.4,12.1z"/>
<path fill="none" stroke="#B7BCCA" stroke-miterlimit="10" d="M16,10.6c3.2-0.2,7.7-1.5,7.7-1.5V3.4c0-0.3-0.2-0.5-0.5-0.5H6.5
	c-0.3,0-0.5,0.2-0.5,0.5V9c0,0,4.5,1.3,7.7,1.5"/>
</svg>
