<?xml version="1.0" encoding="utf-8"?>
<!-- Generator: Adobe Illustrator 24.0.3, SVG Export Plug-In . SVG Version: 6.00 Build 0)  -->
<svg version="1.1" id="picto_x5F_etablissement" xmlns="http://www.w3.org/2000/svg" xmlns:xlink="http://www.w3.org/1999/xlink"
	 x="0px" y="0px" viewBox="0 0 20 24" enable-background="new 0 0 20 24" xml:space="preserve">
<path id="Tracé_7538" fill="none" stroke="#B8BECC" stroke-linejoin="round" d="M8.5,23h5.6V9.4H5.7V23H8.5z"/>
<line id="Ligne_3" fill="none" stroke="#B8BECC" stroke-linejoin="round" x1="2.9" y1="18.3" x2="3.8" y2="18.3"/>
<rect id="Rectangle_18" x="6.6" y="7.1" fill="none" stroke="#B8BECC" stroke-linejoin="round" width="6.5" height="2.4"/>
<rect id="Rectangle_19" x="8.5" y="4.7" fill="none" stroke="#B8BECC" stroke-linejoin="round" width="2.8" height="2.4"/>
<line id="Ligne_4" fill="none" stroke="#B8BECC" stroke-linejoin="round" x1="7.5" y1="11.8" x2="12.2" y2="11.8"/>
<line id="Ligne_5" fill="none" stroke="#B8BECC" stroke-linejoin="round" x1="7.5" y1="14.6" x2="12.2" y2="14.6"/>
<line id="Ligne_6" fill="none" stroke="#B8BECC" stroke-linejoin="round" x1="7.5" y1="17.4" x2="12.2" y2="17.4"/>
<line id="Ligne_7" fill="none" stroke="#B8BECC" stroke-linejoin="round" x1="7.5" y1="20.2" x2="12.2" y2="20.2"/>
<line id="Ligne_8" fill="none" stroke="#B8BECC" stroke-linejoin="round" x1="2.9" y1="12.7" x2="3.8" y2="12.7"/>
<line id="Ligne_9" fill="none" stroke="#B8BECC" stroke-linejoin="round" x1="2.9" y1="10.8" x2="3.8" y2="10.8"/>
<line id="Ligne_10" fill="none" stroke="#B8BECC" stroke-linejoin="round" x1="2.9" y1="14.6" x2="3.8" y2="14.6"/>
<line id="Ligne_11" fill="none" stroke="#B8BECC" stroke-linejoin="round" x1="2.9" y1="16.5" x2="3.8" y2="16.5"/>
<line id="Ligne_12" fill="none" stroke="#B8BECC" stroke-linejoin="round" x1="2.9" y1="20.2" x2="3.8" y2="20.2"/>
<path id="Tracé_7539" fill="none" stroke="#B8BECC" stroke-linejoin="round" d="M14.1,23h4.7V10.4h-4.7"/>
<line id="Ligne_13" fill="none" stroke="#B8BECC" stroke-linejoin="round" x1="16.5" y1="14.6" x2="16.5" y2="16"/>
<line id="Ligne_14" fill="none" stroke="#B8BECC" stroke-linejoin="round" x1="16.5" y1="12.2" x2="16.5" y2="13.6"/>
<line id="Ligne_15" fill="none" stroke="#B8BECC" stroke-linejoin="round" x1="16.5" y1="16.9" x2="16.5" y2="18.3"/>
<line id="Ligne_16" fill="none" stroke="#B8BECC" stroke-linejoin="round" x1="16.5" y1="19.7" x2="16.5" y2="21.1"/>
<line id="Ligne_17" fill="none" stroke="#B8BECC" stroke-linejoin="round" x1="9.9" y1="4.7" x2="9.9" y2="1"/>
<path id="Tracé_7540" fill="none" stroke="#B8BECC" stroke-linejoin="round" d="M13.2,8h4.7v2.3"/>
<path id="Tracé_7541" fill="none" stroke="#B8BECC" stroke-linejoin="round" d="M6.6,6.2V2.9L6.2,2.4L1,7.6V23h4.2"/>
</svg>
