<?xml version="1.0" encoding="utf-8"?>
<!-- Generator: Adobe Illustrator 24.0.3, SVG Export Plug-In . SVG Version: 6.00 Build 0)  -->
<svg version="1.1" id="picto_x5F_cadres" xmlns="http://www.w3.org/2000/svg" xmlns:xlink="http://www.w3.org/1999/xlink" x="0px"
	 y="0px" viewBox="0 0 30.6 31" enable-background="new 0 0 30.6 31" xml:space="preserve">
<g id="Femme" transform="translate(-1004.602 -612.594)">
	
		<line id="Ligne_149" fill="none" stroke="#B8BECC" stroke-linecap="round" stroke-miterlimit="10" x1="1025.8" y1="635.2" x2="1023.4" y2="627.5"/>
	
		<line id="Ligne_150" fill="none" stroke="#B8BECC" stroke-linecap="round" stroke-miterlimit="10" x1="1029.4" y1="627.5" x2="1026.4" y2="636.7"/>
	<path id="Tracé_7919" fill="none" stroke="#B8BECC" stroke-linecap="round" stroke-miterlimit="10" d="M1023.4,627.7l-1,1.2
		l1.1,1.1l-0.7,1.2l1.9,2.7"/>
	<path id="Tracé_7920" fill="none" stroke="#B8BECC" stroke-linecap="round" stroke-miterlimit="10" d="M1029.4,627.7l1,1.2
		l-1.1,1.1l0.7,1.2l-3.4,4.8"/>
	
		<line id="Ligne_151" fill="none" stroke="#B8BECC" stroke-linecap="round" stroke-miterlimit="10" x1="1026.4" y1="636.7" x2="1026.4" y2="636.7"/>
	
		<line id="Ligne_152" fill="none" stroke="#B8BECC" stroke-linecap="round" stroke-miterlimit="10" x1="1018.3" y1="636.3" x2="1018.3" y2="636.3"/>
	<path id="Tracé_7921" fill="none" stroke="#B8BECC" stroke-linecap="round" stroke-miterlimit="10" d="M1019.6,629.5
		c0.5-0.4,1.2-0.8,1.9-1c1.2-0.5,2.5-1,2.7-1.9c0-0.1,0.1-0.1,0.1-0.3c0.1-0.4,0.1-1-0.1-1.2"/>
	<path id="Tracé_7922" fill="none" stroke="#B8BECC" stroke-linecap="round" stroke-miterlimit="10" d="M1028.7,625
		c-0.3,0.5-0.3,1.1-0.1,1.6c0.4,1,1.5,1.4,2.7,1.9c2,0.8,3.4,1.9,3.4,4.4c0.1,2.7-0.4,3.8-0.4,3.8h-7.9"/>
	
		<line id="Ligne_153" fill="none" stroke="#B8BECC" stroke-linecap="round" stroke-miterlimit="10" x1="1025" y1="632.5" x2="1027.6" y2="632.5"/>
	<path id="Tracé_7923" fill="none" stroke="#B8BECC" stroke-linecap="round" stroke-miterlimit="10" d="M1021.9,621.7
		c0.1,0.1,0.4,0.1,0.5,0.1c0.3,2,2.2,4.1,4,4.1h0.1c1-0.1,1.8-0.4,2.3-1.1l0,0c1-0.8,1.5-1.9,1.6-3.1c0.3,0.1,0.7-0.3,1-0.8
		c0.3-0.5,0.1-1.1-0.1-1.2c-0.3-0.1-0.5,0.1-0.7,0.4v-1c0-1.4-1.8-1.5-3.7-1.5c-2.5-0.1-3.1-0.5-4-1.8c-0.8,1.4-0.5,4.1-0.5,4.1
		c-0.3-0.3-0.5-0.4-0.7-0.4c-0.1,0.1-0.3,0.3-0.3,0.4"/>
	<path id="Tracé_7924" fill="none" stroke="#B8BECC" stroke-linecap="round" stroke-miterlimit="10" d="M1024.3,626.3L1024.3,626.3
		c-1.1,0-2-0.3-2.9-0.5"/>
	<path id="Tracé_7925" fill="none" stroke="#B8BECC" stroke-linecap="round" stroke-miterlimit="10" d="M1019.7,618.3
		c0.7-2.7,2.6-5.2,6.7-5.2h0.1c7.9,0,7.4,9.3,6.5,11.2c-0.7,1.8-4.1,1.9-4.6,2h-0.1"/>
</g>
<g id="Homme" transform="translate(-1004.602 -612.594)">
	<path id="Tracé_7926" fill="none" stroke="#B8BECC" stroke-linecap="round" stroke-miterlimit="10" d="M1020.2,624.8v1
		c0.3-0.3,0.5-0.4,0.7-0.4c0.3,0.1,0.4,0.7,0.1,1.2c-0.3,0.5-0.5,1-1,0.8c-0.3,2.2-2.2,4.2-4.2,4.2h-0.1c-1.9,0-4-2-4.2-4.2
		c-0.3,0.1-0.7-0.3-1-0.8c-0.3-0.5-0.1-1.1,0.1-1.2c0.3-0.1,0.5,0.1,0.8,0.4v-0.5c0,0-0.5-3,0.5-3.3c0.3,1.2,1.5,1.1,4.1,1.2
		C1018.3,623,1020.2,623.3,1020.2,624.8z"/>
	<path id="Tracé_7927" fill="none" stroke="#B8BECC" stroke-linecap="round" stroke-miterlimit="10" d="M1021.3,625.5
		c0,0,2.3-4.6-2-7.6c-2.6-1.8-6.5-1.1-7.8,1.6c-1.2,0.7-1.6,3.5-0.5,5.7"/>
	
		<line id="Ligne_154" fill="none" stroke="#B8BECC" stroke-linecap="round" stroke-miterlimit="10" x1="1016" y1="643.1" x2="1012.5" y2="632"/>
	
		<line id="Ligne_155" fill="none" stroke="#B8BECC" stroke-linecap="round" stroke-miterlimit="10" x1="1019.7" y1="632.2" x2="1016.1" y2="643.1"/>
	<path id="Tracé_7928" fill="none" stroke="#B8BECC" stroke-linecap="round" stroke-miterlimit="10" d="M1013.8,636.1l1.6-1.6l0,0
		l0.1-0.1l-2.5-2.6"/>
	<path id="Tracé_7929" fill="none" stroke="#B8BECC" stroke-linecap="round" stroke-miterlimit="10" d="M1017.2,639.8l-0.4-5.2
		v-0.1h-1.2v0.1l-0.4,5.3"/>
	<path id="Tracé_7930" fill="none" stroke="#B8BECC" stroke-linecap="round" stroke-miterlimit="10" d="M1017.6,643.1h-11.2
		c-0.8,0-1.4-0.5-1.4-1.4c0-0.1,0-0.1,0-0.1l0.5-4.8c0.1-1.8,1.4-3.1,3.1-3.5c0,0,4-1.2,4.2-1.4c0.4-0.3,0.3-1.4,0.3-1.4"/>
	<path id="Tracé_7931" fill="none" stroke="#B8BECC" stroke-linecap="round" stroke-miterlimit="10" d="M1019,631.9l-2.5,2.6
		l0.1,0.1l1.6,1.6"/>
	<path id="Tracé_7932" fill="none" stroke="#B8BECC" stroke-linecap="round" stroke-miterlimit="10" d="M1017.4,643.1h8.2
		c0.7,0,1.4-0.5,1.4-1.4c0-0.1,0-0.1,0-0.1l-0.5-4.8c-0.1-1.8-1.4-3.1-3.1-3.5c0,0-4-1.2-4.2-1.4c-0.4-0.3-0.3-1.4-0.3-1.4"/>
	<path id="Tracé_7933" fill="none" stroke="#B8BECC" stroke-linecap="round" stroke-miterlimit="10" d="M1012.5,632.3l-1.1,1.5
		l1.2,1.4l-1,1.4l4.1,5.6"/>
	<path id="Tracé_7934" fill="none" stroke="#B8BECC" stroke-linecap="round" stroke-miterlimit="10" d="M1019.7,632.3l1.1,1.5
		l-1.2,1.4l1,1.4l-4.1,5.6"/>
</g>
</svg>
