<?xml version="1.0" encoding="utf-8"?>
<!-- Generator: Adobe Illustrator 24.0.3, SVG Export Plug-In . SVG Version: 6.00 Build 0)  -->
<svg version="1.1" id="picto_x5F_interlocuteurs" xmlns="http://www.w3.org/2000/svg" xmlns:xlink="http://www.w3.org/1999/xlink"
	 x="0px" y="0px" viewBox="0 0 26.1 31" enable-background="new 0 0 26.1 31" xml:space="preserve">
<g id="interlocuteur_1_">
	<path id="Tracé_7531" fill="none" stroke="#B8BECC" stroke-miterlimit="10" d="M5.7,20c1.5,0,2.7-1.2,2.7-2.7s-1.2-2.7-2.7-2.7
		S3,15.8,3,17.3C3,18.8,4.2,20,5.7,20z"/>
	<path id="Tracé_7533_3_" fill="none" stroke="#B8BECC" stroke-linecap="round" stroke-miterlimit="10" d="M10.3,30.5v-5.2
		c0-1.1-0.7-2-1.5-2.5l-1.4-1.1c-0.3-0.1-0.5-0.1-0.8,0S6,22,5.5,22c-0.3,0-0.7-0.1-1-0.3c-0.3-0.1-0.5-0.1-0.8,0l-1.9,1
		c-0.8,0.5-1.4,1.5-1.4,2.6v5.2"/>
	<line fill="none" stroke="#B8BECC" stroke-linecap="round" stroke-miterlimit="10" x1="2.5" y1="27.2" x2="2.5" y2="30.4"/>
	<line fill="none" stroke="#B8BECC" stroke-linecap="round" stroke-miterlimit="10" x1="8.3" y1="27.2" x2="8.3" y2="30.4"/>
</g>
<g id="interlocuteur">
	<path id="Tracé_7531_1_" fill="none" stroke="#B8BECC" stroke-miterlimit="10" d="M20.8,20c1.5,0,2.7-1.2,2.7-2.7
		s-1.2-2.7-2.7-2.7c-1.5,0-2.7,1.2-2.7,2.7C18.2,18.8,19.3,20,20.8,20z"/>
	<path id="Tracé_7533_1_" fill="none" stroke="#B8BECC" stroke-linecap="round" stroke-miterlimit="10" d="M25.6,30.5v-5.2
		c0-1.1-0.7-2-1.5-2.5l-1.4-1.1c-0.3-0.1-0.5-0.1-0.8,0c-0.3,0.1-0.7,0.3-1.1,0.3c-0.3,0-0.7-0.1-1-0.3c-0.3-0.1-0.5-0.1-0.8,0
		l-1.9,1c-1,0.5-1.5,1.5-1.5,2.5v5.3"/>
	<line fill="none" stroke="#B8BECC" stroke-linecap="round" stroke-miterlimit="10" x1="17.7" y1="27.2" x2="17.7" y2="30.4"/>
	<line fill="none" stroke="#B8BECC" stroke-linecap="round" stroke-miterlimit="10" x1="23.4" y1="27.2" x2="23.4" y2="30.4"/>
</g>
<path fill="none" stroke="#B8BECC" stroke-miterlimit="10" d="M22.3,0.5H10.2c-0.3,0-0.5,0.3-0.5,0.7v6c0,0.4,0.3,0.7,0.7,0.7h7.4
	l3.1,2.3V7.9h1.5c0.4,0,0.7-0.3,0.7-0.7v-6C23,0.8,22.6,0.5,22.3,0.5z"/>
<path fill="none" stroke="#B8BECC" stroke-miterlimit="10" d="M17.5,7.9v1.2c0,0.4-0.3,0.7-0.5,0.7h-7L7.2,12V9.8H5.7
	c-0.3,0-0.5-0.3-0.5-0.7V3.2c0-0.4,0.3-0.7,0.5-0.7h3.8"/>
</svg>
