<?xml version="1.0" encoding="utf-8"?>
<!-- Generator: Adobe Illustrator 24.0.3, SVG Export Plug-In . SVG Version: 6.00 Build 0)  -->
<svg version="1.1" id="picto_x5F_adep" xmlns="http://www.w3.org/2000/svg" xmlns:xlink="http://www.w3.org/1999/xlink" x="0px"
	 y="0px" viewBox="0 0 31 31" enable-background="new 0 0 31 31" xml:space="preserve">
<g id="bras4">
	<path id="Tracé_8090" fill="none" stroke="#B8BECC" stroke-linecap="round" stroke-miterlimit="10" d="M26.2,4.2V2.4
		c0-0.5-0.5-0.9-0.9-0.9c-0.5,0-1,0.4-1,0.9v1.9"/>
	<path id="Tracé_8091" fill="none" stroke="#B8BECC" stroke-linecap="round" stroke-miterlimit="10" d="M24.4,4.2V1.9
		c0-0.5-0.5-0.9-0.9-0.9c-0.4,0-0.9,0.5-0.9,0.9v2.4"/>
	<path id="Tracé_8092" fill="none" stroke="#B8BECC" stroke-linecap="round" stroke-miterlimit="10" d="M22.5,4.2V2.4
		c0-0.5-0.5-0.9-0.9-0.9c-0.5,0-1,0.4-1,0.9v3.2"/>
	<path id="Tracé_8093" fill="none" stroke="#B8BECC" stroke-linecap="round" stroke-miterlimit="10" d="M26.2,4.2V2.9
		c0-0.5,0.5-0.9,0.9-0.9C27.6,2,28,2.5,28,2.9v6.6l-0.9,3.8h-6.6v-1.5l-1.9-3.2V5.6c0-0.5,0.5-0.9,0.9-0.9s0.9,0.5,0.9,0.9v1.9"/>
	<path id="Tracé_8094" fill="none" stroke="#B8BECC" stroke-linecap="round" stroke-miterlimit="10" d="M19.8,18.8v-5.6h8.4v6.1"/>
	
		<line id="Ligne_184" fill="none" stroke="#B8BECC" stroke-linecap="round" stroke-miterlimit="10" x1="21.6" y1="14.5" x2="21.6" y2="15.5"/>
	
		<line id="Ligne_185" fill="none" stroke="#B8BECC" stroke-linecap="round" stroke-miterlimit="10" x1="28.1" y1="28.1" x2="28.1" y2="30.5"/>
	
		<line id="Ligne_186" fill="none" stroke="#B8BECC" stroke-linecap="round" stroke-miterlimit="10" x1="19.8" y1="30.5" x2="19.8" y2="27.8"/>
</g>
<g id="bras3">
	<path id="Tracé_8095" fill="none" stroke="#B8BECC" stroke-linecap="round" stroke-miterlimit="10" d="M4.2,4.8H2.4
		c-0.5,0-0.9,0.5-0.9,0.9c0,0.5,0.4,1,0.9,1h1.9"/>
	<path id="Tracé_8096" fill="none" stroke="#B8BECC" stroke-linecap="round" stroke-miterlimit="10" d="M4.2,6.6H1.9
		C1.4,6.6,1,7.1,1,7.5c0,0.4,0.5,0.9,0.9,0.9h2.4"/>
	<path id="Tracé_8097" fill="none" stroke="#B8BECC" stroke-linecap="round" stroke-miterlimit="10" d="M4.2,8.5H2.4
		C1.9,8.5,1.5,9,1.5,9.4s0.4,0.9,0.9,0.9h3.2"/>
	<path id="Tracé_8098" fill="none" stroke="#B8BECC" stroke-linecap="round" stroke-miterlimit="10" d="M4.2,4.8H2.9
		C2.4,4.8,2,4.2,2,3.9s0.4-1,0.9-1h6.6l3.8,0.9v6.6h-1.5l-3.2,1.9H5.6c-0.5,0-0.9-0.5-0.9-0.9s0.5-0.9,0.9-0.9h1.9"/>
	<path id="Tracé_8099" fill="none" stroke="#B8BECC" stroke-linecap="round" stroke-miterlimit="10" d="M18.8,11.2h-5.6V2.9h6.1"/>
	
		<line id="Ligne_187" fill="none" stroke="#B8BECC" stroke-linecap="round" stroke-miterlimit="10" x1="14.5" y1="9.4" x2="15.5" y2="9.4"/>
	
		<line id="Ligne_188" fill="none" stroke="#B8BECC" stroke-linecap="round" stroke-miterlimit="10" x1="28.1" y1="2.9" x2="30.5" y2="2.9"/>
	
		<line id="Ligne_189" fill="none" stroke="#B8BECC" stroke-linecap="round" stroke-miterlimit="10" x1="30.5" y1="11.2" x2="27.8" y2="11.2"/>
</g>
<g id="bras2">
	<path id="Tracé_8100" fill="none" stroke="#B8BECC" stroke-linecap="round" stroke-miterlimit="10" d="M4.8,26.8v1.9
		c0,0.5,0.5,0.9,0.9,0.9c0.5,0,0.9-0.5,0.9-0.9v-1.9"/>
	<path id="Tracé_8101" fill="none" stroke="#B8BECC" stroke-linecap="round" stroke-miterlimit="10" d="M6.6,26.8v2.4
		c0,0.5,0.5,0.9,0.9,0.9c0.4,0,0.9-0.5,0.9-0.9v-2.4"/>
	<path id="Tracé_8102" fill="none" stroke="#B8BECC" stroke-linecap="round" stroke-miterlimit="10" d="M8.5,26.8v1.9
		c0,0.5,0.5,0.9,0.9,0.9s0.9-0.5,0.9-0.9v-3.2"/>
	<path id="Tracé_8103" fill="none" stroke="#B8BECC" stroke-linecap="round" stroke-miterlimit="10" d="M4.8,26.8v1.4
		c0,0.5-0.5,0.9-0.9,0.9s-1-0.4-1-0.9v-6.6l0.9-3.8h6.6v1.4l1.9,3.2v2.9c0,0.5-0.5,0.9-0.9,0.9s-0.9-0.5-0.9-0.9v-1.9"/>
	<path id="Tracé_8104" fill="none" stroke="#B8BECC" stroke-linecap="round" stroke-miterlimit="10" d="M11.2,12.2v5.6H2.9v-6.1"/>
	
		<line id="Ligne_190" fill="none" stroke="#B8BECC" stroke-linecap="round" stroke-miterlimit="10" x1="9.4" y1="15.5" x2="9.4" y2="16.5"/>
	
		<line id="Ligne_191" fill="none" stroke="#B8BECC" stroke-linecap="round" stroke-miterlimit="10" x1="2.9" y1="2.9" x2="2.9" y2="0.5"/>
	
		<line id="Ligne_192" fill="none" stroke="#B8BECC" stroke-linecap="round" stroke-miterlimit="10" x1="11.2" y1="0.5" x2="11.2" y2="3.2"/>
</g>
<g id="bras1">
	<path id="Tracé_8105" fill="none" stroke="#B8BECC" stroke-linecap="round" stroke-miterlimit="10" d="M26.8,26.2h1.9
		c0.5,0,0.9-0.5,0.9-0.9c0-0.5-0.5-0.9-0.9-0.9h-1.9"/>
	<path id="Tracé_8106" fill="none" stroke="#B8BECC" stroke-linecap="round" stroke-miterlimit="10" d="M26.8,24.4h2.4
		c0.5,0,0.9-0.5,0.9-0.9c0-0.4-0.5-0.9-0.9-0.9h-2.4"/>
	<path id="Tracé_8107" fill="none" stroke="#B8BECC" stroke-linecap="round" stroke-miterlimit="10" d="M26.8,22.5h1.9
		c0.5,0,0.9-0.5,0.9-0.9c0-0.5-0.5-0.9-0.9-0.9h-3.2"/>
	<path id="Tracé_8108" fill="none" stroke="#B8BECC" stroke-linecap="round" stroke-miterlimit="10" d="M26.8,26.2h1.4
		c0.5,0,0.9,0.5,0.9,0.9c0,0.5-0.5,0.9-0.9,0.9h-6.6l-3.8-0.9v-6.6h1.4l3.2-1.9h2.9c0.5,0,0.9,0.5,0.9,0.9s-0.5,0.9-0.9,0.9h-1.9"/>
	<path id="Tracé_8109" fill="none" stroke="#B8BECC" stroke-linecap="round" stroke-miterlimit="10" d="M12.2,19.8h5.6v8.4h-6.1"/>
	
		<line id="Ligne_193" fill="none" stroke="#B8BECC" stroke-linecap="round" stroke-miterlimit="10" x1="15.5" y1="21.6" x2="16.5" y2="21.6"/>
	
		<line id="Ligne_194" fill="none" stroke="#B8BECC" stroke-linecap="round" stroke-miterlimit="10" x1="2.9" y1="28.1" x2="0.5" y2="28.1"/>
	
		<line id="Ligne_195" fill="none" stroke="#B8BECC" stroke-linecap="round" stroke-miterlimit="10" x1="0.5" y1="19.8" x2="3.2" y2="19.8"/>
</g>
</svg>
