<?xml version="1.0" encoding="utf-8"?>
<!-- Generator: Adobe Illustrator 24.0.2, SVG Export Plug-In . SVG Version: 6.00 Build 0)  -->
<svg version="1.1" id="icon_x5F_target" xmlns="http://www.w3.org/2000/svg" xmlns:xlink="http://www.w3.org/1999/xlink" x="0px"
	 y="0px" viewBox="0 0 17.7 17.7" enable-background="new 0 0 17.7 17.7" xml:space="preserve">
<line id="Ligne_88" fill="none" stroke="#B8BECC" stroke-linecap="round" stroke-miterlimit="10" x1="8.2" y1="9.6" x2="11.6" y2="6.1"/>
<path id="Tracé_7740" fill="none" stroke="#B8BECC" stroke-linecap="round" stroke-miterlimit="10" d="M16.5,3.3l-2.8,2.8h-2.1V4
	l2.8-2.8v2.1H16.5z"/>
<path id="Tracé_7741" fill="none" stroke="#B8BECC" stroke-linecap="round" stroke-miterlimit="10" d="M15.8,9.6
	c0,4.2-3.4,7.7-7.7,7.7c-4.2,0-7.7-3.4-7.7-7.7c0-4.2,3.4-7.7,7.7-7.7c0,0,0,0,0,0"/>
<path id="Tracé_7742" fill="none" stroke="#B8BECC" stroke-linecap="round" stroke-miterlimit="10" d="M15.2,6.6
	c1.6,3.9-0.2,8.4-4.1,10s-8.4-0.2-10-4.1c-1.6-3.9,0.2-8.4,4.1-10c1.9-0.8,4-0.8,5.9,0"/>
<path id="Tracé_7743" fill="none" stroke="#B8BECC" stroke-linecap="round" stroke-miterlimit="10" d="M11.7,8.1
	c0.8,1.9-0.1,4.2-2,5c-1.9,0.8-4.2-0.1-5-2c-0.4-0.9-0.4-2,0-3c0.8-1.9,3.1-2.9,5-2"/>
</svg>
