<?xml version="1.0" encoding="utf-8"?>
<!-- Generator: Adobe Illustrator 24.0.3, SVG Export Plug-In . SVG Version: 6.00 Build 0)  -->
<svg version="1.1" id="icon_x5F_account-number" xmlns="http://www.w3.org/2000/svg" xmlns:xlink="http://www.w3.org/1999/xlink"
	 x="0px" y="0px" viewBox="0 0 17.2 17" enable-background="new 0 0 17.2 17" xml:space="preserve">
<path id="Tracé_7937" fill="none" stroke="#B8BECC" stroke-linecap="round" stroke-miterlimit="10" d="M0.5,16.5l0.9-3.8
	c0.2-0.7,0.7-1.2,1.3-1.3c0.9-0.2,2.2-0.5,3.1-0.7c0.5-0.1,0.8-0.5,0.8-1v-1L6.5,8.4C6.2,8.1,5.9,7.6,5.9,7.1
	c-0.2,0-0.4-0.1-0.4-0.3C5.3,6.3,5.2,5.8,5.2,5.3c0-0.4,0.2-0.5,0.3-0.4C5.5,4.7,5.4,4.5,5.4,4.3C5.4,2,6.9,0.5,8.6,0.5
	s3.2,1.5,3.2,3.8c0,0.2,0,0.4-0.1,0.6c0.2-0.1,0.3,0,0.3,0.4c-0.1,0.5-0.1,1-0.3,1.4c0,0.2-0.2,0.3-0.4,0.3c-0.1,0.5-0.3,1-0.6,1.4
	l-0.1,0.1v1c0,0.5,0.3,0.9,0.8,1c0.8,0.2,2.1,0.5,3.1,0.7c0.7,0.2,1.2,0.7,1.3,1.3l0.9,3.8"/>
</svg>
