<?xml version="1.0" encoding="utf-8"?>
<!-- Generator: Adobe Illustrator 24.0.3, SVG Export Plug-In . SVG Version: 6.00 Build 0)  -->
<svg version="1.1" id="icon_x5F_status" xmlns="http://www.w3.org/2000/svg" xmlns:xlink="http://www.w3.org/1999/xlink" x="0px"
	 y="0px" viewBox="0 0 20.4 17" enable-background="new 0 0 20.4 17" xml:space="preserve">
<path id="Tracé_7938" fill="none" stroke="#B8BECC" stroke-linecap="round" stroke-miterlimit="10" d="M8.7,9.6
	c-0.7,0.2-1.4,0.5-2,0.9"/>
<path id="Tracé_7939" fill="none" stroke="#B8BECC" stroke-linecap="round" stroke-miterlimit="10" d="M13.7,10.5
	c-0.6-0.4-1.3-0.7-2-0.9"/>
<path id="Tracé_7940" fill="none" stroke="#B8BECC" stroke-linecap="round" stroke-miterlimit="10" d="M16.6,14.6
	c-0.2-0.7-0.5-1.4-0.9-2"/>
<path id="Tracé_7941" fill="none" stroke="#B8BECC" stroke-linecap="round" stroke-miterlimit="10" d="M4.6,12.6
	c-0.4,0.6-0.7,1.3-0.9,2"/>
<path id="Tracé_7942" fill="none" stroke="#B8BECC" stroke-linecap="round" stroke-miterlimit="10" d="M13.4,16.5
	c0-0.1,0-0.3,0-0.4c0-1.8-1.5-3.3-3.3-3.2c-1.8,0-3.2,1.5-3.2,3.2c0,0.1,0,0.3,0,0.4"/>
<path id="Tracé_7943" fill="none" stroke="#B8BECC" stroke-linecap="round" stroke-miterlimit="10" d="M8.7,9.6v-2h2.9v2"/>
<path id="Tracé_7944" fill="none" stroke="#B8BECC" stroke-linecap="round" stroke-miterlimit="10" d="M13.7,10.5l1.4-1.4l2.1,2.1
	l-1.4,1.4"/>
<path id="Tracé_7945" fill="none" stroke="#B8BECC" stroke-linecap="round" stroke-miterlimit="10" d="M16.6,14.6h2v1.9"/>
<path id="Tracé_7946" fill="none" stroke="#B8BECC" stroke-linecap="round" stroke-miterlimit="10" d="M1.8,16.5v-1.9h2"/>
<path id="Tracé_7947" fill="none" stroke="#B8BECC" stroke-linecap="round" stroke-miterlimit="10" d="M4.6,12.6l-1.4-1.4l2.1-2.1
	l1.4,1.4"/>
<path id="Rectangle_350" fill="none" stroke="#B8BECC" stroke-linecap="round" stroke-miterlimit="10" d="M0.5,0.5h19.4l0,0v15
	c0,0.6-0.4,1-1,1H1.5c-0.6,0-1-0.4-1-1V0.5L0.5,0.5z"/>
<line id="Ligne_162" fill="none" stroke="#B8BECC" stroke-linecap="round" stroke-miterlimit="10" x1="0.5" y1="3.9" x2="19.9" y2="3.9"/>
<circle id="Ellipse_42" fill="none" stroke="#B8BECC" stroke-linecap="round" stroke-miterlimit="10" cx="3" cy="2.2" r="0.4"/>
<circle id="Ellipse_43" fill="none" stroke="#B8BECC" stroke-linecap="round" stroke-miterlimit="10" cx="4.7" cy="2.2" r="0.4"/>
<circle id="Ellipse_44" fill="none" stroke="#B8BECC" stroke-linecap="round" stroke-miterlimit="10" cx="6.4" cy="2.2" r="0.4"/>
</svg>
