<?xml version="1.0" encoding="utf-8"?>
<!-- Generator: Adobe Illustrator 24.0.3, SVG Export Plug-In . SVG Version: 6.00 Build 0)  -->
<svg version="1.1" id="icon_x5F_registration-manager"
	 xmlns="http://www.w3.org/2000/svg" xmlns:xlink="http://www.w3.org/1999/xlink" x="0px" y="0px" viewBox="0 0 17 17"
	 enable-background="new 0 0 17 17" xml:space="preserve">
<path id="Tracé_7948" fill="none" stroke="#B8BECC" stroke-linecap="round" stroke-miterlimit="10" d="M3.3,10.2H4V6.1H3.3
	C2.1,6.1,1.2,7,1.2,8.2l0,0l0,0C1.2,9.3,2.1,10.2,3.3,10.2z"/>
<path id="Tracé_7949" fill="none" stroke="#B8BECC" stroke-linecap="round" stroke-miterlimit="10" d="M14.4,10.2h-0.7V6.1h0.7
	c1.2,0,2.1,0.9,2.1,2.1l0,0l0,0C16.5,9.3,15.6,10.2,14.4,10.2z"/>
<path id="Tracé_7950" fill="none" stroke="#B8BECC" stroke-linecap="round" stroke-miterlimit="10" d="M4,6.1V4.7
	c0-2.3,2.6-4.2,4.9-4.2l0,0c2.3,0,4.9,1.9,4.9,4.2v1.4"/>
<path id="Tracé_7951" fill="none" stroke="#B8BECC" stroke-linecap="round" stroke-miterlimit="10" d="M13.7,10.2
	c-0.1,1.5-1.3,2.7-2.8,2.8"/>
<path id="Tracé_7952" fill="none" stroke="#B8BECC" stroke-linecap="round" stroke-miterlimit="10" d="M14.6,13.4
	c0.2,0.2,0.5,0.4,0.7,0.6c0.7,0.7,1.2,1.6,1.2,2.6"/>
<path id="Tracé_7953" fill="none" stroke="#B8BECC" stroke-linecap="round" stroke-miterlimit="10" d="M0.5,16.5
	c0-2.1,2.1-3.8,5-4.5"/>
<path id="Tracé_7954" fill="none" stroke="#B8BECC" stroke-linecap="round" stroke-miterlimit="10" d="M10.2,13.7H8.8
	c-0.4,0-0.7-0.3-0.7-0.7l0,0c0-0.4,0.3-0.7,0.7-0.7h1.4c0.4,0,0.7,0.3,0.7,0.7l0,0C10.9,13.4,10.6,13.7,10.2,13.7z"/>
</svg>
