<?xml version="1.0" encoding="utf-8"?>
<!-- Generator: Adobe Illustrator 24.0.3, SVG Export Plug-In . SVG Version: 6.00 Build 0)  -->
<svg version="1.1" id="icon_x5F_global-search" xmlns="http://www.w3.org/2000/svg" xmlns:xlink="http://www.w3.org/1999/xlink"
	 x="0px" y="0px" viewBox="0 0 30.1 25" enable-background="new 0 0 30.1 25" xml:space="preserve">
<path id="Tracé_7955" fill="none" stroke="#B8BECC" stroke-linecap="round" stroke-miterlimit="10" d="M18.9,22.7
	c-5.6,3.5-13,1.9-16.6-3.7c-3.5-5.6-1.9-13,3.7-16.6c5.6-3.5,13-1.9,16.6,3.7c0.5,0.8,0.9,1.7,1.2,2.6"/>
<path id="Tracé_7956" fill="none" stroke="#B8BECC" stroke-linecap="round" stroke-miterlimit="10" d="M16.9,21.5
	c-0.1,0.1-0.2,0.3-0.3,0.4"/>
<path id="Tracé_7957" fill="none" stroke="#B8BECC" stroke-linecap="round" stroke-miterlimit="10" d="M16.7,3.2
	c1.2,1.6,2,3.5,2.3,5.5"/>
<path id="Tracé_7958" fill="none" stroke="#B8BECC" stroke-linecap="round" stroke-miterlimit="10" d="M8.4,22
	C4.7,16.3,4.7,8.9,8.3,3.2"/>
<line id="Ligne_163" fill="none" stroke="#B8BECC" stroke-linecap="round" stroke-miterlimit="10" x1="12.5" y1="2.1" x2="12.5" y2="22.9"/>
<line id="Ligne_164" fill="none" stroke="#B8BECC" stroke-linecap="round" stroke-miterlimit="10" x1="2.1" y1="12.5" x2="14" y2="12.5"/>
<line id="Ligne_165" fill="none" stroke="#B8BECC" stroke-linecap="round" stroke-miterlimit="10" x1="4.6" y1="5.6" x2="20.4" y2="5.6"/>
<line id="Ligne_166" fill="none" stroke="#B8BECC" stroke-linecap="round" stroke-miterlimit="10" x1="4.6" y1="19.4" x2="14.5" y2="19.4"/>
<circle id="Ellipse_46" fill="none" stroke="#B8BECC" stroke-width="0.9999" stroke-linecap="round" stroke-miterlimit="9.9988" cx="20.9" cy="15.6" r="5.7"/>
<path id="Tracé_7959" fill="none" stroke="#B8BECC" stroke-linecap="round" stroke-miterlimit="10" d="M25.8,18.6l3.4,3.4
	c0.6,0.6,0.6,1.5,0,2.1c0,0,0,0,0,0l0,0c-0.6,0.6-1.5,0.6-2.1,0c0,0,0,0,0,0l-3.4-3.4"/>
</svg>
