<?xml version="1.0" encoding="utf-8"?>
<!-- Generator: Adobe Illustrator 24.0.2, SVG Export Plug-In . SVG Version: 6.00 Build 0)  -->
<svg version="1.1" id="icon_x5F_filter-service" xmlns="http://www.w3.org/2000/svg" xmlns:xlink="http://www.w3.org/1999/xlink"
	 x="0px" y="0px" viewBox="0 0 17.4 16.9" enable-background="new 0 0 17.4 16.9" xml:space="preserve">
<g id="main-tendue">
	<path id="Tracé_7746" fill="none" stroke="#637293" stroke-linecap="round" stroke-miterlimit="10" d="M10.6,12.9
		c1.3-0.6,2.7-1.1,4.1-1.4c0.7-0.1,1.3,0.1,1.8,0.5c0.3,0.3,0.3,0.7,0.1,1c-0.1,0.1-0.2,0.2-0.3,0.2l-8.6,3.1
		c-0.6,0.2-1.3,0.2-1.9-0.1l-5-2.3c-0.3-0.1-0.4-0.4-0.4-0.7V9.3c0-0.4,0.3-0.7,0.7-0.7c0,0,0,0,0.1,0C2.6,8.7,3.8,9.2,4.8,10H8
		c1.4,0,2.6,1.1,2.6,2.6C10.7,12.7,10.7,12.8,10.6,12.9l-5.8,0"/>
</g>
<g id="cadeau" transform="translate(-477.394 -935.246)">
	<path id="Tracé_7747" fill="none" stroke="#637293" stroke-linecap="round" stroke-miterlimit="10" d="M482.2,945.2v-5.8h10.1v7.2
		"/>
	<path id="Tracé_7748" fill="none" stroke="#637293" stroke-linecap="round" stroke-miterlimit="10" d="M486.3,936.2
		c0.8,0.8,0.9,2.9,0.9,2.9s-2.1,0-2.9-0.8c-0.6-0.6-0.6-1.5,0-2S485.8,935.6,486.3,936.2L486.3,936.2L486.3,936.2z"/>
	<path id="Tracé_7749" fill="none" stroke="#637293" stroke-linecap="round" stroke-miterlimit="10" d="M488.3,936.2
		c-0.8,0.8-0.9,2.9-0.9,2.9s2.1,0,2.9-0.8c0.6-0.6,0.6-1.5,0-2.1C489.8,935.6,488.9,935.6,488.3,936.2L488.3,936.2z"/>

		<line id="Ligne_90" fill="none" stroke="#637293" stroke-linecap="round" stroke-miterlimit="10" x1="487.3" y1="939.4" x2="487.3" y2="945.9"/>
</g>
</svg>
