<?xml version="1.0" encoding="utf-8"?>
<!-- Generator: Adobe Illustrator 24.0.2, SVG Export Plug-In . SVG Version: 6.00 Build 0)  -->
<svg version="1.1" id="picto_x5F_centre-apec" xmlns="http://www.w3.org/2000/svg" xmlns:xlink="http://www.w3.org/1999/xlink"
	 x="0px" y="0px" viewBox="0 0 17 17" style="enable-background:new 0 0 17 17;" xml:space="preserve">
<style type="text/css">
	.st0{fill:none;stroke:#B8BECC;stroke-linecap:round;stroke-miterlimit:10;}
</style>
<rect id="Rectangle_92" x="6.1" y="0.5" class="st0" width="10.4" height="16"/>
<rect id="Rectangle_93" x="0.5" y="4.7" class="st0" width="5.6" height="11.8"/>
<rect id="Rectangle_94" x="2.6" y="6.8" class="st0" width="3.5" height="2.1"/>
<rect id="Rectangle_95" x="2.6" y="10.9" class="st0" width="3.5" height="2.1"/>
<path id="Rectangle_96" class="st0" d="M11.3,13L11.3,13c1,0,1.7,0.8,1.7,1.7l0,0v1.7l0,0H9.5l0,0v-1.7C9.5,13.8,10.3,13,11.3,13
	C11.3,13,11.3,13,11.3,13z"/>
<line id="Ligne_73" class="st0" x1="8.2" y1="2.6" x2="8.8" y2="2.6"/>
<line id="Ligne_74" class="st0" x1="10.9" y1="2.6" x2="11.6" y2="2.6"/>
<line id="Ligne_75" class="st0" x1="13.7" y1="2.6" x2="14.4" y2="2.6"/>
<line id="Ligne_76" class="st0" x1="8.2" y1="4.7" x2="8.8" y2="4.7"/>
<line id="Ligne_77" class="st0" x1="10.9" y1="4.7" x2="11.6" y2="4.7"/>
<line id="Ligne_78" class="st0" x1="13.7" y1="4.7" x2="14.4" y2="4.7"/>
<line id="Ligne_79" class="st0" x1="8.2" y1="6.8" x2="8.8" y2="6.8"/>
<line id="Ligne_80" class="st0" x1="10.9" y1="6.8" x2="11.6" y2="6.8"/>
<line id="Ligne_81" class="st0" x1="13.7" y1="6.8" x2="14.4" y2="6.8"/>
<line id="Ligne_82" class="st0" x1="8.2" y1="8.8" x2="8.8" y2="8.8"/>
<line id="Ligne_83" class="st0" x1="10.9" y1="8.8" x2="11.6" y2="8.8"/>
<line id="Ligne_84" class="st0" x1="13.7" y1="8.8" x2="14.4" y2="8.8"/>
<line id="Ligne_85" class="st0" x1="8.2" y1="10.9" x2="8.8" y2="10.9"/>
<line id="Ligne_86" class="st0" x1="10.9" y1="10.9" x2="11.6" y2="10.9"/>
<line id="Ligne_87" class="st0" x1="13.7" y1="10.9" x2="14.4" y2="10.9"/>
</svg>
