<svg xmlns="http://www.w3.org/2000/svg"  width="17" height="17" viewBox="0 0 17 17">
  <g id="Groupe_34326" data-name="Groupe 34326" transform="translate(-412.965 -405.939)">
    <circle id="Ellipse_21" data-name="Ellipse 21" cx="8" cy="8" r="8" transform="translate(413.465 406.439)" fill="none" stroke="#637293" stroke-linecap="round" stroke-miterlimit="10" stroke-width="1"/>
    <path id="Tracé_7841" data-name="Tracé 7841" d="M426.265,419.639l-2.552-1.023a.889.889,0,0,1-.648-.762v-.615c1.2-.363,1.268-1.458,1.268-2.4a1.969,1.969,0,0,0,.468-.4,5.218,5.218,0,0,0,.392-1.632l-.528-.368v-1.056a3.211,3.211,0,0,0-6.4,0v1.056l-.527.368a5.237,5.237,0,0,0,.391,1.632,1.989,1.989,0,0,0,.468.4c0,.942.068,2.037,1.268,2.4v.615a.889.889,0,0,1-.648.762l-2.552,1.023" fill="none" stroke="#637293" stroke-linecap="round" stroke-miterlimit="10" stroke-width="1"/>
  </g>
</svg>
