<?xml version="1.0" encoding="utf-8"?>
<!-- Generator: Adobe Illustrator 24.0.3, SVG Export Plug-In . SVG Version: 6.00 Build 0)  -->
<svg version="1.1" id="icon_x5F_targeted-search" xmlns="http://www.w3.org/2000/svg" xmlns:xlink="http://www.w3.org/1999/xlink"
	 x="0px" y="0px" viewBox="0 0 33.5 41" enable-background="new 0 0 33.5 41" xml:space="preserve">
<path id="Tracé_7960" fill="none" stroke="#404A64" stroke-linecap="round" stroke-miterlimit="10" d="M26.3,15.5
	c-0.3,1.6-1,3.1-2.1,4.4"/>
<path id="Tracé_7961" fill="none" stroke="#404A64" stroke-linecap="round" stroke-miterlimit="10" d="M18.6,4.1
	c3.9,0.8,6.9,3.8,7.6,7.6"/>
<path id="Tracé_7962" fill="none" stroke="#404A64" stroke-linecap="round" stroke-miterlimit="10" d="M7.2,11.8
	C8,7.9,11,4.9,14.9,4.1"/>
<path id="Tracé_7963" fill="none" stroke="#404A64" stroke-linecap="round" stroke-miterlimit="10" d="M9.3,19.9
	c-1.1-1.3-1.8-2.8-2.1-4.4"/>
<path id="Tracé_7964" fill="none" stroke="#404A64" stroke-linecap="round" stroke-miterlimit="10" d="M23,15.6
	c-0.3,0.9-0.7,1.7-1.4,2.4"/>
<path id="Tracé_7965" fill="none" stroke="#404A64" stroke-linecap="round" stroke-miterlimit="10" d="M18.6,7.3
	c2.1,0.6,3.8,2.3,4.4,4.4"/>
<path id="Tracé_7966" fill="none" stroke="#404A64" stroke-linecap="round" stroke-miterlimit="10" d="M10.5,11.8
	c0.6-2.1,2.2-3.7,4.3-4.4"/>
<path id="Tracé_7967" fill="none" stroke="#404A64" stroke-linecap="round" stroke-miterlimit="10" d="M11.9,18
	c-0.6-0.7-1.1-1.6-1.4-2.5"/>
<line id="Ligne_167" fill="none" stroke="#404A64" stroke-linecap="round" stroke-miterlimit="10" x1="12.4" y1="13.6" x2="5.5" y2="13.6"/>
<line id="Ligne_168" fill="none" stroke="#404A64" stroke-linecap="round" stroke-miterlimit="10" x1="28" y1="13.6" x2="21.1" y2="13.6"/>
<line id="Ligne_169" fill="none" stroke="#404A64" stroke-linecap="round" stroke-miterlimit="10" x1="16.8" y1="3" x2="16.8" y2="9.2"/>
<path id="Tracé_7968" fill="none" stroke="#404A64" stroke-linecap="round" stroke-miterlimit="10" d="M16.8,17.8
	c1.7,0,3.1-1.4,3.1-3.1v-1c0-1.7-1.5-3.1-3.2-3c-1.7,0-3,1.4-3,3v1C13.7,16.4,15,17.8,16.8,17.8z"/>
<path id="Tracé_7969" fill="none" stroke="#404A64" stroke-linecap="round" stroke-miterlimit="10" d="M20.3,32.4
	c1.4,0,3.3-1.7,3.3-3.1v-5c-0.1-2.4-2-4.3-4.4-4.4h-5c-2.4,0.1-4.3,2-4.4,4.4v5c0.2,1.6,1.4,2.9,3,3.1"/>
<line id="Ligne_170" fill="none" stroke="#404A64" stroke-linecap="round" stroke-miterlimit="10" x1="20.5" y1="40.5" x2="20.5" y2="23.6"/>
<line id="Ligne_171" fill="none" stroke="#404A64" stroke-linecap="round" stroke-miterlimit="10" x1="13" y1="23.6" x2="13" y2="40.5"/>
<line id="Ligne_172" fill="none" stroke="#404A64" stroke-linecap="round" stroke-miterlimit="10" x1="16.8" y1="40.5" x2="16.8" y2="31.1"/>
<line id="Ligne_173" fill="none" stroke="#404A64" stroke-linecap="round" stroke-miterlimit="10" x1="4.2" y1="13.6" x2="3" y2="13.6"/>
<line id="Ligne_174" fill="none" stroke="#404A64" stroke-linecap="round" stroke-miterlimit="10" x1="29.2" y1="13.6" x2="30.5" y2="13.6"/>
<line id="Ligne_175" fill="none" stroke="#404A64" stroke-linecap="round" stroke-miterlimit="10" x1="16.8" y1="0.5" x2="16.8" y2="1.8"/>
<line id="Ligne_176" fill="none" stroke="#404A64" stroke-linecap="round" stroke-miterlimit="10" x1="1.8" y1="13.6" x2="0.5" y2="13.6"/>
<line id="Ligne_177" fill="none" stroke="#404A64" stroke-linecap="round" stroke-miterlimit="10" x1="31.7" y1="13.6" x2="33" y2="13.6"/>
</svg>
