<svg  version="1.1" id="icon_hyprlink" width="26" height="26" xmlns="http://www.w3.org/2000/svg"
viewBox="0 0 26 26" enable-background="new 0 0 25.1 25.1" xml:space="preserve">
 <g>
  <path  fill="#B8BECC"  stroke="#B8BECC"  stroke-linecap="round" stroke-linejoin="round"  d="m35.521,41.288c-3.422,0 -6.64,-1.333 -9.06,-3.753c-1.106,-1.106 -1.106,-2.9 0,-4.006c1.106,-1.106 2.9,-1.106 4.006,0c1.35,1.35 3.145,2.093 5.054,2.093c1.909,0 3.704,-0.743 5.054,-2.094l7.538,-7.538c2.787,-2.787 2.787,-7.321 0,-10.108c-2.787,-2.787 -7.321,-2.787 -10.108,0l-3.227,3.227c-1.106,1.106 -2.9,1.106 -4.006,0c-1.106,-1.106 -1.106,-2.9 0,-4.006l3.228,-3.226c4.996,-4.996 13.124,-4.995 18.12,0c4.996,4.996 4.996,13.124 0,18.12l-7.538,7.538c-2.421,2.42 -5.638,3.753 -9.061,3.753z"/>
  <path fill="#B8BECC" transform="rotate(178.94439697265625 17.034864425659183,9.631949424743652) "  stroke="#B8BECC" id="svg_1"  d="m15.994216,17.099785c-1.541439,0 -2.990986,-0.600449 -4.081074,-1.690538c-2.250447,-2.250447 -2.250447,-5.911702 0,-8.162149l3.39549,-3.39549c2.250447,-2.249996 5.911702,-2.249996 8.162149,0c0.498197,0.498197 0.498197,1.306304 0,1.804502c-0.498197,0.498197 -1.306304,0.498197 -1.804502,0c-1.255403,-1.255403 -3.297742,-1.255403 -4.553146,0l-3.39549,3.39549c-1.255403,1.255403 -1.255403,3.297742 0,4.553146c0.608107,0.608107 1.416664,0.943242 2.276573,0.943242c0.859909,0 1.668466,-0.334684 2.276573,-0.942791l1.453601,-1.453601c0.498197,-0.498197 1.306304,-0.498197 1.804502,0c0.498197,0.498197 0.498197,1.306304 0,1.804502l-1.453601,1.453601c-1.090088,1.089638 -2.539185,1.690087 -4.081074,1.690087z"/>
  <path fill="#B8BECC" stroke="#B8BECC"  stroke-linecap="round" stroke-linejoin="round" id="svg_2"  d="m8.240373,23.869014c-1.54144,0 -2.99099,-0.60045 -4.08107,-1.69054c-2.25045,-2.25045 -2.25045,-5.9117 0,-8.16215l3.39549,-3.39549c2.25044,-2.24999 5.9117,-2.24999 8.16214,0c0.4982,0.4982 0.4982,1.30631 0,1.8045c-0.49819,0.4982 -1.3063,0.4982 -1.8045,0c-1.2554,-1.2554 -3.29774,-1.2554 -4.55314,0l-3.39549,3.39549c-1.25541,1.25541 -1.25541,3.29775 0,4.55315c0.6081,0.60811 1.41666,0.94324 2.27657,0.94324c0.85991,0 1.66847,-0.33468 2.27657,-0.94279l1.4536,-1.4536c0.4982,-0.4982 1.30631,-0.4982 1.80451,0c0.49819,0.4982 0.49819,1.3063 0,1.8045l-1.45361,1.4536c-1.09008,1.08964 -2.53918,1.69009 -4.08107,1.69009z"/>
 </g>
</svg>


