<?xml version="1.0" encoding="utf-8"?>
<!-- Generator: Adobe Illustrator 24.0.2, SVG Export Plug-In . SVG Version: 6.00 Build 0)  -->
<svg version="1.1" id="icon_x5F_comment" xmlns="http://www.w3.org/2000/svg" xmlns:xlink="http://www.w3.org/1999/xlink" x="0px"
	 y="0px" viewBox="0 0 21.9 21.8" enable-background="new 0 0 21.9 21.8" xml:space="preserve">
<path id="Tracé_8120" fill="none" stroke="#B8BECC" stroke-linecap="round" stroke-miterlimit="10" d="M6,4.1V1.4
	c0-0.5,0.4-0.9,0.9-0.9c0,0,0,0,0,0h13.6c0.5,0,0.9,0.4,0.9,0.9l0,0V15L19,12.3h-1.2"/>
<line id="Ligne_235" fill="none" stroke="#B8BECC" stroke-linecap="round" stroke-miterlimit="10" x1="4.1" y1="11.9" x2="12.3" y2="11.9"/>
<line id="Ligne_236" fill="none" stroke="#B8BECC" stroke-linecap="round" stroke-miterlimit="10" x1="4.1" y1="14.6" x2="12.3" y2="14.6"/>
<line id="Ligne_237" fill="none" stroke="#B8BECC" stroke-linecap="round" stroke-miterlimit="10" x1="4.1" y1="9.1" x2="12.3" y2="9.1"/>
<path id="Tracé_8119" fill="none" stroke="#B8BECC" stroke-linecap="round" stroke-miterlimit="10" d="M15,6H1.4
	C0.9,6,0.5,6.4,0.5,6.9l0,0v13.6l2.4-2.7H15c0.5,0,0.9-0.4,0.9-0.9c0,0,0,0,0,0v-10C16,6.4,15.5,6,15,6C15,6,15,6,15,6z"/>
</svg>

