<?xml version="1.0" encoding="utf-8"?>
<!-- Generator: Adobe Illustrator 24.0.2, SVG Export Plug-In . SVG Version: 6.00 Build 0)  -->
<svg version="1.1" id="icon_x5F_people" xmlns="http://www.w3.org/2000/svg" xmlns:xlink="http://www.w3.org/1999/xlink" x="0px"
	 y="0px" viewBox="0 0 14.1 37" enable-background="new 0 0 14.1 37" xml:space="preserve">
<g>
	<defs>
		<rect id="SVGID_1_" width="14.1" height="37"/>
	</defs>
	<clipPath id="SVGID_2_">
		<use xlink:href="#SVGID_1_"  overflow="visible"/>
	</clipPath>
	<g id="Icône_personne" clip-path="url(#SVGID_2_)">
		<path id="Tracé_8142" fill="none" stroke="#B8BECC" stroke-linecap="round" stroke-miterlimit="10" d="M10.1,3.6
			c0,1.7-1.4,3-3.1,3c-1.7,0-3-1.4-3-3.1c0-1.6,1.4-3,3-3C8.7,0.5,10.1,1.9,10.1,3.6z"/>
		<g id="Groupe_34599" transform="translate(-569.719 -1413.183)">
			<path id="Tracé_8143" fill="none" stroke="#B8BECC" stroke-linecap="round" stroke-miterlimit="10" d="M573.4,1437.1h-1.5
				c-0.7,0-1.2-0.5-1.3-1.2l-0.4-11c0-0.7,0.2-1.3,0.7-1.8c0.5-0.5,1.2-0.7,1.9-0.7h1.9l2,3.6l2-3.6h1.9c0.7,0,1.4,0.3,1.9,0.7
				c0.5,0.5,0.7,1.1,0.7,1.8l-0.4,11c0,0.7-0.6,1.2-1.3,1.2h-1.5"/>
			<g id="Groupe_34598">
				<path id="Tracé_8144" fill="none" stroke="#B8BECC" stroke-linecap="round" stroke-miterlimit="10" d="M576.7,1434.6v15.1"/>
			</g>
		</g>
		<path id="Tracé_8145" fill="none" stroke="#B8BECC" stroke-linecap="round" stroke-miterlimit="10" d="M10.6,14.4l-0.2,9.5
			l-0.3,11.2c0,0.8-0.6,1.4-1.4,1.4H5.4c-0.8,0-1.4-0.6-1.4-1.4L3.7,23.9l-0.2-9.5"/>
	</g>
</g>
</svg>
