<?xml version="1.0" encoding="utf-8"?>
<!-- Generator: Adobe Illustrator 24.0.2, SVG Export Plug-In . SVG Version: 6.00 Build 0)  -->
<svg version="1.1" id="icon_x5F_apec-center" xmlns="http://www.w3.org/2000/svg" xmlns:xlink="http://www.w3.org/1999/xlink"
	 x="0px" y="0px" viewBox="0 0 29.2 31.3" enable-background="new 0 0 29.2 31.3" xml:space="preserve">
<g id="Groupe_34596">
	<path id="Tracé_8138" fill="none" stroke="#B8BECC" stroke-linecap="round" stroke-miterlimit="10" d="M14.2,27.3L0.5,27.1
		L0.9,0.5l17.3,0.3L18.1,8"/>
	<path id="Rectangle_449" fill="none" stroke="#B8BECC" stroke-linecap="round" stroke-miterlimit="10" d="M7.1,21.4l1.8,0
		c1.1,0,2,0.9,2,2c0,0,0,0,0,0l-0.1,3.8l0,0L5,27.1l0,0L5,23.3C5,22.2,5.9,21.4,7.1,21.4z"/>
	
		<line id="Ligne_293" fill="none" stroke="#B8BECC" stroke-linecap="round" stroke-miterlimit="10" x1="4.3" y1="4" x2="5.5" y2="4"/>
	
		<line id="Ligne_294" fill="none" stroke="#B8BECC" stroke-linecap="round" stroke-miterlimit="10" x1="8.9" y1="4.1" x2="10.1" y2="4.1"/>
	
		<line id="Ligne_295" fill="none" stroke="#B8BECC" stroke-linecap="round" stroke-miterlimit="10" x1="13.6" y1="4.2" x2="14.7" y2="4.2"/>
	
		<line id="Ligne_296" fill="none" stroke="#B8BECC" stroke-linecap="round" stroke-miterlimit="10" x1="4.3" y1="7.5" x2="5.4" y2="7.5"/>
	
		<line id="Ligne_297" fill="none" stroke="#B8BECC" stroke-linecap="round" stroke-miterlimit="10" x1="8.9" y1="7.6" x2="10" y2="7.6"/>
	
		<line id="Ligne_298" fill="none" stroke="#B8BECC" stroke-linecap="round" stroke-miterlimit="10" x1="13.5" y1="7.6" x2="14.7" y2="7.6"/>
	
		<line id="Ligne_299" fill="none" stroke="#B8BECC" stroke-linecap="round" stroke-miterlimit="10" x1="4.2" y1="11" x2="5.4" y2="11"/>
	
		<line id="Ligne_300" fill="none" stroke="#B8BECC" stroke-linecap="round" stroke-miterlimit="10" x1="8.8" y1="11" x2="10" y2="11"/>
	
		<line id="Ligne_301" fill="none" stroke="#B8BECC" stroke-linecap="round" stroke-miterlimit="10" x1="13.5" y1="11.1" x2="14.6" y2="11.1"/>
	
		<line id="Ligne_302" fill="none" stroke="#B8BECC" stroke-linecap="round" stroke-miterlimit="10" x1="4.2" y1="14.4" x2="5.3" y2="14.4"/>
	
		<line id="Ligne_303" fill="none" stroke="#B8BECC" stroke-linecap="round" stroke-miterlimit="10" x1="8.8" y1="14.5" x2="9.9" y2="14.5"/>
	
		<line id="Ligne_304" fill="none" stroke="#B8BECC" stroke-linecap="round" stroke-miterlimit="10" x1="4.1" y1="17.9" x2="5.3" y2="17.9"/>
	
		<line id="Ligne_305" fill="none" stroke="#B8BECC" stroke-linecap="round" stroke-miterlimit="10" x1="8.7" y1="18" x2="9.9" y2="18"/>
</g>
<g id="Groupe_34597">
	<circle id="Ellipse_64" fill="none" stroke="#B8BECC" stroke-linecap="round" stroke-miterlimit="10" cx="21.8" cy="19" r="3.3"/>
	<path id="Tracé_8139" fill="none" stroke="#B8BECC" stroke-linecap="round" stroke-miterlimit="10" d="M21.9,12
		c3.8,0.1,6.9,3.2,6.9,7.1c0,1.4-0.5,2.8-1.3,4l-5.8,7.4L16,22.9c-2.2-3.2-1.4-7.5,1.8-9.7C19,12.4,20.4,12,21.9,12L21.9,12z"/>
</g>
</svg>
