<?xml version="1.0" encoding="utf-8"?>
<!-- Generator: Adobe Illustrator 24.0.3, SVG Export Plug-In . SVG Version: 6.00 Build 0)  -->
<svg version="1.1" id="icon-save" xmlns="http://www.w3.org/2000/svg" xmlns:xlink="http://www.w3.org/1999/xlink" x="0px" y="0px"
	 viewBox="0 0 25 25" enable-background="new 0 0 25 25" xml:space="preserve">
<path id="Tracé_8211_1_" fill="none" stroke="#B7BCCA" stroke-linecap="round" stroke-linejoin="round" d="M24.5,23.5V5.7l-5.2-5.2
	H1.5c-0.6,0-1,0.5-1,1v21.9c0,0.6,0.5,1,1,1h21.9C24,24.5,24.5,24,24.5,23.5z"/>
<path id="Rectangle_508_1_" fill="none" stroke="#B7BCCA" stroke-linecap="round" stroke-linejoin="round" d="M20.3,24.5H4.7l0,0
	v-8.3c0-0.6,0.5-1.1,1.1-1.1l0,0h13.5c0.6,0,1,0.5,1,1V24.5L20.3,24.5z"/>
<path id="Rectangle_509_1_" fill="none" stroke="#B7BCCA" stroke-linecap="round" stroke-linejoin="round" d="M6.8,0.5h8.3l0,0v6.3
	c0,0.6-0.5,1-1,1H7.8c-0.6,0-1-0.5-1-1V0.5L6.8,0.5z"/>
</svg>
