<?xml version="1.0" encoding="utf-8"?>
<!-- Generator: Adobe Illustrator 24.0.3, SVG Export Plug-In . SVG Version: 6.00 Build 0)  -->
<svg version="1.1" id="icon-certifications" xmlns="http://www.w3.org/2000/svg" xmlns:xlink="http://www.w3.org/1999/xlink"
	 x="0px" y="0px" viewBox="0 0 21.3 25" enable-background="new 0 0 21.3 25" xml:space="preserve">
<path id="Tracé_8233" fill="none" stroke="#B7BDCB" stroke-linecap="round" stroke-linejoin="round" d="M14.6,16.8
	c0,1-0.8,1.9-1.9,1.9c-1,0-1.9-0.8-1.9-1.9s0.8-1.9,1.9-1.9h0C13.8,14.9,14.6,15.7,14.6,16.8z"/>
<path id="Tracé_8234" fill="none" stroke="#B7BDCB" stroke-linecap="round" stroke-linejoin="round" d="M14.4,20.8v3.7l-1.6-1.6
	l-1.6,1.6v-3.7"/>
<path id="Tracé_8235" fill="none" stroke="#B7BDCB" stroke-linecap="round" stroke-linejoin="round" d="M18.6,0.5
	c1.2,0,2.1,1,2.1,2.1v19.7h-6.4"/>
<path id="Tracé_8236" fill="none" stroke="#B7BDCB" stroke-linecap="round" stroke-linejoin="round" d="M4.8,3.7v18.7h6.4"/>
<path id="Tracé_8237" fill="none" stroke="#B7BDCB" stroke-linecap="round" stroke-linejoin="round" d="M2.6,0.5
	c-1.2,0-2.1,1-2.1,2.1l0,0v1.1h16V2.6c0-1.2,1-2.1,2.1-2.1l0,0H2.6z"/>
<path id="Tracé_8238" fill="none" stroke="#B7BDCB" stroke-linecap="round" stroke-linejoin="round" d="M10.7,12.8
	c0.1-0.3,0.4-0.4,0.7-0.3c0,0,0,0,0,0l1.3,0.6l1.3-0.6c0.3-0.1,0.6,0,0.7,0.3c0,0,0,0,0,0l0.5,1.4l1.4,0.5c0.3,0.1,0.4,0.4,0.3,0.7
	c0,0,0,0,0,0l-0.6,1.3l0.6,1.3c0.1,0.3,0,0.6-0.3,0.7c0,0,0,0,0,0l-1.4,0.5l-0.5,1.4c-0.1,0.3-0.4,0.4-0.7,0.3c0,0,0,0,0,0l-1.3-0.6
	L11.4,21c-0.3,0.1-0.6,0-0.7-0.3c0,0,0,0,0,0l-0.5-1.4l-1.4-0.5c-0.3-0.1-0.4-0.4-0.3-0.7c0,0,0,0,0,0l0.6-1.3l-0.6-1.3
	c-0.1-0.3,0-0.6,0.3-0.7c0,0,0,0,0,0l1.4-0.5L10.7,12.8z"/>
<line id="Ligne_479" fill="none" stroke="#B7BDCB" stroke-linecap="round" stroke-linejoin="round" x1="7.4" y1="6.9" x2="18.1" y2="6.9"/>
<line id="Ligne_480" fill="none" stroke="#B7BDCB" stroke-linecap="round" stroke-linejoin="round" x1="10.1" y1="9" x2="15.4" y2="9"/>
</svg>
