<?xml version="1.0" encoding="utf-8"?>
<!-- Generator: Adobe Illustrator 24.0.3, SVG Export Plug-In . SVG Version: 6.00 Build 0)  -->
<svg version="1.1" id="icon_x5F_add-registration" xmlns="http://www.w3.org/2000/svg" xmlns:xlink="http://www.w3.org/1999/xlink"
	 x="0px" y="0px" viewBox="0 0 20 40" enable-background="new 0 0 20 40" xml:space="preserve">
<g>
	<path id="Tracé_8128" fill="none" stroke="#B7BDCB" stroke-linecap="round" stroke-miterlimit="10" d="M10.7,4.3
		c0,1.8-1.5,3.2-3.3,3.1c-1.8,0-3.2-1.5-3.1-3.3C4.4,2.4,5.8,1,7.5,1C9.3,1,10.7,2.5,10.7,4.3C10.7,4.3,10.7,4.3,10.7,4.3z"/>
	<path id="Tracé_8129" fill="none" stroke="#B7BDCB" stroke-linecap="round" stroke-miterlimit="10" d="M11,25.7h1.6
		c0.7,0,1.3-0.5,1.3-1.2l0.1-3.6"/>
	<path id="Tracé_8130" fill="none" stroke="#B7BDCB" stroke-linecap="round" stroke-miterlimit="10" d="M4,25.7H2.4
		c-0.7,0-1.3-0.5-1.3-1.2L0.6,12.9c0-0.7,0.2-1.4,0.7-1.9c0.6-0.5,1.3-0.8,2.1-0.8h2l1.9,3.5"/>
	<path id="Tracé_8131" fill="#404A64" stroke="#B7BDCB" stroke-linecap="round" stroke-miterlimit="10" d="M7.5,23.1V39"/>
	<path id="Tracé_8132" fill="none" stroke="#B7BDCB" stroke-linecap="round" stroke-miterlimit="10" d="M3.8,15.7l0.2,10l0,0
		l0.3,11.8c0,0.8,0.7,1.5,1.5,1.5h3.5c0.8,0,1.5-0.6,1.5-1.5l0.3-11.8l0,0l0.1-5.2"/>
	
		<ellipse id="Ellipse_61" fill="none" stroke="#B7BDCB" stroke-linecap="round" stroke-miterlimit="10" cx="13.3" cy="14.8" rx="6.1" ry="6"/>
	
		<line id="Ligne_265" fill="none" stroke="#B7BDCB" stroke-linecap="round" stroke-miterlimit="10" x1="13.3" y1="11.1" x2="13.3" y2="18.6"/>
	
		<line id="Ligne_266" fill="none" stroke="#B7BDCB" stroke-linecap="round" stroke-miterlimit="10" x1="9.5" y1="14.8" x2="17.1" y2="14.8"/>
</g>
</svg>
