<?xml version="1.0" encoding="utf-8"?>
<!-- Generator: Adobe Illustrator 24.0.3, SVG Export Plug-In . SVG Version: 6.00 Build 0)  -->
<svg version="1.1" id="icon-attendance-tracking" xmlns="http://www.w3.org/2000/svg" xmlns:xlink="http://www.w3.org/1999/xlink"
	 x="0px" y="0px" viewBox="0 0 19.7 25" enable-background="new 0 0 19.7 25" xml:space="preserve">
<path id="Tracé_8250" fill="none" stroke="#B7BDCB" stroke-linecap="round" stroke-miterlimit="10" d="M10.3,2
	c0-0.8,0.7-1.5,1.5-1.5c0.8,0,1.5,0.7,1.5,1.5"/>
<rect id="Rectangle_512" x="7.9" y="3.1" fill="none" stroke="#B7BDCB" stroke-linecap="round" stroke-miterlimit="10" width="7.7" height="2.7"/>
<path id="Tracé_8251" fill="none" stroke="#B7BDCB" stroke-linecap="round" stroke-miterlimit="10" d="M4.3,7.6V3.9h2"/>
<path id="Tracé_8252" fill="none" stroke="#B7BDCB" stroke-linecap="round" stroke-miterlimit="10" d="M17,3.9h2.1v19.6H7.3"/>
<path id="Tracé_8253" fill="none" stroke="#B7BDCB" stroke-linecap="round" stroke-miterlimit="10" d="M6.7,9.9L8,11.2l2.1-2.1"/>
<line id="Ligne_496" fill="none" stroke="#B7BDCB" stroke-linecap="round" stroke-miterlimit="10" x1="8.4" y1="15.1" x2="10.1" y2="13.4"/>
<path id="Tracé_8254" fill="none" stroke="#B7BDCB" stroke-linecap="round" stroke-miterlimit="10" d="M7.6,19.4L8,19.8l2.1-2.1"/>
<line id="Ligne_497" fill="none" stroke="#B7BDCB" stroke-linecap="round" stroke-miterlimit="10" x1="12" y1="10.1" x2="16.7" y2="10.1"/>
<line id="Ligne_498" fill="none" stroke="#B7BDCB" stroke-linecap="round" stroke-miterlimit="10" x1="12" y1="14.4" x2="16.7" y2="14.4"/>
<line id="Ligne_499" fill="none" stroke="#B7BDCB" stroke-linecap="round" stroke-miterlimit="10" x1="12" y1="18.7" x2="16.7" y2="18.7"/>
<ellipse id="Ellipse_103" fill="none" stroke="#B7BDCB" stroke-linecap="round" stroke-miterlimit="10" cx="3.9" cy="10.9" rx="1.5" ry="1.9"/>
<path id="Tracé_8255" fill="none" stroke="#B7BDCB" stroke-linecap="round" stroke-miterlimit="10" d="M2,19.7
	c-0.9-0.4-1.5-1.3-1.5-2.3v-1.1c0-1.3,1.1-2.4,2.4-2.4h0h1.9c1.3,0,2.4,1.1,2.4,2.4v1.1c0,1-0.6,1.9-1.5,2.3"/>
<line id="Ligne_500" fill="none" stroke="#B7BDCB" stroke-linecap="round" stroke-miterlimit="10" x1="3.9" y1="24.1" x2="3.9" y2="19.7"/>
<path id="Tracé_8256" fill="none" stroke="#B7BDCB" stroke-linecap="round" stroke-miterlimit="10" d="M2.1,15.9v8.2
	c0.5,0.5,1.3,0.5,1.8,0c0.5,0.5,1.3,0.5,1.8,0v-8.2"/>
</svg>
