<?xml version="1.0" encoding="utf-8"?>
<!-- Generator: Adobe Illustrator 24.0.2, SVG Export Plug-In . SVG Version: 6.00 Build 0)  -->
<svg version="1.1" id="icon_x5F_date" xmlns="http://www.w3.org/2000/svg" xmlns:xlink="http://www.w3.org/1999/xlink" x="0px"
	 y="0px" viewBox="0 0 31.7 31" enable-background="new 0 0 31.7 31" xml:space="preserve">
<path id="Tracé_8140" fill="none" stroke="#B8BECC" stroke-linecap="round" stroke-miterlimit="10" d="M4.9,12.9v-8
	c0-1.2,1-2.2,2.2-2.2c0,0,0,0,0,0h22c1.2,0,2.2,1,2.2,2.2c0,0,0,0,0,0v18.3c0,1.2-1,2.2-2.2,2.2h-11"/>
<path id="Rectangle_450" fill="none" stroke="#B8BECC" stroke-linecap="round" stroke-miterlimit="10" d="M6.9,2.7h22.3
	c1.1,0,2,0.9,2,2v3.1l0,0H4.9l0,0V4.7C4.9,3.6,5.8,2.7,6.9,2.7z"/>
<line id="Ligne_306" fill="none" stroke="#B8BECC" stroke-linecap="round" stroke-miterlimit="10" x1="9.3" y1="0.5" x2="9.3" y2="4.9"/>
<line id="Ligne_307" fill="none" stroke="#B8BECC" stroke-linecap="round" stroke-miterlimit="10" x1="13.7" y1="0.5" x2="13.7" y2="4.9"/>
<line id="Ligne_308" fill="none" stroke="#B8BECC" stroke-linecap="round" stroke-miterlimit="10" x1="18.1" y1="0.5" x2="18.1" y2="4.9"/>
<line id="Ligne_309" fill="none" stroke="#B8BECC" stroke-linecap="round" stroke-miterlimit="10" x1="22.5" y1="0.5" x2="22.5" y2="4.9"/>
<line id="Ligne_310" fill="none" stroke="#B8BECC" stroke-linecap="round" stroke-miterlimit="10" x1="26.8" y1="0.5" x2="26.8" y2="4.9"/>
<circle id="Ellipse_65" fill="none" stroke="#B8BECC" stroke-linecap="round" stroke-miterlimit="10" cx="8.5" cy="22.5" r="8"/>
<path id="Tracé_8141" fill="none" stroke="#B8BECC" stroke-linecap="round" stroke-miterlimit="10" d="M8.5,17.3v5.1h4.4"/>
</svg>
