<?xml version="1.0" encoding="utf-8"?>
<!-- Generator: Adobe Illustrator 24.0.3, SVG Export Plug-In . SVG Version: 6.00 Build 0)  -->
<svg version="1.1" id="icon-registrations_1_" xmlns="http://www.w3.org/2000/svg" xmlns:xlink="http://www.w3.org/1999/xlink"
	 x="0px" y="0px" viewBox="0 0 26.6 25.4" enable-background="new 0 0 26.6 25.4" xml:space="preserve">
<path id="Tracé_8239" fill="none" stroke="#B7BDCB" stroke-linecap="round" stroke-miterlimit="10" d="M20.6,21.7l-4.9,2.8l0.6-5.7
	l5.3-8.4c0.4-0.5,1.2-0.5,1.7-0.1l2.1,1.3c0.6,0.3,0.9,1,0.6,1.6L20.6,21.7z"/>
<line id="Ligne_487" fill="none" stroke="#B7BDCB" stroke-linecap="round" stroke-miterlimit="10" x1="20.4" y1="21" x2="16.8" y2="18.8"/>
<line id="Ligne_488" fill="none" stroke="#B7BDCB" stroke-linecap="round" stroke-miterlimit="10" x1="17.1" y1="23.6" x2="15.9" y2="22.8"/>
<line id="Ligne_489" fill="none" stroke="#B7BDCB" stroke-linecap="round" stroke-miterlimit="10" x1="18.7" y1="19.9" x2="21.7" y2="15.1"/>
<line id="Ligne_490" fill="none" stroke="#B7BDCB" stroke-linecap="round" stroke-miterlimit="10" x1="20.6" y1="12.2" x2="24.8" y2="14.8"/>
<path id="Tracé_8240" fill="none" stroke="#B7BDCB" stroke-linecap="round" stroke-miterlimit="10" d="M6.4,14.1c0,0.8,0,2.4,0,2.4
	s0.2,1-5.9,2.6"/>
<path id="Tracé_8241" fill="none" stroke="#B7BDCB" stroke-linecap="round" stroke-miterlimit="10" d="M12.6,14.1
	c0,0.8,0,2.4,0,2.4c0,0,0.3,0.7,2.2,1.3"/>
<path id="Tracé_8242" fill="none" stroke="#B7BDCB" stroke-linecap="round" stroke-miterlimit="10" d="M11.4,14.4
	c0.4-0.1,0.9-0.3,1.2-0.6c1.4-1,2.2-4.1,2.5-6.2c0.4-3.2,0-7-5.6-7.1h0c-5.6,0.1-6,3.9-5.6,7.1c0.3,2.2,1.1,5.3,2.5,6.2
	c0.4,0.3,0.8,0.5,1.2,0.6"/>
</svg>
