<svg xmlns="http://www.w3.org/2000/svg"  class="svg-general" width="17.107" height="17.105" viewBox="0 0 27.907 17.105">
  <g id="Groupe_35821" data-name="Groupe 35821" transform="translate(-634.305 -1897.5)">
    <g id="Calque_3" data-name="Calque 3">
      <path id="Tracé_8416" data-name="Tracé 8416" d="M645.383,1914l.941-3.839a1.837,1.837,0,0,1,1.333-1.342c.947-.241,2.242-.5,3.091-.741a1.057,1.057,0,0,0,.762-1.016v-.977l-.13-.146a2.659,2.659,0,0,1-.645-1.38.4.4,0,0,1-.4-.312,11.87,11.87,0,0,1-.267-1.425c0-.422.156-.522.345-.413a2.587,2.587,0,0,1-.1-.648c-.064-2.271,1.43-3.761,3.182-3.761s3.247,1.489,3.182,3.761a2.59,2.59,0,0,1-.1.648c.188-.109.345-.009.345.413a12.075,12.075,0,0,1-.266,1.425.4.4,0,0,1-.4.312,2.659,2.659,0,0,1-.645,1.38l-.13.146v.977a1.055,1.055,0,0,0,.762,1.016c.849.246,2.145.5,3.091.741a1.838,1.838,0,0,1,1.333,1.342l.94,3.839" fill="none" stroke="#b8becc" stroke-linecap="round" stroke-miterlimit="10" stroke-width="1"/>
    </g>
    <g id="Accueil_ateliers" data-name="Accueil ateliers">
      <g id="backup">
        <g id="database">
          <ellipse id="Ellipse_124" data-name="Ellipse 124" cx="6.452" cy="2.581" rx="6.452" ry="2.581" transform="translate(634.805 1898)" fill="none" stroke="" stroke-linecap="round" stroke-miterlimit="10" stroke-width="1"/>
          <path id="Tracé_8444" data-name="Tracé 8444" d="M634.8,1907.032v3.871c0,1.711,2.889,3.1,6.452,3.1.351,0,.7-.013,1.032-.039" fill="none" stroke="" stroke-linecap="round" stroke-miterlimit="10" stroke-width="1"/>
          <path id="Tracé_8445" data-name="Tracé 8445" d="M634.8,1903.677v3.613c0,1.542,2.347,2.821,5.419,3.058" fill="none" stroke="" stroke-linecap="round" stroke-miterlimit="10" stroke-width="1"/>
          <line id="Ligne_659" data-name="Ligne 659" y1="2.839" transform="translate(647.708 1900.581)" fill="none" stroke="" stroke-linecap="round" stroke-miterlimit="10" stroke-width="1"/>
          <path id="Tracé_8446" data-name="Tracé 8446" d="M634.8,1900.581v3.1c0,1.542,2.347,2.821,5.419,3.058" fill="none" stroke="" stroke-linecap="round" stroke-miterlimit="10" stroke-width="1"/>
        </g>
      </g>
    </g>
  </g>
</svg>
