<svg xmlns="http://www.w3.org/2000/svg" width="65.137" height="65.117" viewBox="0 0 65.137 65.117">
  <g id="Groupe_35838" data-name="Groupe 35838" transform="translate(-927.392 -684.164)">
    <path id="Tracé_8457" data-name="Tracé 8457" d="M935.113,718.07l1.59,1.59a7.255,7.255,0,0,0,1.023,2.016" fill="none" stroke="" stroke-linecap="round" stroke-miterlimit="10" stroke-width="1"/>
    <line id="Ligne_671" data-name="Ligne 671" x1="2.923" y1="2.923" transform="translate(946.773 706.411)" fill="none" stroke="" stroke-linecap="round" stroke-miterlimit="10" stroke-width="1"/>
    <path id="Tracé_8458" data-name="Tracé 8458" d="M952.518,736.763l1.366,1.382,1.794,1.794c2.739,2.739,5.3.724,6.614-1.548a4.8,4.8,0,0,0,6.31-2.086c3.174,1.567,5.954-1.68,5.726-3.341,3.429-.2,6-3.792,3.644-6.943" fill="none" stroke="" stroke-linecap="round" stroke-miterlimit="10" stroke-width="1"/>
    <path id="Tracé_8459" data-name="Tracé 8459" d="M973.125,706.264a9.3,9.3,0,0,1-2.5,1.736c-1.281.2-7.028-2.5-8.189-2.788s-12.741,3.389-13.6,4.784,2.56,4.69,5.854,4.271,8.184-2.17,9.609-.745c2.311,2.311,9.053,9.382,12.239,12.2,2.67,2.358,7.223-5.729,8.376-7" fill="none" stroke="" stroke-linecap="round" stroke-miterlimit="10" stroke-width="1"/>
    <g id="Groupe_35833" data-name="Groupe 35833">
      <line id="Ligne_672" data-name="Ligne 672" x1="4.924" y1="4.923" transform="translate(957.368 733.467)" fill="none" stroke="" stroke-linecap="round" stroke-miterlimit="10" stroke-width="1"/>
      <line id="Ligne_673" data-name="Ligne 673" x1="7.194" y1="7.194" transform="translate(961.408 729.11)" fill="none" stroke="" stroke-linecap="round" stroke-miterlimit="10" stroke-width="1"/>
      <line id="Ligne_674" data-name="Ligne 674" x1="8.445" y1="8.445" transform="translate(965.882 724.519)" fill="none" stroke="" stroke-linecap="round" stroke-miterlimit="10" stroke-width="1"/>
    </g>
    <g id="Groupe_35834" data-name="Groupe 35834">
      <rect id="Rectangle_625" data-name="Rectangle 625" width="7.495" height="20.986" transform="translate(971.682 704.821) rotate(-45)" fill="none" stroke="" stroke-linecap="round" stroke-miterlimit="10" stroke-width="1"/>
      <line id="Ligne_675" data-name="Ligne 675" x2="2.12" y2="2.12" transform="translate(976.982 704.82)" fill="none" stroke="" stroke-linecap="round" stroke-miterlimit="10" stroke-width="1"/>
    </g>
    <g id="Groupe_35835" data-name="Groupe 35835">
      <rect id="Rectangle_626" data-name="Rectangle 626" width="20.986" height="7.495" transform="translate(928.223 714.36) rotate(-45)" fill="none" stroke="" stroke-linecap="round" stroke-miterlimit="10" stroke-width="1"/>
      <line id="Ligne_676" data-name="Ligne 676" x1="2.12" y2="2.12" transform="translate(940.943 704.82)" fill="none" stroke="" stroke-linecap="round" stroke-miterlimit="10" stroke-width="1"/>
    </g>
    <g id="Groupe_35836" data-name="Groupe 35836">
      <path id="Tracé_8460" data-name="Tracé 8460" d="M952.518,748.678h0a32.417,32.417,0,0,1-24.54-25.436" fill="none" stroke="" stroke-linecap="round" stroke-miterlimit="10" stroke-width="1"/>
      <path id="Tracé_8461" data-name="Tracé 8461" d="M967.1,748.681a32.41,32.41,0,0,0,24.289-24.293" fill="none" stroke="" stroke-linecap="round" stroke-miterlimit="10" stroke-width="1"/>
      <path id="Tracé_8462" data-name="Tracé 8462" d="M983.515,694.992a32.412,32.412,0,0,0-47.407.005" fill="none" stroke="" stroke-linecap="round" stroke-miterlimit="10" stroke-width="1"/>
    </g>
    <path id="Tracé_8463" data-name="Tracé 8463" d="M947.865,738.52a2.12,2.12,0,0,0,3,0l2.249-2.248c.887-.887.66-2.338-.375-3.373s-2.486-1.262-3.373-.375c.887-.887.66-2.338-.375-3.373s-2.485-1.262-3.373-.375c.888-.887.661-2.337-.374-3.372s-2.486-1.262-3.373-.375c.887-.887.66-2.338-.375-3.373s-2.486-1.262-3.373-.375l-2.248,2.249a2.12,2.12,0,0,0,0,3Z" fill="none" stroke="" stroke-linecap="round" stroke-miterlimit="10" stroke-width="1"/>
    <g id="Groupe_35837" data-name="Groupe 35837">
      <line id="Ligne_677" data-name="Ligne 677" x1="2.12" y1="2.12" transform="translate(951.543 698.461)" fill="none" stroke="" stroke-linecap="round" stroke-miterlimit="10" stroke-width="1"/>
      <line id="Ligne_678" data-name="Ligne 678" x1="1.06" y1="3.18" transform="translate(956.843 695.281)" fill="none" stroke="" stroke-linecap="round" stroke-miterlimit="10" stroke-width="1"/>
      <line id="Ligne_679" data-name="Ligne 679" y1="3.18" x2="1.06" transform="translate(962.142 695.281)" fill="none" stroke="" stroke-linecap="round" stroke-miterlimit="10" stroke-width="1"/>
      <line id="Ligne_680" data-name="Ligne 680" y1="2.12" x2="2.12" transform="translate(966.382 698.461)" fill="none" stroke="" stroke-linecap="round" stroke-miterlimit="10" stroke-width="1"/>
    </g>
  </g>
</svg>
