<?xml version="1.0" encoding="utf-8"?>
<!-- Generator: Adobe Illustrator 24.1.0, SVG Export Plug-In . SVG Version: 6.00 Build 0)  -->
<svg version="1.1" id="icon-actions" xmlns="http://www.w3.org/2000/svg" xmlns:xlink="http://www.w3.org/1999/xlink" x="0px"
	 y="0px" viewBox="0 0 17.1 17.1" enable-background="new 0 0 17.1 17.1" xml:space="preserve">
<path id="Tracé_8245" fill="none" stroke="#B8BECC" stroke-linecap="round" stroke-miterlimit="10" d="M16.5,6.3l-0.8-1.9l-0.5-0.2
	l-0.9,0.3l-0.5-0.1c-0.3-0.4-0.7-0.8-1.1-1.1l-0.1-0.5l0.3-0.9l-0.2-0.5l-1.9-0.8l-0.5,0.2L9.8,1.6L9.3,1.8c-0.5-0.1-1.1-0.1-1.6,0
	L7.3,1.6L6.9,0.7L6.3,0.5L4.5,1.3L4.2,1.8l0.3,0.9L4.4,3.2C3.9,3.6,3.6,3.9,3.2,4.4L2.8,4.5L1.8,4.2L1.3,4.5L0.5,6.3l0.2,0.5
	l0.9,0.4l0.2,0.4c-0.1,0.5-0.1,1.1,0,1.6L1.6,9.8l-0.9,0.4l-0.2,0.5l0.8,1.9l0.5,0.2l0.9-0.3l0.5,0.1c0.3,0.4,0.7,0.8,1.1,1.1
	l0.1,0.5l-0.3,0.9l0.2,0.5l1.9,0.8l0.5-0.2l0.4-0.9l0.4-0.2c0.5,0.1,1.1,0.1,1.6,0l0.4,0.2l0.4,0.9l0.5,0.2l1.9-0.8l0.2-0.5
	l-0.3-0.9l0.1-0.5c0.4-0.3,0.8-0.7,1.1-1.1l0.5-0.1l0.9,0.3l0.5-0.2l0.8-1.9l-0.2-0.5l-0.9-0.4l-0.2-0.4c0.1-0.5,0.1-1.1,0-1.6
	l0.2-0.4l0.9-0.4L16.5,6.3z"/>
<ellipse id="Ellipse_101" fill="none" stroke="#B8BECC" stroke-linecap="round" stroke-miterlimit="10" cx="8.5" cy="8.5" rx="4" ry="3.9"/>
</svg>
