<svg version="1.1" id="Calque_1" xmlns="http://www.w3.org/2000/svg" xmlns:xlink="http://www.w3.org/1999/xlink" x="0px" y="0px"
     width="150px" height="150px" viewBox="0 0 150 150" enable-background="new 0 0 150 150" xml:space="preserve">
<g>
	<path fill="#B8BECC" d="M139.951,62.396c2.945,0,5.34,2.392,5.34,5.331v36.379c0,2.939-2.395,5.332-5.34,5.332h-88.21
		c-2.946,0-5.343-2.393-5.343-5.332V67.728c0-2.939,2.396-5.331,5.343-5.331H139.951 M139.951,57.396h-88.21
		c-5.715,0-10.343,4.67-10.343,10.331v36.379c0,5.708,4.676,10.332,10.343,10.332h88.21c5.713,0,10.34-4.67,10.34-10.332V67.728
		C150.291,62.02,145.615,57.396,139.951,57.396L139.951,57.396z"/>
    <path fill="#B8BECC" d="M98.439,119.623v10.382c0,5.742-4.641,10.361-10.361,10.361H10.27c-5.735,0-10.357-4.662-10.357-10.412
		V10.765c0-5.751,4.664-10.409,10.415-10.409h51.81v31.123c0,5.763,4.658,10.361,10.403,10.361h25.899v10.371H51.8
		c-8.611,0-15.589,6.96-15.589,15.552v36.31c0,8.587,6.927,15.55,15.589,15.55H98.439L98.439,119.623z M67.324,0.356v31.098
		c0,2.871,2.338,5.201,5.139,5.201h25.977L67.324,0.356L67.324,0.356z"/>
    <g>
		<path fill="#B8BECC" d="M61.463,98.39l9.879-13.313L62.63,72.846h4.025l4.635,6.552c0.964,1.359,1.649,2.404,2.056,3.137
			c0.569-0.93,1.243-1.9,2.021-2.91l5.14-6.778h3.676l-8.973,12.04l9.67,13.504h-4.182l-6.429-9.113
			c-0.36-0.522-0.732-1.092-1.115-1.707c-0.569,0.93-0.976,1.568-1.22,1.916l-6.412,8.904H61.463z"/>
        <path fill="#B8BECC" d="M87.721,98.39V72.846h3.381v22.53h12.58v3.014H87.721z"/>
        <path fill="#B8BECC" d="M106.557,90.183l3.189-0.278c0.15,1.278,0.502,2.325,1.053,3.146c0.553,0.818,1.408,1.48,2.57,1.986
			c1.162,0.505,2.469,0.758,3.92,0.758c1.291,0,2.428-0.192,3.416-0.576c0.986-0.383,1.723-0.908,2.203-1.576
			c0.482-0.668,0.725-1.396,0.725-2.187c0-0.802-0.232-1.501-0.697-2.1s-1.232-1.101-2.301-1.507
			c-0.686-0.268-2.201-0.683-4.547-1.246c-2.348-0.563-3.99-1.096-4.932-1.595c-1.219-0.639-2.129-1.432-2.727-2.378
			c-0.598-0.947-0.896-2.007-0.896-3.18c0-1.29,0.365-2.495,1.098-3.616c0.73-1.12,1.799-1.972,3.205-2.553s2.969-0.871,4.688-0.871
			c1.893,0,3.563,0.306,5.01,0.915c1.445,0.609,2.559,1.507,3.336,2.691c0.779,1.186,1.197,2.527,1.254,4.025l-3.24,0.244
			c-0.174-1.615-0.764-2.834-1.768-3.659c-1.006-0.825-2.49-1.237-4.453-1.237c-2.045,0-3.533,0.375-4.469,1.124
			s-1.402,1.652-1.402,2.71c0,0.917,0.33,1.672,0.992,2.265c0.65,0.593,2.35,1.2,5.098,1.821c2.746,0.621,4.631,1.164,5.654,1.629
			c1.486,0.686,2.584,1.554,3.293,2.604c0.707,1.052,1.063,2.263,1.063,3.634c0,1.358-0.389,2.639-1.168,3.842
			c-0.777,1.201-1.896,2.137-3.354,2.805c-1.459,0.668-3.1,1.002-4.922,1.002c-2.313,0-4.25-0.337-5.811-1.011
			c-1.563-0.673-2.789-1.687-3.678-3.04S106.604,91.891,106.557,90.183z"/>
	</g>
</g>
</svg>