<?xml version="1.0" encoding="utf-8"?>
<!-- Generator: Adobe Illustrator 24.1.0, SVG Export Plug-In . SVG Version: 6.00 Build 0)  -->
<svg version="1.1" id="icon_x5F_attention" xmlns="http://www.w3.org/2000/svg" xmlns:xlink="http://www.w3.org/1999/xlink" x="0px"
	 y="0px" viewBox="0 0 15.2 16" enable-background="new 0 0 15.2 16" xml:space="preserve">
<path id="Tracé_8336" fill="none" stroke="#FFA803" stroke-linecap="round" stroke-miterlimit="10" d="M7.6,12.8
	c-0.7,0-1.3,0.6-1.3,1.3c0,0.7,0.6,1.3,1.3,1.3c0.7,0,1.3-0.6,1.3-1.3C8.9,13.4,8.4,12.8,7.6,12.8C7.6,12.8,7.6,12.8,7.6,12.8z"/>
<path id="Tracé_8337" fill="none" stroke="#FFA803" stroke-linecap="round" stroke-miterlimit="10" d="M7.6,3.1
	c-0.7,0-1.3,0.6-1.3,1.3c0,0,0,0,0,0.1c0,1.4,0.3,5.3,0.4,5.7s0.4,0.9,0.9,0.9s0.8-0.5,0.9-0.9s0.4-4.3,0.4-5.7
	C9,3.7,8.4,3.1,7.6,3.1C7.7,3.1,7.6,3.1,7.6,3.1z"/>
<path id="Tracé_8338" fill="none" stroke="#FFA803" stroke-linecap="round" stroke-miterlimit="10" d="M4.8,14.2
	c-3.6-1.5-5.3-5.7-3.8-9.3c1.5-3.6,5.7-5.3,9.3-3.8c3.6,1.5,5.3,5.7,3.8,9.3c-0.7,1.7-2,3-3.7,3.8"/>
</svg>
