<svg version="1.1" id="Calque_1" xmlns="http://www.w3.org/2000/svg" xmlns:xlink="http://www.w3.org/1999/xlink" x="0px" y="0px"
     width="150px" height="150px" viewBox="0 0 150 150" enable-background="new 0 0 150 150" xml:space="preserve">
<g>
	<path fill="#B8BECC" d="M139.539,61.799c2.944,0,5.34,2.392,5.34,5.331v36.379c0,2.939-2.396,5.332-5.34,5.332H51.328
		c-2.946,0-5.343-2.393-5.343-5.332V67.13c0-2.939,2.396-5.331,5.343-5.331H139.539 M139.539,56.799H51.328
		c-5.715,0-10.343,4.67-10.343,10.331v36.379c0,5.707,4.676,10.332,10.343,10.332h88.211c5.712,0,10.34-4.67,10.34-10.332V67.13
		C149.879,61.423,145.203,56.799,139.539,56.799L139.539,56.799z"/>
    <path fill="#B8BECC" d="M98.027,119.025v10.383c0,5.742-4.641,10.361-10.361,10.361H9.857c-5.735,0-10.357-4.662-10.357-10.412
		V10.168c0-5.751,4.664-10.409,10.415-10.409h51.81v31.123c0,5.763,4.658,10.361,10.403,10.361h25.899v10.371h-46.64
		c-8.611,0-15.589,6.96-15.589,15.552v36.311c0,8.586,6.927,15.549,15.589,15.549H98.027L98.027,119.025z M66.911-0.241v31.098
		c0,2.871,2.338,5.201,5.139,5.201h25.978L66.911-0.241L66.911-0.241z"/>
    <g>
		<path fill="#B8BECC" d="M58.195,98.479V72.214h9.048c2.042,0,3.601,0.126,4.676,0.377c1.505,0.346,2.788,0.973,3.852,1.881
			c1.386,1.17,2.418,2.667,3.105,4.489c0.687,1.82,1.033,3.902,1.033,6.242c0,1.994-0.233,3.762-0.699,5.303
			s-1.063,2.816-1.791,3.826c-0.729,1.008-1.529,1.803-2.396,2.383c-0.865,0.578-1.91,1.018-3.135,1.316s-2.627,0.447-4.216,0.447
			H58.195z M61.671,95.379h5.607c1.732,0,3.088-0.16,4.073-0.484c0.985-0.322,1.773-0.775,2.358-1.361
			c0.824-0.824,1.463-1.932,1.923-3.322c0.46-1.393,0.693-3.078,0.693-5.061c0-2.748-0.454-4.859-1.356-6.334
			c-0.901-1.475-1.994-2.463-3.284-2.965c-0.932-0.358-2.431-0.538-4.496-0.538h-5.519V95.379z"/>
        <path fill="#B8BECC" d="M83.635,85.688c0-4.359,1.171-7.773,3.512-10.239c2.341-2.467,5.362-3.699,9.064-3.699
			c2.425,0,4.61,0.578,6.558,1.737c1.946,1.158,3.428,2.775,4.448,4.847c1.021,2.07,1.535,4.422,1.535,7.049
			c0,2.664-0.537,5.045-1.612,7.148c-1.075,2.102-2.598,3.693-4.568,4.773c-1.971,1.082-4.097,1.621-6.378,1.621
			c-2.472,0-4.682-0.596-6.629-1.791c-1.946-1.193-3.421-2.824-4.425-4.891C84.137,90.178,83.635,87.992,83.635,85.688z
			 M87.218,85.74c0,3.166,0.849,5.658,2.55,7.48c1.702,1.82,3.84,2.732,6.408,2.732c2.615,0,4.766-0.92,6.455-2.76
			c1.69-1.84,2.538-4.449,2.538-7.828c0-2.139-0.364-4.004-1.087-5.6c-0.723-1.594-1.779-2.83-3.171-3.707
			c-1.392-0.879-2.95-1.318-4.682-1.318c-2.46,0-4.58,0.845-6.354,2.535C88.102,78.967,87.218,81.787,87.218,85.74z"/>
        <path fill="#B8BECC" d="M131.97,89.27l3.476,0.879c-0.729,2.854-2.042,5.031-3.936,6.529c-1.893,1.5-4.204,2.248-6.938,2.248
			c-2.831,0-5.136-0.576-6.909-1.729c-1.774-1.152-3.123-2.822-4.049-5.008s-1.386-4.531-1.386-7.039
			c0-2.736,0.52-5.121,1.564-7.158c1.045-2.035,2.532-3.583,4.461-4.639c1.929-1.058,4.055-1.586,6.372-1.586
			c2.627,0,4.837,0.668,6.628,2.006c1.792,1.338,3.04,3.219,3.745,5.643l-3.422,0.807c-0.609-1.91-1.493-3.303-2.652-4.174
			c-1.158-0.872-2.615-1.308-4.371-1.308c-2.019,0-3.708,0.483-5.063,1.451c-1.355,0.969-2.306,2.268-2.854,3.896
			c-0.55,1.631-0.824,3.313-0.824,5.043c0,2.234,0.322,4.184,0.974,5.85c0.65,1.666,1.666,2.912,3.039,3.736
			c1.374,0.824,2.86,1.236,4.461,1.236c1.947,0,3.595-0.563,4.944-1.686C130.578,93.146,131.492,91.48,131.97,89.27z"/>
	</g>
</g>
</svg>
