<?xml version="1.0" encoding="utf-8"?>
<!-- Generator: Adobe Illustrator 24.0.3, SVG Export Plug-In . SVG Version: 6.00 Build 0)  -->
<svg version="1.1" id="icon-excel" xmlns="http://www.w3.org/2000/svg" xmlns:xlink="http://www.w3.org/1999/xlink" x="0px" y="0px"
	 viewBox="0 0 19.8 18.2" enable-background="new 0 0 19.8 18.2" xml:space="preserve">
<path id="Tracé_8332" fill="none" stroke="#B8BECC" stroke-miterlimit="10" d="M9.9,0.6L0.5,2.5v13.2l9.4,1.9V0.6z M11.8,2.5v1.9
	h1.9v1.9h-1.9v1.9h1.9v1.9h-1.9V12h1.9v1.9h-1.9v1.9h6.6c0.5,0,0.9-0.4,0.9-0.9V3.4c0-0.5-0.4-0.9-0.9-0.9H11.8z M15.6,4.4h1.9v1.9
	h-1.9L15.6,4.4z M2.6,5.6h1.7l0.9,2.1c0.1,0.2,0.1,0.4,0.2,0.6l0,0c0.1-0.2,0.1-0.4,0.2-0.6l0.9-2.1H8L6.2,9.1l1.9,3.5H6.4l-1-2.3
	C5.3,10.1,5.3,10,5.3,9.8l0,0c0,0.2-0.1,0.3-0.1,0.5L4,12.6H2.4l1.9-3.5L2.6,5.6z M15.6,8.2h1.9v1.9h-1.9V8.2z M15.6,11.9h1.9v1.9
	h-1.9V11.9z"/>
</svg>
