<svg version="1.1" id="Calque_1" xmlns="http://www.w3.org/2000/svg" xmlns:xlink="http://www.w3.org/1999/xlink" x="0px" y="0px"
     width="150px" height="150px" viewBox="0 0 150 150" enable-background="new 0 0 150 150" xml:space="preserve">
<g>
	<path fill="#B8BECC" d="M140.025,62.324c2.943,0,5.34,2.392,5.34,5.331v36.379c0,2.939-2.396,5.332-5.34,5.332H51.814
		c-2.946,0-5.343-2.393-5.343-5.332V67.655c0-2.939,2.396-5.331,5.343-5.331H140.025 M140.025,57.324H51.814
		c-5.715,0-10.343,4.67-10.343,10.331v36.379c0,5.708,4.676,10.332,10.343,10.332h88.211c5.711,0,10.34-4.67,10.34-10.332V67.655
		C150.365,61.948,145.689,57.324,140.025,57.324L140.025,57.324z"/>
    <path fill="#B8BECC" d="M98.514,119.551v10.382c0,5.742-4.641,10.361-10.361,10.361H10.343c-5.735,0-10.357-4.662-10.357-10.412
		V10.693c0-5.751,4.664-10.409,10.415-10.409h51.81v31.123c0,5.763,4.658,10.361,10.403,10.361h25.9v10.371h-46.64
		c-8.611,0-15.589,6.959-15.589,15.551v36.311c0,8.587,6.927,15.55,15.589,15.55H98.514L98.514,119.551z M67.397,0.284v31.098
		c0,2.871,2.338,5.201,5.139,5.201h25.978L67.397,0.284L67.397,0.284z"/>
    <g>
		<path fill="#B8BECC" d="M64.132,98.317V72.773h9.636c1.695,0,2.992,0.081,3.886,0.244c1.254,0.209,2.305,0.606,3.152,1.193
			s1.531,1.409,2.049,2.466c0.516,1.057,0.775,2.219,0.775,3.484c0,2.172-0.691,4.011-2.074,5.516
			c-1.383,1.504-3.881,2.256-7.493,2.256h-6.552v10.385H64.132z M67.512,84.919h6.604c2.184,0,3.735-0.407,4.653-1.221
			c0.916-0.813,1.375-1.957,1.375-3.432c0-1.069-0.27-1.984-0.811-2.745c-0.539-0.761-1.25-1.263-2.133-1.507
			c-0.57-0.15-1.621-0.227-3.155-0.227h-6.534V84.919z"/>
        <path fill="#B8BECC" d="M87.934,98.317V72.773h9.637c1.695,0,2.99,0.081,3.885,0.244c1.254,0.209,2.307,0.606,3.154,1.193
			s1.529,1.409,2.047,2.466s0.775,2.219,0.775,3.484c0,2.172-0.691,4.011-2.074,5.516c-1.381,1.504-3.879,2.256-7.492,2.256h-6.551
			v10.385H87.934z M91.314,84.919h6.604c2.184,0,3.734-0.407,4.652-1.221c0.918-0.813,1.377-1.957,1.377-3.432
			c0-1.069-0.27-1.984-0.811-2.745s-1.252-1.263-2.135-1.507c-0.568-0.15-1.621-0.227-3.154-0.227h-6.533V84.919z"/>
        <path fill="#B8BECC" d="M118.234,98.317V75.788h-8.416v-3.015h20.246v3.015h-8.449v22.529H118.234z"/>
	</g>
</g>
</svg>