<?xml version="1.0" encoding="utf-8"?>
<!-- Generator: Adobe Illustrator 24.1.0, SVG Export Plug-In . SVG Version: 6.00 Build 0)  -->
<svg version="1.1" id="map-pays-de-la-loire" xmlns="http://www.w3.org/2000/svg" xmlns:xlink="http://www.w3.org/1999/xlink"
	 x="0px" y="0px" viewBox="0 0 261.4 251.5" enable-background="new 0 0 261.4 251.5" xml:space="preserve">
<polygon fill="none" stroke="#B8BECC" stroke-miterlimit="10" points="31.1,182.1 31.1,180 31.1,177.9 30.7,177.2 30.3,176.5 
	29.3,176 28.3,175.5 27,174.7 25.6,174 25.3,174 24.9,173.9 24.7,173.6 24.6,173.3 24.7,172.6 24.7,172 24.6,171.8 24.5,171.7 
	24.2,171.8 23.8,171.9 24.2,171.7 24.5,171.6 25.1,171.8 25.6,172.1 25.7,172 25.9,171.8 25.8,170.9 25.7,169.9 24.4,169.1 
	23.2,168.3 22.4,168.3 21.6,168.2 20.7,168.4 19.7,168.5 20,169.4 20.4,170.2 20,170.9 19.7,171.6 19.7,172 19.7,172.4 20.3,172.8 
	21,173.2 21.6,174.2 22.3,175.2 22.7,175.4 23.2,175.7 23.7,175.4 24.1,175.1 24.9,175.1 25.7,175.1 26.6,175.8 27.5,176.5 
	28.2,177.5 28.9,178.4 29.4,179.8 29.9,181.3 30.3,181.7 30.6,182.2 30.8,182.3 30.9,182.4 31,182.2 31.1,182.1 31.1,182.1 "/>
<path fill="none" stroke="#B8BECC" stroke-miterlimit="10" d="M20.1,203.3l-0.3-0.2l-0.3-0.2l-0.2-0.2l-0.2-0.2l-0.3-0.4l-0.3-0.4
	l-0.8,0l-0.8,0l-0.3-0.5l-0.3-0.5l-0.9-0.2l-0.9-0.2l-0.3,0l-0.3,0l-0.3,0.2l-0.3,0.2l-0.3,0.2l-0.3,0.2l0,0.1l0,0.1l0,0.1
	c0,0.7,0.3,1.3,0.8,1.6l0.4,0.3l0.1,0.3l0.1,0.3l0.4-0.1l0.4-0.1l0.3,0.3l0.3,0.3l0.2,0l0.2,0l0.3,0.1l0.3,0.1l0.3-0.1l0.3-0.1
	L17,205l0.4,0.4l0.6-0.3l0.6-0.3l0.2-0.2l0.2-0.2l0.8,0.2l0.8,0.2l0.2,0.2L21,205l0-0.1l0-0.1l-0.1-0.3l-0.1-0.3l-0.4-0.5
	L20.1,203.3z"/>
<polygon fill="none" stroke="#B8BECC" stroke-miterlimit="10" points="260.7,47.5 260.5,47.2 260.2,47 260.3,46.8 260.3,46.6 
	259.3,45.8 258.3,45 257.4,44.7 256.5,44.5 255.8,44.5 255,44.6 254.9,44.5 254.7,44.4 254.4,44.1 254.1,43.8 253.5,43.2 
	252.8,42.5 252.3,42.3 251.8,42.1 251.8,41.8 251.8,41.5 250.4,42.2 248.9,43 248.8,42.9 248.7,42.8 248,42.4 247.4,42 247.2,41.6 
	246.9,41.1 246.6,41.1 246.3,41.1 246.2,40.8 246,40.6 245.9,40 245.7,39.5 245.3,39.1 244.9,38.7 244.6,38 244.3,37.3 244,36.9 
	243.6,36.4 243.4,35.7 243.3,35 242.9,34.9 242.6,34.9 241.8,34.4 241,34 240.6,34.1 240.2,34.2 239.8,34.5 239.4,34.9 239.7,36 
	239.9,37 239.7,37 239.4,37.1 239.3,36.8 239.3,36.4 239,36.2 238.7,36 238.4,36.1 238,36.2 237.3,36.1 236.6,36 236,36 235.5,36 
	234.3,35.7 233,35.4 232.7,35.5 232.3,35.5 232.3,34.9 232.3,34.4 232,34.1 231.8,33.7 231.1,33.6 230.5,33.5 229.8,32.7 
	229.1,31.8 229.2,31.5 229.4,31.1 229.7,30.9 230,30.7 229.4,30 228.9,29.2 228.3,29.6 227.7,30 227.3,29.7 226.8,29.4 226,29.5 
	225.3,29.5 224.8,29.3 224.3,29.1 224.2,28.7 224.1,28.4 223.7,28 223.2,27.7 222.9,27.9 222.7,28.2 222.2,28 221.7,27.7 
	221.3,27.1 220.8,26.4 220.7,25.9 220.6,25.3 220.9,25.1 221.1,24.9 220.8,23.7 220.6,22.5 220.5,21.7 220.4,21 220.3,20.8 
	220.1,20.5 220,19.3 220,18 220.3,17.8 220.5,17.5 220.6,17 220.7,16.4 220.5,16.1 220.2,15.8 219.9,15.4 219.6,15 219.5,14.3 
	219.3,13.5 218.9,13.1 218.5,12.6 218.4,12.7 218.3,12.8 218,12.6 217.6,12.5 217,11.9 216.4,11.3 216,11.3 215.7,11.2 215,10.8 
	214.4,10.5 213.9,10.4 213.3,10.3 213,10.3 212.6,10.4 212.3,10.2 212.1,9.9 211.9,10 211.8,10.1 211.7,10.3 211.7,10.5 211.2,10.8 
	210.8,11 209.9,11.1 209,11.2 208.7,11.2 208.4,11.1 207.6,11.7 206.7,12.2 206.6,12.3 206.5,12.4 205.7,12.3 205,12.2 204.9,12.6 
	204.8,12.9 205,13.3 205.1,13.6 204.7,13.6 204.4,13.7 203.9,13.3 203.5,13 203.2,13.1 202.9,13.2 203.3,13.7 203.7,14.2 
	203.8,14.3 203.9,14.5 203.8,14.7 203.6,15 202.5,15.2 201.5,15.4 201.4,15.3 201.2,15.2 200.8,15.4 200.4,15.6 200.1,16.7 
	199.8,17.7 199.7,17.8 199.5,17.9 198.9,17.9 198.4,17.9 198.4,18 198.4,18 197.7,18.3 197.1,18.5 196.7,19.3 196.2,20.1 
	196.5,20.5 196.8,21 196.7,21.1 196.6,21.3 195.8,21.3 195.1,21.3 194.4,21.3 193.8,21.3 193.1,20.8 192.5,20.3 192.4,19.9 
	192.3,19.6 191.5,19.7 190.6,19.8 190.5,20.1 190.4,20.5 189.3,21 188.2,21.5 188.3,21.7 188.4,21.8 188.2,21.5 188,21.1 
	187.9,20.8 187.8,20.4 187.9,20.1 188.1,19.8 187.9,17.9 187.8,16 187.9,15.9 188,15.8 188.1,14.7 188.3,13.6 187.8,13.3 187.4,13 
	187.1,13 186.7,13 186.6,13.4 186.4,13.7 186.3,13.7 186.1,13.7 185,13.8 184,13.9 182.9,13.7 181.8,13.4 181.3,13.1 180.9,12.7 
	181,12.1 181,11.4 180.8,11.1 180.6,10.8 180.7,10.7 180.8,10.6 180.6,9.9 180.4,9.3 180.4,9 180.3,8.7 179.9,8.3 179.5,7.9 
	179.4,8 179.2,8 179.4,7.4 179.6,6.7 180.4,6.3 181.2,6 181.2,5.6 181.3,5.3 180,4.5 178.7,3.7 178.2,3.2 177.7,2.7 177.6,2.4 
	177.4,2.2 177,1.8 176.6,1.5 176.1,1.6 175.6,1.7 175,1.6 174.5,1.4 174.2,1.1 173.9,0.9 173.7,1.5 173.4,2.2 173.1,2.4 172.8,2.6 
	172.7,2.8 172.6,2.9 173.2,3.6 173.9,4.2 173.6,4.7 173.3,5.2 172.6,5.6 172,6 171.9,6.7 171.8,7.5 171.2,7.4 170.7,7.3 170.7,7 
	170.7,6.6 170.5,6.5 170.4,6.4 169.7,6.4 169,6.3 168.5,6 168.1,5.8 167.6,6.5 167,7.3 166.9,7.6 166.9,8 166.2,8.3 165.6,8.6 
	165.6,9.3 165.6,10 165.2,9.8 164.7,9.6 164.6,9.3 164.5,9 164.2,8.9 163.9,8.7 163.3,8.4 162.6,8.2 162.7,7.8 162.7,7.5 162.5,7.3 
	162.3,7.1 162,7.3 161.7,7.6 161,7.5 160.2,7.5 160.3,7.4 160.3,7.4 159.5,7 158.6,6.6 158.5,6.8 158.3,6.9 157.8,6.9 157.2,6.9 
	156.7,7.5 156.3,8.1 155.7,8.1 155.2,8 154.6,7.7 153.9,7.3 153.6,7.9 153.2,8.5 152.6,8.9 152,9.2 151.3,10.2 150.7,11.2 
	150.5,11.3 150.3,11.3 150.1,11 149.8,10.8 149.6,11.2 149.3,11.6 148.5,11.5 147.7,11.4 147.6,11.3 147.6,11.3 146.9,11.9 
	146.1,12.5 144.6,13.4 143.1,14.3 143.1,13.8 143.1,13.3 143,12.1 142.8,11 142.4,10.4 142,9.7 142,9.9 142,10.1 141.8,10.1 
	141.6,10 141.3,10.4 140.9,10.8 140.9,11.1 140.9,11.5 140.7,11.5 140.6,11.6 140.2,11.7 139.8,11.7 139.6,11.5 139.4,11.2 
	138.9,11.4 138.4,11.5 138.1,11.3 137.8,11.2 137.5,11.4 137.2,11.6 137.1,12 137,12.4 137.7,13 138.5,13.6 137,14.4 135.4,15.1 
	135.1,15.1 134.8,15.1 134.5,14.8 134.1,14.5 133.9,14.2 133.7,13.9 133.8,12.9 133.8,12 133.3,12 132.7,12 131.9,12.6 131.2,13.2 
	131,12.4 130.8,11.7 130.9,11.5 131,11.4 130.8,11.1 130.5,10.9 130,10.4 129.4,9.8 129.1,9.2 128.7,8.5 128.2,8.3 127.7,8.1 
	126.3,8.5 125,8.8 124.2,8.5 123.3,8.2 123.1,7.5 122.9,6.8 122.1,6.8 121.4,6.7 121,6.6 120.7,6.4 120.3,6.7 120,6.9 120,7.4 
	119.9,8 119.5,8.4 119.2,8.8 118.1,9.1 117,9.5 116.6,9.2 116.3,9 114.5,7.8 112.6,6.6 112.6,6.9 112.5,7.1 112.2,7.2 111.9,7.3 
	112,7.5 112.1,7.7 111.9,7.9 111.6,8.1 111.5,8.7 111.4,9.2 111.5,10.1 111.7,11 112,11.4 112.4,11.9 112.3,12.2 112.2,12.6 
	112.2,13.1 112.3,13.6 111.7,14.1 111.2,14.6 111.1,14.9 111,15.3 111.2,16 111.3,16.7 111.3,16.9 111.3,17.1 111.3,17.2 
	111.2,17.2 112.2,19.2 113.2,21.2 113.1,21.3 113,21.4 112.7,22 112.3,22.7 112.7,22.9 113,23 112.9,23.7 112.7,24.5 112.9,25 
	113,25.5 113.4,26.2 113.8,26.8 113.3,27.7 112.8,28.7 112.7,28.7 112.6,28.8 111.8,29.6 111,30.4 110.7,30.9 110.4,31.4 
	110.3,32.2 110.2,32.9 109.9,33.2 109.7,33.4 109.8,34.4 109.8,35.3 110.5,37 111.2,38.7 110.9,39.3 110.7,39.8 110.9,40 
	111.1,40.3 111.3,40.6 111.6,40.8 111.5,41.9 111.3,43 111.5,44.2 111.7,45.3 112,45.3 112.4,45.4 112.6,47.2 112.8,49 113,50 
	113.2,51.1 113.4,52 113.5,52.9 113.8,53.5 114.2,54.1 114.7,54.6 115.3,55 115.4,55.1 115.6,55.2 115.3,55.6 115.1,56 114.9,56.5 
	114.7,57 114.9,57.7 115.1,58.4 114.9,58.7 114.7,59.1 115.1,59.9 115.6,60.7 115.7,61.6 115.8,62.4 115.7,62.8 115.6,63.1 
	115.2,63.3 114.9,63.4 114.2,63.8 113.4,64.3 112.7,64.4 112,64.4 111.7,64.4 111.3,64.3 110.8,64.1 110.2,64 109.7,63.9 
	109.1,63.8 108.6,63.9 108,64.1 107.8,64.9 107.5,65.7 106.8,65.9 106.1,66 105.8,66.3 105.5,66.5 105.3,67.1 105.1,67.7 
	105.2,68.5 105.3,69.2 105,69.5 104.7,69.7 104.8,70.1 105,70.4 104.8,71.1 104.6,71.8 104.3,72 104,72.3 104,73 104,73.7 
	103.4,74.1 102.8,74.4 102.6,74.7 102.4,75 102.4,75.4 102.4,75.7 102.7,76.4 103,77 102.5,77.6 102,78.1 101.6,78.1 101.2,78.1 
	100.9,78.5 100.6,78.9 100.9,79.3 101.2,79.7 101.1,80 101,80.4 100.8,81.3 100.5,82.3 100.1,82.2 99.8,82.2 99.6,82.7 99.4,83.2 
	99.2,83.3 99.1,83.4 99.1,83.8 99.2,84.1 99.3,84.4 99.4,84.7 99.1,85.8 98.8,86.9 95.4,85.9 91.9,84.9 91.8,84.9 91.7,84.8 
	90.8,84.5 89.9,84.2 88.9,82.7 87.9,81.2 87.4,81.4 86.8,81.6 86.7,81.5 86.6,81.3 86.3,81.3 86.1,81.3 85.8,81.1 85.6,80.9 
	84.3,80.9 83,80.9 82.7,80.7 82.4,80.5 81.8,80.5 81.3,80.5 81.2,80.7 81.1,80.9 81.6,81.8 82,82.7 82.1,83.2 82.1,83.7 81.7,84 
	81.2,84.2 80.7,84.4 80.1,84.5 79.8,84.3 79.5,84.2 79.1,84.4 78.8,84.6 78.2,85.3 77.5,86 76.5,86 75.5,86.1 74.8,86.4 74.1,86.7 
	73.7,86.7 73.4,86.6 73,86.8 72.7,86.9 72.6,87.4 72.4,88 72.1,88.2 71.8,88.3 71.3,88.3 70.8,88.3 70.5,88.5 70.2,88.7 69.9,89.7 
	69.5,90.7 69.5,91.7 69.4,92.8 69.2,92.8 68.9,92.8 68.3,93.4 67.7,94.1 66.7,94 65.8,93.8 65.1,94 64.3,94.2 64.2,94.3 64,94.4 
	64,94.8 63.9,95.1 63.2,95.2 62.5,95.3 62.4,95.1 62.3,95 61.7,94.7 61,94.5 60.2,94.9 59.4,95.3 58.9,95.3 58.3,95.2 57,94.9 
	55.8,94.6 55.5,94.4 55.2,94.1 54.8,94.3 54.5,94.5 53.9,94.4 53.3,94.3 52.9,94.4 52.6,94.4 52.4,94.7 52.3,95 51.7,95.4 
	51.1,95.7 51,95.7 50.9,95.6 49,96.1 47.2,96.6 46.4,97.5 45.6,98.3 45.2,98.3 44.8,98.3 44.7,98.1 44.6,98 44.6,97.2 44.6,96.5 
	44.5,96.2 44.3,95.8 44.3,95.8 44.3,95.8 42.8,97.3 41.4,98.8 40.5,98.7 39.7,98.6 39.4,98.8 39.1,98.9 38.9,99 38.8,99.1 
	38.6,99.8 38.4,100.6 37.3,100.6 36.2,100.7 35.6,101.7 35,102.6 35.5,103.2 36,103.8 35.9,104.6 35.9,105.3 35.9,105.5 35.8,105.7 
	35.2,106.1 34.6,106.6 34.7,107.5 34.8,108.4 34.6,108.4 34.4,108.5 34.8,108.8 35.1,109 34.8,110.3 34.5,111.6 34.8,112.1 
	35,112.5 35,112.9 34.9,113.3 33.2,113.7 31.5,114.2 31.2,114.4 30.8,114.5 30.8,115.8 30.7,117.2 30.3,117.5 29.9,117.9 
	29.1,117.8 28.4,117.7 28.2,117.5 28.1,117.4 28.3,116.6 28.4,115.9 28.3,115.8 28.2,115.6 27.8,115.7 27.4,115.7 26.8,115.9 
	26.1,116.2 25,116.9 24,117.6 23.4,117.2 22.7,116.9 22.9,116.4 23.1,115.9 23,115.8 22.9,115.6 22.1,115.7 21.4,115.7 20.7,115.5 
	20.1,115.2 20,115.2 20,115.2 19.9,116.2 19.8,117.1 19.3,117.9 18.8,118.8 18.7,119.9 18.6,121 17.1,121.3 15.7,121.7 15.2,121.3 
	14.8,120.9 14.4,120.9 14,121 13.4,121.3 12.7,121.6 12.1,121.5 11.6,121.4 11.2,121 10.8,120.5 10.7,120 10.6,119.4 10,120 
	9.3,120.6 9,120.7 8.6,120.9 8.3,121.7 8,122.6 8.4,123.1 8.8,123.7 8.5,124.4 8.3,125 9.1,125.5 9.9,126 9.8,126.2 9.8,126.4 
	8.7,126.4 7.6,126.4 7.3,126.2 7.1,125.9 6,126.7 5,127.4 3.7,128.5 2.4,129.5 1.6,129.8 0.7,130 0.6,130.3 0.6,130.6 0.8,130.9 
	1.1,131.1 1.9,131.5 2.8,131.8 3.6,132.9 4.3,134 4.5,135 4.8,135.9 4.8,136.3 4.8,136.7 4.3,137.4 3.9,138.2 3.9,138.3 4,138.4 
	3.9,138.6 3.8,138.8 3.5,138.7 3.1,138.5 2.8,138.6 2.4,138.6 2,138.7 1.6,138.9 1.5,139.2 1.4,139.5 3,140.1 4.6,140.7 5,141 
	5.5,141.3 6.8,141.7 8.1,142.1 8.3,142.3 8.6,142.6 9.7,142.8 10.8,143.1 10.9,142.9 11,142.8 10.7,142.3 10.5,141.8 10.5,141.6 
	10.6,141.5 11.1,141.2 11.5,140.9 12.3,140.8 13,140.7 14.3,141.1 15.5,141.6 16,142 16.4,142.4 16.7,143.1 17.1,143.7 18.3,144.6 
	19.6,145.5 19.9,145.6 20.2,145.7 21.2,145.5 22.1,145.2 22.9,144.4 23.7,143.6 24.4,143.5 25.2,143.3 25.4,142.8 25.7,142.4 
	26.6,142 27.5,141.6 27.7,141.1 27.9,140.6 28.3,140.5 28.7,140.4 28.7,139.6 28.7,138.8 29,139.3 29.3,139.7 29.5,139.7 
	29.7,139.7 30.7,139.2 31.7,138.6 33.2,138.3 34.7,137.9 35.8,138 37,138 38,137.6 39.1,137.1 39.4,137 39.7,137 39.7,137.7 
	39.8,138.5 40.1,138.2 40.5,137.8 40.7,137.4 40.9,136.9 41.2,137 41.5,137 41.5,138 41.5,138.9 41.5,139.6 41.5,140.3 40.9,140 
	40.2,139.7 39.7,139.6 39.1,139.5 39,139.7 38.9,139.8 38.5,140.1 38,140.5 35.4,140.9 32.7,141.4 31.2,141.8 29.7,142.1 
	29.6,142.3 29.5,142.5 29.6,143.8 29.6,145.1 29.1,145.4 28.7,145.7 29.5,147 30.3,148.3 30.4,149.1 30.5,149.8 30.1,151.4 
	29.8,153.1 29.6,153.4 29.4,153.7 29.2,154 29,154.3 28.2,154.1 27.5,154 26.6,154.3 25.7,154.5 25.4,155 25.2,155.5 24.6,156 
	24,156.6 24.1,156.7 24.2,156.9 25.3,157.3 26.3,157.7 27.7,157.8 29,158 30,158.5 31,159 32.2,159.1 33.3,159.3 33.9,159.2 
	34.4,159.1 34.6,159.4 34.7,159.7 36.5,160.3 38.3,161 39.1,162.1 39.8,163.2 40.3,163.5 40.8,163.8 41.4,164.2 42,164.7 
	42.9,166.4 43.8,168.1 43.2,168.6 42.6,169.1 41.4,169.6 40.2,170.2 39.6,171.8 39,173.4 38.9,174.1 38.9,174.8 38.4,175.7 
	38,176.5 37.4,177 36.9,177.6 36.9,177.9 37,178.3 36.7,178.2 36.3,178 35.3,179.1 34.2,180.2 33.8,181 33.4,181.9 33.7,182 
	34.1,182.2 33.7,182.6 33.3,183 32,183.2 30.7,183.4 31,185.1 31.3,186.7 31.5,188.8 31.7,190.9 32.3,191.6 33,192.2 35.5,194 
	37.9,195.7 40.8,198.7 43.6,201.6 43.8,202.6 44,203.5 44.3,204 44.6,204.5 45,204.5 45.3,204.5 45.9,204.5 46.4,204.5 47.2,205.7 
	48.1,206.9 49,208.6 49.9,210.2 50.8,211 51.6,211.7 51.8,212.2 52,212.8 52.5,213.3 53.1,213.8 53.4,215.1 53.7,216.4 54.8,220 
	55.9,223.6 56.1,224.9 56.3,226.2 56.8,226.5 57.3,226.8 57.6,226.5 57.8,226.3 58.2,226.2 58.6,226.2 59.1,226.5 59.5,226.8 
	59.9,227.2 60.2,227.7 60.4,228 60.6,228.3 61.8,229.1 63,230 63.3,230 63.7,230 64,230.5 64.3,231 66.4,232.1 68.6,233.2 
	68.5,233.6 68.4,233.9 69.4,234.4 70.5,234.9 72.7,235.3 74.9,235.7 75.4,235.8 76,235.8 76.2,235.7 76.5,235.5 77.5,235.7 
	78.4,235.9 78.9,236.2 79.4,236.5 80.2,238 81.1,239.5 81.5,240.8 81.9,242.1 82.1,242.4 82.3,242.6 83.3,242.7 84.2,242.8 
	84.9,242.5 85.6,242.2 86.5,242.5 87.4,242.9 88.3,242.7 89.3,242.6 90.1,242.9 91,243.1 90.2,242.7 89.3,242.4 89.2,242.2 89,242 
	89.8,242.2 90.6,242.3 91.1,242.6 91.6,242.8 92.3,243.5 92.9,244.2 93.9,246.3 94.8,248.3 95.5,248.5 96.2,248.7 96.4,248.5 
	96.5,248.3 95.8,248 95.1,247.6 94.8,246.3 94.5,245.1 94.8,245 95.2,244.9 95.6,245.6 96.1,246.2 97.9,248.1 99.8,249.9 
	100.5,250.2 101.1,250.4 101.4,250.7 101.6,250.9 101.8,250.8 101.9,250.7 101.6,250 101.3,249.4 101.5,249.3 101.7,249.2 
	102.1,248.2 102.5,247.2 102.3,246.4 102.1,245.5 103.3,245.4 104.5,245.2 104.7,244.9 104.9,244.7 105.5,245.1 106.1,245.5 
	106.8,245.8 107.5,246.2 107.7,245.9 107.9,245.7 108,245.2 108.1,244.8 108.2,244.8 108.4,244.8 108.5,245.1 108.7,245.4 
	109.4,245.6 110.1,245.8 110.7,245.5 111.3,245.2 111.3,245 111.2,244.9 111.5,244.6 111.7,244.4 112.4,243.1 113.2,241.9 
	113.3,242.3 113.4,242.6 114.6,242.1 115.9,241.5 117.3,241.6 118.8,241.7 119,241.7 119.2,241.6 119.5,240.9 119.9,240.2 
	120.3,240.4 120.8,240.7 121.7,240.1 122.6,239.6 122.4,240.2 122.1,240.8 121.8,241.8 121.6,242.9 120.9,243.8 120.3,244.8 
	121.2,245.3 122.1,245.9 122.9,245.8 123.6,245.6 123.7,245.8 123.8,245.9 124.4,245.7 125,245.5 125.3,244.9 125.7,244.4 
	126.3,244.6 126.9,244.9 127.1,244.6 127.3,244.3 127.5,244.4 127.6,244.5 127.5,244.9 127.5,245.2 128,245.3 128.5,245.3 
	128.7,245 128.8,244.6 128.7,244.3 128.5,243.9 128.8,243.5 129.1,243 129.5,242.9 129.8,242.7 130,243 130.3,243.3 131.3,243.1 
	132.3,242.8 132.3,242.9 132.3,243.1 132,243.5 131.6,243.9 131.8,244.2 132,244.5 133,244.9 134,245.3 134.2,245.6 134.4,245.9 
	134.8,245.9 135.2,246 135.5,246.4 135.9,246.8 136.8,246.9 137.7,246.9 138,246.8 138.3,246.7 138.2,246.4 138.1,246 138.3,245.7 
	138.4,245.5 138.8,245.4 139.1,245.3 139.5,244.9 139.9,244.6 140.8,245 141.7,245.5 142.5,245.5 143.3,245.4 143.6,245.3 
	143.9,245.2 144.1,244.9 144.4,244.6 144.4,244.1 144.4,243.6 145,243.3 145.7,243 146.1,242.6 146.6,242.2 146.7,241.5 
	146.9,240.8 147.9,241 148.8,241.2 149.5,240.9 150.2,240.7 150.3,240.5 150.4,240.3 151.1,239.1 151.8,237.9 151.4,237.6 
	150.9,237.2 150.2,237.1 149.5,237 149.3,236.7 149.2,236.4 148.9,236.3 148.5,236.2 147.8,235.6 147.1,235.1 146.7,235 146.3,235 
	146,236.2 145.6,237.5 144.9,237.1 144.3,236.8 144.6,236.3 144.9,235.9 144.5,235.5 144.2,235 144.3,234 144.4,232.9 145,232.5 
	145.6,232.2 145.8,231.5 146,230.8 146.3,230.7 146.5,230.5 146.2,230.1 145.9,229.6 145.9,229 145.8,228.5 145.4,228.1 145,227.7 
	145.1,226.8 145.2,225.9 144.9,225.5 144.6,225.1 144.2,224.7 143.8,224.4 144,223.9 144.3,223.5 144.1,223.2 144,222.9 
	144.5,222.7 145,222.5 145.8,222.5 146.5,222.5 146.7,222.2 147,221.9 147,221.4 146.9,220.9 146.7,219.8 146.5,218.8 146.2,218.8 
	145.8,218.9 145.6,218 145.3,217.2 145.7,216.6 146.1,216 145.9,215.8 145.7,215.5 145.8,215.1 145.9,214.8 145.5,214.5 
	145.1,214.1 145.6,213.3 146.1,212.5 145.4,211.6 144.7,210.8 144.3,210.7 143.9,210.6 143.4,210.8 142.9,211 142.8,210.7 
	142.8,210.3 143.1,209.9 143.5,209.6 143.5,209.1 143.6,208.5 144,208.2 144.4,207.8 143.6,207.1 142.8,206.4 142,205.8 
	141.3,205.3 142.1,204.5 143,203.8 142.3,202.7 141.7,201.6 141.3,201.2 140.8,200.8 140.7,200.9 140.5,201 140.2,200.5 
	139.8,199.9 139.9,199.4 140,198.9 139.9,198.6 139.8,198.2 139.4,198.3 139.1,198.4 138.6,198.1 138.2,197.8 137.9,197.1 
	137.7,196.4 137.7,195.6 137.8,194.8 138,194.5 138.1,194.1 138.3,193.5 138.5,192.8 139.1,192.4 139.7,192 139.3,191.3 
	138.9,190.6 138.2,190.6 137.4,190.6 137.1,190.2 136.8,189.8 136,189.7 135.3,189.6 134.8,189.1 134.2,188.6 133.9,188.4 
	133.6,188.3 133.4,187.8 133.2,187.3 132.9,187 132.6,186.7 131.8,185.5 131,184.4 130.4,184.1 129.7,183.8 130.3,182.8 
	130.8,181.8 130.7,181.5 130.7,181.1 130.9,180.9 131.1,180.6 131.3,180.3 131.4,180 130.9,179.9 130.4,179.7 130.1,179.2 
	129.9,178.7 129.1,178.3 128.2,178 128.3,177.6 128.3,177.3 127.2,177.2 126.1,177.1 126.1,176.9 126,176.7 126.1,176.6 
	126.3,176.4 126.8,176.5 127.3,176.5 127.2,176.2 127.2,175.8 126.7,175.7 126.2,175.6 126.1,175.1 125.9,174.6 125.3,174.7 
	124.8,174.7 124.7,174.6 124.5,174.5 124.9,174.2 125.3,173.9 125.7,173.8 126,173.8 126.9,174.1 127.8,174.5 127.9,174.4 
	128.1,174.3 128.1,174 128,173.6 128.3,173.2 128.6,172.7 129.1,172.7 129.6,172.6 130.1,172.3 130.6,172 130.7,172 130.9,172 
	131.2,172.2 131.5,172.5 131.6,172.5 131.8,172.4 131.7,172.3 131.5,172.1 132,171.9 132.5,171.6 132.8,171.1 133.1,170.7 
	133.6,170.8 134.2,170.8 134.6,171.4 135.1,172 135.4,172 135.8,172.1 136.3,171.8 136.7,171.5 136.9,171.5 137.1,171.5 
	137.9,172.2 138.6,172.8 139.2,172.3 139.8,171.8 140.5,172.2 141.1,172.6 141.1,172.3 141.1,172 141.5,171.6 141.8,171.1 
	142.7,171.5 143.6,171.8 144.1,171.7 144.7,171.6 145.1,171.8 145.6,172 146.6,171.7 147.5,171.5 147.6,171.2 147.6,170.9 
	147.9,170.7 148.1,170.6 148.4,170.1 148.6,169.6 149.1,169.4 149.6,169.1 149.8,168.6 150,168 150.6,168.1 151.1,168.1 
	151.3,167.8 151.4,167.4 150.9,166.9 150.4,166.3 150.4,165.5 150.4,164.8 150.3,164.7 150.2,164.5 151.8,163.7 153.5,162.8 
	154.4,162.5 155.3,162.2 156.3,162.3 157.4,162.3 157.4,162.7 157.3,163 156.6,163.5 155.9,164 156,164.7 156.1,165.4 156.9,164.6 
	157.6,163.8 158.2,163.9 158.7,163.9 159.4,163.6 160.1,163.4 160.8,163.7 161.5,164 161.8,163.8 162.1,163.6 162.3,162.5 
	162.4,161.4 162.8,161.3 163.1,161.2 163.1,161.4 163.1,161.6 163.3,161.6 163.5,161.6 164.3,161.3 165.2,161.1 165.4,161 
	165.5,160.9 166.1,161.3 166.6,161.8 167.6,161.5 168.7,161.2 169.1,160.9 169.5,160.5 170.2,160.3 170.9,160.1 171,160.2 
	171.1,160.4 171.5,160.3 171.9,160.2 172.1,160 172.4,159.8 172.6,160.1 172.8,160.3 173.4,160.1 174.1,159.8 175.4,160.5 
	176.6,161.1 177.2,160.8 177.8,160.4 178,159.9 178.2,159.5 179.3,159.8 180.4,160.2 181,160.1 181.5,160 181.5,160.4 181.5,160.7 
	180.6,161.6 179.6,162.4 179.2,163 178.7,163.7 178.9,163.8 179,163.9 179.3,164.1 179.7,164.2 180.1,163.9 180.5,163.6 
	180.9,163.7 181.2,163.8 181.5,164 181.8,164.2 181.8,164.6 181.9,165 182.1,165.2 182.4,165.3 183.4,164.8 184.4,164.2 
	184.5,163.1 184.6,162.1 184.6,161.7 184.7,161.3 185.2,160.8 185.7,160.3 186.2,160.4 186.7,160.5 186.9,160.8 187,161.1 
	187.9,161.1 188.8,161.1 189.1,161.5 189.4,161.8 189.8,161 190.1,160.1 190,159.9 190,159.7 189.6,159.6 189.3,159.5 189.2,159.3 
	189.1,159.1 189.3,158.6 189.5,158.1 189.5,157.8 189.6,157.4 190.4,155.8 191.2,154.3 192.4,153.2 193.5,152.1 194.2,153 
	194.8,153.8 195.2,153.5 195.6,153.1 195.8,153.2 196.1,153.4 196.5,152.7 196.8,152.1 197,151.3 197.1,150.6 196.6,150.3 
	196.2,150 196.1,149.8 196.1,149.6 196.3,149.2 196.6,148.7 197.1,148.3 197.5,147.9 197.7,147.7 197.8,147.4 197.7,147.4 
	197.5,147.4 197.6,146.6 197.6,145.9 197.4,145.3 197.3,144.8 197.5,144.3 197.8,143.9 197.9,142.8 198.1,141.7 198.4,141.5 
	198.6,141.3 198.7,140.9 198.7,140.6 198.5,140.3 198.3,140.1 199.4,138.3 200.6,136.6 200.7,135.9 200.9,135.1 201.6,135 
	202.2,134.8 202.7,134.3 203.1,133.7 202.9,132.8 202.6,131.9 203.1,131.9 203.6,131.8 204.7,130.8 205.7,129.7 205.2,129.5 
	204.7,129.3 204.7,128.8 204.7,128.2 204.2,128.1 203.6,127.9 204.6,126.9 205.6,126 205.8,125.5 206,124.9 205.8,123.5 205.6,122 
	206,121.6 206.3,121.1 206.5,120.4 206.7,119.7 206.8,119.6 207,119.5 207,119 207.1,118.6 207.8,117.7 208.6,116.7 208.7,115.3 
	208.9,114 208.3,114 207.6,114 207.5,113.7 207.5,113.3 207,113.1 206.6,112.8 206.8,112.5 207.1,112.2 207.6,110.8 208.1,109.4 
	208.3,109.2 208.5,108.9 209.1,108.6 209.7,108.4 209.5,108 209.4,107.7 209.5,107.3 209.6,107 209.5,106.1 209.3,105.1 209.4,105 
	209.5,104.9 210.5,104.8 211.5,104.7 212.1,105.4 212.7,106.2 214.5,106.4 216.2,106.6 216.8,107.1 217.3,107.6 217.4,107.9 
	217.5,108.3 219,108.9 220.4,109.5 221,109 221.5,108.5 221.9,108.5 222.2,108.4 222,107.5 221.7,106.6 221.2,105.8 220.7,105 
	220.4,104.8 220,104.6 219.7,104.1 219.4,103.7 220.1,102.5 220.8,101.4 221.3,101.5 221.8,101.6 222.7,102.8 223.7,103.9 
	224.1,104 224.4,104.1 225.2,103.9 225.9,103.7 226,103 226.1,102.3 226.4,101.8 226.6,101.3 227.2,101.1 227.7,101 227.8,101.1 
	227.9,101.3 228.7,101.2 229.4,101.2 230.1,100.6 230.8,99.9 231.1,100.1 231.5,100.2 232.2,100 232.9,99.8 233.5,99.4 234,98.9 
	234,98.6 233.9,98.4 234.9,98.5 235.8,98.6 236.2,98.4 236.5,98.2 237.4,97.5 238.2,96.7 238.3,96.4 238.4,96 238.3,95.9 
	238.1,95.8 237.7,96.2 237.4,96.6 237.2,96.6 237,96.6 236.8,96.3 236.6,96 236.4,95.3 236.3,94.6 235.9,94.2 235.5,93.8 
	235.6,93.8 235.6,93.8 236.1,93.2 236.6,92.7 237.1,92.6 237.7,92.4 237.8,92.3 237.9,92.1 237.9,91.9 237.8,91.7 238.1,91.5 
	238.4,91.2 238.4,90.7 238.5,90.2 238.8,89.9 239,89.6 239.9,89.4 240.8,89.2 240.8,89.2 240.9,89.2 241.7,88.5 242.6,87.7 
	243.5,88 244.3,88.2 244.5,87.9 244.7,87.6 244.3,87 243.8,86.5 243.9,86.3 243.9,86.1 244.1,85.8 244.4,85.5 244.5,85.5 
	244.7,85.4 245.1,85.6 245.4,85.7 245.4,85.5 245.5,85.4 246.3,84.4 247,83.5 247.3,83.2 247.5,83 247.8,82.1 248.1,81.3 248.5,81 
	248.9,80.7 249.3,80.8 249.6,80.9 249.9,80.4 250.1,79.9 250.1,79.4 250,78.8 249.5,78.4 248.9,77.9 249.1,77.4 249.3,76.9 249,76 
	248.8,75.1 248.9,74.4 249,73.7 249.3,73.5 249.6,73.3 250.3,72.7 251,72.2 251.3,72.4 251.6,72.7 251.7,73.2 251.8,73.7 
	252.4,74.1 253,74.6 253.1,74.5 253.3,74.3 253,73.5 252.8,72.6 252.9,71.5 252.9,70.4 253.1,70.1 253.2,69.7 254.3,69.4 255.4,69 
	255.5,68.8 255.6,68.7 255.5,68.1 255.4,67.6 254.6,66.1 253.8,64.6 253.7,64.2 253.5,63.9 253.9,63.5 254.3,63 254.5,62.3 
	254.7,61.6 254.9,61.1 255,60.5 255,59.8 254.9,59.1 253.9,59.1 253,59.2 252.8,58.9 252.5,58.6 252.2,58.6 251.8,58.5 251.7,58 
	251.6,57.5 251.8,56.6 251.9,55.7 251.7,55.4 251.6,55 251.9,54.9 252.3,54.8 253.4,54.9 254.5,55 254.9,54.8 255.2,54.7 
	255.3,53.6 255.4,52.5 254.8,52.6 254.3,52.7 253.7,52.5 253.2,52.3 253.3,52.1 253.3,52 253.9,51.9 254.5,51.8 254.8,51.6 
	255.1,51.4 255.6,50.3 256.1,49.1 255.9,48.6 255.8,48.1 258.2,48 260.6,47.8 260.7,47.7 260.7,47.5 260.7,47.5 "/>
</svg>
