<?xml version="1.0" encoding="utf-8"?>
<!-- Generator: Adobe Illustrator 24.1.0, SVG Export Plug-In . SVG Version: 6.00 Build 0)  -->
<svg version="1.1" id="Bretagne" xmlns="http://www.w3.org/2000/svg" xmlns:xlink="http://www.w3.org/1999/xlink" x="0px" y="0px"
	 viewBox="0 0 444 251.2" enable-background="new 0 0 444 251.2" xml:space="preserve">
<g>
	<polygon fill="none" stroke="#B8BECC" stroke-miterlimit="10" points="182.2,194.2 179.8,193.5 177.4,192.7 176.9,192.7 
		176.5,192.7 175.8,192.9 175.2,193.2 175.2,193.6 175.2,194 175.6,194.4 175.9,194.8 176.6,195.3 177.3,195.8 177.7,196 
		178.1,196.1 178.2,196.4 178.4,196.6 178.9,196.7 179.4,196.9 180,197.3 180.6,197.7 180.7,197.7 180.9,197.7 181.6,197.5 
		182.3,197.3 182.7,197 183.2,196.7 183.5,196.9 183.8,197.2 184.1,197.3 184.4,197.3 184.7,197.6 185,197.9 185.2,196.8 
		185.5,195.8 184.7,195.1 183.9,194.3 183,194.3 182.2,194.2 182.2,194.2 	"/>
</g>
<g>
	<polygon fill="none" stroke="#B8BECC" stroke-miterlimit="10" points="219.6,245.3 218.7,244.7 217.8,244 217.5,244.1 217.2,244.1 
		215.9,243.2 214.6,242.4 213.9,240.1 213.1,237.9 212.6,238 212,238.1 210.7,237.8 209.4,237.5 208.8,237 208.2,236.5 207.7,236.5 
		207.1,236.5 206.9,236.7 206.8,236.9 206.7,236.4 206.7,235.8 205.9,235.6 205.1,235.4 204.6,234.8 204.1,234.2 203.8,234.3 
		203.6,234.4 203.4,235.5 203.2,236.5 202.8,236.9 202.4,237.2 202.3,238.3 202.3,239.4 202.7,240.7 203.2,242 204.1,243 205,244 
		204.4,244.9 203.8,245.8 205.1,247.1 206.5,248.4 208.1,248.4 209.6,248.5 210.6,248.1 211.6,247.6 212.4,248.3 213.3,248.9 
		213.8,248.9 214.4,248.9 215.1,249.3 215.8,249.7 216.9,249.6 218,249.6 219,250.1 220,250.6 220.3,250.6 220.6,250.7 220.8,250.6 
		221.1,250.5 221.5,250.1 221.9,249.8 222.9,247.8 223.8,245.9 223.1,245.5 222.4,245.1 221,245.2 219.6,245.3 219.6,245.3 	"/>
</g>
<g>
	<polygon fill="none" stroke="#B8BECC" stroke-miterlimit="10" points="243.8,241 243.3,241 242.7,241 242.4,240.8 242.1,240.6 
		242.1,241.2 242.2,241.9 242.3,242.1 242.4,242.4 242.8,242.6 243.1,242.9 244,242.3 244.9,241.7 245,241.1 245,240.4 244.8,240.3 
		244.6,240.2 244.2,240.6 243.8,241 243.8,241 	"/>
</g>
<g>
	<polygon fill="none" stroke="#B8BECC" stroke-miterlimit="10" points="235.2,233.5 234.4,233.3 233.5,233.2 232.4,232.6 
		231.3,232.1 231.2,232.1 231.1,232.1 231.1,232.3 231,232.4 231.1,232.7 231.1,232.9 231.5,233.1 231.9,233.2 232.5,233.8 
		233.1,234.4 233.9,234.6 234.7,234.8 234.9,235.2 235,235.6 235.4,236 235.8,236.3 235.5,235.4 235.3,234.5 235.9,233.9 
		236.5,233.2 235.9,233.3 235.2,233.5 235.2,233.5 	"/>
</g>
<g>
	<path fill="none" stroke="#B8BECC" stroke-miterlimit="10" d="M442.7,136l-0.7-1.2l-0.7-1.2l0.3-0.5l0.3-0.5l-0.3-1l-0.3-1l0.3-0.8
		l0.3-0.8l0.4-0.6l0.4-0.6l-0.2-0.1l-0.2-0.1l-0.8-0.6l-0.8-0.6l-0.5-0.9l-0.5-0.9l-0.2-1.3l-0.2-1.3l-0.3-1.5l-0.3-1.5l-0.3-2.6
		l-0.3-2.6l-0.5-0.1l-0.5-0.1l-0.2-1.6l-0.2-1.6l0.2-1.6l0.2-1.6l-0.4-0.4l-0.4-0.4l-0.3-0.4l-0.3-0.4l0.3-0.7l0.4-0.7l-1-2.5
		l-1-2.5l-0.1-1.3l-0.1-1.3l0.3-0.4l0.3-0.3l0.2-1.1l0.1-1.1l0.4-0.7l0.4-0.7l1.2-1.2l1.2-1.2l0.1-0.1l0.1-0.1l0.7-1.4l0.7-1.4
		l-0.5-0.9l-0.5-0.9l-0.2-0.8l-0.2-0.8l0.2-1l0.2-1l-0.5-0.2l-0.5-0.2l0.4-0.9l0.4-0.9l0.2-0.1l0.2-0.1l-1.4-2.8l-1.4-2.8l0.1-0.1
		l0.1-0.1l0-0.3l0-0.3l-0.2-1l-0.2-1l0.1-0.5l0.1-0.5l0.8-0.7l0.8-0.7l-0.1-0.7l-0.1-0.7l0.1-0.5l0.1-0.5l-0.5-0.6l-0.5-0.6
		l-0.2-1.3l-0.2-1.3l0.1-0.8l0.1-0.8l0.4-0.3l0.4-0.3l-0.1-0.2l-0.1-0.2l-1.7-0.3l-1.7-0.3l-0.9-0.7l-0.9-0.7l-0.8,0l-0.8,0
		l-0.7,0.3l-0.7,0.3l-0.9-0.5l-0.9-0.5l-0.3-0.5l-0.3-0.5l-1.2,0.1l-1.2,0.1l-0.4-0.2l-0.4-0.2l-0.5-0.8l-0.5-0.8l-0.1,0.2l-0.1,0.2
		l-1.3,0.1l-1.3,0.1l-0.9-0.5c0,0-0.9-0.5-0.9-0.5l-1.3,0.8l-1.3,0.8l0.2,0.7l0.2,0.7l-0.5,1.2l-0.5,1.2l-0.5,0l-0.5,0l-0.7,0.8
		l-0.7,0.8l-1,0.2l-1,0.2l-0.2-0.2l-0.2-0.2l-0.4,0.3l-0.4,0.3l-0.1,0.8l-0.1,0.8l-0.4-0.4l-0.4-0.4l-0.2,0.1l-0.2,0.1l-0.4,0.7
		l-0.4,0.7l0.1,0.5l0.1,0.5l-1.5,1.1l-1.5,1.1l-0.4,0.2l-0.4,0.2l-0.9-0.3l-0.9-0.3l-1.5-0.1l-1.5-0.1l-0.7-0.8l-0.7-0.8l0.2-0.4
		l0.2-0.4l-0.3-0.4l-0.3-0.4l-0.7-0.4l-0.7-0.4l-0.2,0.2l-0.2,0.2l-0.5-0.2l-0.5-0.2l-0.5,0.2l-0.5,0.2l-0.6-0.4l-0.6-0.4l-0.2,0.1
		l-0.2,0.1l-0.3-1.5l-0.3-1.5l-1.1-1.7l-1.1-1.7l-0.1,0l-0.1,0l-0.1-0.8l-0.1-0.8l-0.7-0.8l-0.7-0.8l0.3-1l0.3-1l0.3-0.4l0.3-0.4
		l-0.4-0.9l-0.4-0.9l-0.8-0.1l-0.8-0.1l0.2-1.3l0.2-1.3l-0.4-0.7l-0.4-0.7L386,44l-0.5-0.2l-0.6-0.4l-0.6-0.4L384,42l-0.3-0.9
		l-3.6,0.9l-3.6,0.9l-1.6,0.3l-1.6,0.3l-5.4,0.6l-5.4,0.6l0-0.1l0-0.1l-1.2-0.2l-1.2-0.2c-1.5-0.3-4.7-0.4-5.8-1.6l-0.6-0.6
		l-0.6-0.6l-0.7-1.5l-0.7-1.5l0.3-1l0.3-1l0.1-0.8l0.1-0.8l1.4-1l1.4-1l-0.6-1.1l-0.6-1.1l0.2-1.4l0.2-1.4l-1.5,1.2l-1.5,1.2
		l-0.8-0.1l-0.8-0.1l-0.2,0.2l-0.2,0.2l-0.6,0.4l-0.6,0.4l-0.5,0l-0.5,0l-0.2-0.4l-0.2-0.4l-0.3,0.3l-0.3,0.3l-0.5-0.2l-0.5-0.2
		l-0.2-0.7l-0.2-0.7l-0.2,0.7l-0.2,0.7l-0.9,0.1l-0.9,0.1l-0.2,0.3l-0.2,0.3l1.1,0.3l1.1,0.3l-1.2,0.3l-1.2,0.3l-0.1-0.5l-0.1-0.5
		l-0.6,0.3l-0.6,0.3l-0.8,0l-0.8,0l0.4,0.7l0.4,0.7c0,0-0.6,1-0.6,1.1c-0.7,1.2-1.8,1.7-3.1,2.4l-0.6,0l-0.6,0l-0.1,0.3l-0.1,0.3
		l0.4,0.5l0.4,0.5l-0.5,0.2l-0.5,0.2l0,0.3l0,0.3l0.5,0c0,0,0.5,0,0.5,0c0.8,0,0.5,2.5,0.8,3.1l0.6-0.1l0.6-0.1l-0.5,0.7l-0.5,0.7
		l0,0.5l0,0.5l0.8-0.4l0.8-0.4l-0.3,0.7l-0.3,0.7l0.2,0.3l0.2,0.3l0.6-0.3l0.6-0.3l0.7,0.4l0.7,0.4l0.6-0.3l0.6-0.3l0.1,0.3l0.1,0.3
		l-0.3,0.2l-0.3,0.2l0.6,0.5l0.6,0.5l0,0.2l0,0.2l-0.3,0l-0.3,0l-1.1-0.8l-1.1-0.8l-0.4,0.1l-0.4,0.1l0.9,1.5l0.9,1.5l-0.3,0.7
		L340,52l0.8,0.1l0.8,0.1l0.1,0.5l0.1,0.5l-0.5,1l-0.5,1l1.2-0.2l1.2-0.2l-0.4,1.2l-0.4,1.2l0.4,0.3l0.4,0.3l0.4,0l0.4,0l-0.7,0.2
		l-0.7,0.2l-0.5-0.8l-0.5-0.8l-0.4,0.3l-0.4,0.3l0.2,0.8l0.2,0.8l-0.7,0l-0.7,0l0,0.9l0,0.9l0.2,0.2l0.2,0.2l-0.2,0l-0.2,0l-0.2,0.1
		l-0.2,0.1l-0.3,0l-0.3,0l-0.1,0.3l-0.1,0.3l-0.4,0l-0.4,0l0-0.2l0-0.2l0.3,0.1l0.3,0.1l0-0.3l0-0.3l0.2-0.1l0.2-0.1l-0.1-0.1
		l-0.1-0.1l0.4,0.1l0.4,0.1l0-1l0-1l0.4-0.3l0.4-0.3l-0.5-0.2l-0.5-0.2l0.1-0.4l0.1-0.4l-0.7,0l-0.7,0l0.8-0.2l0.8-0.2l0.6-0.6
		l0.6-0.6l-0.1-0.8l-0.1-0.8l-0.8,0l-0.8,0l0.1-0.4L339,53l-0.5-0.1l-0.5-0.1l0.3-0.3l0.3-0.3l-0.4-0.5l-0.4-0.5l-0.2-0.6l-0.2-0.7
		l-0.3,0.2l-0.3,0.2l-0.4-0.4l-0.4-0.4l1-0.5l1-0.5l-0.1-0.6l-0.1-0.6l-0.4,0.1l-0.4,0.1l-0.2-0.4l-0.2-0.4l-0.4,0.1l-0.4,0.1
		l-0.6-1.1l-0.6-1.1l0.3-0.2l0.3-0.2l-0.6,0.1l-0.6,0.1l-0.2-0.6l-0.2-0.6l0.3-0.3l0.3-0.3l-0.2-0.4l-0.2-0.4l0.1-0.3l0.1-0.3
		l-0.2-0.1l-0.2-0.1l-0.8,0l-0.8,0l0-0.8l0-0.8l-0.2-0.1l-0.2-0.1l-1.1-0.2l-1.1-0.2l-0.4,0.3l-0.4,0.3l-0.5,0.1l-0.5,0.1l-1.2-0.6
		l-1.2-0.6l-0.6,0.5l-0.6,0.5l-0.5-0.1l-0.5-0.1l-0.8,0.3l-0.8,0.3l-0.1,0.3l-0.1,0.3l1.4,1.9l1.4,1.9l-0.7-0.4l-0.7-0.4l-0.5-0.7
		l-0.5-0.7l-0.3,0.1l-0.3,0.1l-1,1.5l-1,1.5l0.7,0.7l0.7,0.7l-0.6,0.8l-0.6,0.8l-0.7,0l-0.7,0l-0.3-0.3l-0.3-0.3l0.1-1.8l0.1-1.8
		l-0.4-0.2l-0.4-0.2l0,1.1l0,1.1l-0.7,1.1l-0.7,1.1l0,0.3l0,0.3l-0.4,0.1l-0.4,0.1l0-1.4l0-1.4l-0.6-0.1l-0.6-0.1l-0.3-1.3l-0.3-1.3
		l-0.9-0.4l-0.9-0.4l0.1-0.7l0.1-0.7l-0.6-0.9l-0.6-0.9l0.6-0.7l0.6-0.7l-0.9-0.1l-0.9-0.1l-1.4,1.2l-1.4,1.2l0,0.3l0,0.3l-0.2,0.1
		l-0.2,0.1l-0.5,0.2l-0.5,0.2l-0.6,0.9l-0.6,0.9l-0.5-0.1l-0.5-0.1l-0.2-0.4l-0.2-0.4l-0.7-0.1l-0.7-0.1l0.7-0.6l0.7-0.6l1-1l1-1
		l-0.2-0.3l-0.2-0.3l1.4-2l1.4-2l-0.9,0.1l-0.9,0.1l-0.7-0.4l-0.7-0.4l0.1-0.6l0.1-0.6l-0.3-0.6l-0.3-0.6l-0.6,0.5l-0.6,0.5
		l-0.2,0.8l-0.2,0.8l-1,0.9l-1,0.9l-2.1,0.8l-2.1,0.8l-0.4,0.6l-0.4,0.6l-1,0.1l-1,0.1l0.3,0.3l0.3,0.3l-0.4,0.3l-0.4,0.3l-0.2-1
		l-0.2-1l-0.9-0.5l-0.9-0.5l-2.7,0.6l-2.7,0.6l0.2,0.5l0.2,0.5l1,0.2l1,0.2l-0.2,0.9l-0.2,0.9c0,0-1.5,1.3-1.5,1.3
		c-1.3,1.1-2.9,1.9-4.6,2.7l-1.1,0.1l-1.1,0.1c0,0-1.4,1.6-1.4,1.7c-1.9,2.2-3.5,4.6-5.8,6.3l-1.3,1l-0.2,0.2l-0.2,0.2l0.1,0.9
		l0.1,0.9l-0.6,0.2l-0.6,0.2l-0.9-0.1l-0.9-0.1l-0.6-0.8l-0.6-0.8l-0.7,0.2l-0.7,0.2l0.4,1.9l0.4,1.9l-0.5,0.9l-0.5,0.9l0.5,0.5
		l0.5,0.5l-0.2-0.1l-0.2-0.1l-0.5-0.3l-0.5-0.3l-1.2-1.9l-1.2-1.9l-0.4-0.5l-0.4-0.5l0.5-0.5l0.5-0.5l-0.6-0.1l-0.6-0.1l0.2-0.2
		l0.2-0.2l-0.3-0.8l-0.3-0.8l0.4-0.7l0.4-0.7l-3-1.2l-3-1.2l-0.5-1.2l-0.5-1.2l-0.5,0l-0.5,0l-0.9-0.6l-0.9-0.6l-0.5-0.1l-0.5-0.1
		l-0.3-0.4l-0.3-0.4l0.4-1l0.4-1c0,0-0.1-0.4-0.1-0.5c-0.4-1.5-0.6-3-1-4.5l-0.2-1l-0.2-1l-0.3,0l-0.3,0l-0.9-0.9l-0.9-0.9l-0.4-0.6
		l-0.4-0.6l-0.5,0.2l-0.5,0.2l-0.7-0.1l-0.8-0.1l-0.5-1.8l-0.5-1.8l-1.8-0.8l-1.8-0.8l-0.4-0.7l-0.4-0.7l-0.8-0.3l-0.8-0.3l-0.2-0.5
		l-0.2-0.5l0.8-0.7l0.8-0.7l-0.5-0.4l-0.5-0.4l0.7-1.1l0.7-1.1l-0.7-0.1l-0.8-0.1l-0.4-0.7l-0.4-0.7l0-0.5l0-0.5
		c0,0-0.4,0.7-0.4,0.7c-0.9,1.5-3.8,0.8-5.2,0.4l-1.4-0.4l-0.6-0.7l-0.6-0.7l0.9-0.3l0.9-0.3l-1.8-0.2l-1.8-0.2l-0.1-0.3l-0.1-0.3
		l2-1l2-1l0.1-0.2l0.1-0.2l-0.3-0.4l-0.3-0.4l0-0.8l0-0.8l-0.5-0.2l-0.5-0.2l-1.4,0.3l-1.4,0.3l-1-0.3l-1-0.3l-1,0.9l-1,0.9
		l-0.5,2.1l-0.5,2.1l-0.4,0.3l-0.4,0.3l0.1,0.8l0.1,0.8l-0.1,0.2l-0.1,0.2l-0.7,0.1l-0.7,0.1l-0.3,0.4l-0.3,0.4l-0.2-1l-0.2-1
		l0.5-0.3l0.5-0.3l0.8-0.7l0.8-0.7l0.1-1.7l0.1-1.7l1.5-2l1.5-2l-1.5,0.1l-1.5,0.1l0.8-1.3l0.8-1.3L221,5.9l-0.3-0.7L220.4,5
		l-0.3-0.1l0.5-0.3l0.5-0.3l0.5,0.4l0.5,0.4l-0.5-0.8l-0.5-0.8l-0.7,0.1l-0.7,0.1l1.3-1.3l1.3-1.3L221,2.2l-1.4,1.2l-1.4,0.3
		c0,0-1.3,0.3-1.4,0.3c-0.1,0-4.7,2.3-4.6,2l-0.3,0.8l-0.3,0.8l-0.3-0.1l-0.3-0.1l-0.6,0.5l-0.6,0.5l-0.5,1l-0.5,1l0.1,0.5l0.1,0.5
		l-1.4,1.6l-1.4,1.6l0.1,1l0.1,1l-0.4-0.6l-0.4-0.6l-0.5,0.2l-0.5,0.2l1.5-1.7l1.5-1.7l0.4-1.2l0.4-1.2l-0.3-0.9L208,8.1l-0.6,0.3
		l-0.6,0.3l0.5-1.3l0.5-1.3L207.1,5l-0.5-1.3l-0.5-0.1l-0.5-0.1l-0.8,0.7L204,5l-1.1,1.8l-1.1,1.8l-0.3,0l-0.3,0l-0.6-0.6l-0.6-0.6
		l-0.8,0.7l-0.8,0.7l-1.3-0.3l-1.3-0.3l-0.8,0.7l-0.8,0.7l-0.3,0l-0.3,0l-0.7,0.7l-0.7,0.7c0,0-0.5-0.1-0.5-0.1
		c-0.2,0-3.1,1.1-3.1,1.2l0,0.8l0,0.8c-1.8,0.2-3.7,0.5-5.5,0.8l-0.1-0.3l-0.1-0.3l0.7-1.4l0.7-1.4l-1.5,0.3l-1.5,0.3L180,9.9
		l-1.2-1.7l-0.5,0.3l-0.5,0.3l0,0.6l0,0.6l-0.3-0.4l-0.3-0.4l-0.7,0.4l-0.7,0.4l-0.1-0.6l-0.1-0.6l0.5-0.4l0.5-0.4l-0.2-0.1L176.2,8
		L175,8.7l-1.1,0.7l0.2,0.9l0.2,0.9l-0.7-0.4l-0.7-0.4l-0.3,0l-0.3,0l-0.4,1l-0.4,1l0.8,0.5l0.8,0.5l-1.2,1.1l-1.2,1.1l-0.7-0.3
		l-0.7-0.3l-0.6,0.6c0,0-0.6,0.6-0.6,0.6c-0.5,1.7-0.6,2.9-0.2,4.7l0.8-0.1l0.8-0.1l0.9,1.1l0.9,1.1l-0.2,1.3l-0.2,1.3l-0.1,0.1
		l-0.1,0.1l-0.5-0.1l-0.5-0.1l-0.9,0.6l-0.9,0.6l0,2.2l0,2.2l0.3,0.4l0.3,0.4l0.3,0l0.3,0l0.2,0.4l0.2,0.4L169,33l-0.3,0.6l-0.4,0.3
		l-0.4,0.3l-1.6,0.1l-1.6,0.1l-0.3-1.2l-0.3-1.2l-1.2,0.2l-1.2,0.2l0.1,0.8L162,34l-0.8,0.5l-0.8,0.5l-0.4,0.5l-0.4,0.5l0.3-0.5
		l0.3-0.5l0.8-0.6l0.8-0.6l-0.9-0.6l-0.9-0.6l0.7-1l0.7-1l-0.7-0.1l-0.7-0.1l-1.2,0.6l-1.2,0.6l-0.5-0.4l-0.5-0.4l-0.7,0.1l-0.7,0.2
		l-1.1-1.2l-1.1-1.2c-1.5-0.2-4-1.1-5.3,0l-0.9,0.6l-0.7-0.1l-0.7-0.1l-0.4-0.8l-0.4-0.8l-0.5,0.1l-0.5,0.1l-0.8-0.7l-0.8-0.7
		l0.3,1.5l0.3,1.5l-0.8-0.9l-0.8-0.9l-1.1,1.9l-1.1,1.9l0.3,2.2l0.3,2.2l-0.4-0.2l-0.4-0.2l-0.1-0.9l-0.1-0.9l-0.4,0.1l-0.4,0.1
		l0.8,3.3l0.8,3.3l1.9,0.1l1.9,0.1l-2,0.2l-2,0.2l-0.6,0.9L138,43l0.5,0.8l0.5,0.8l-0.4-0.3l-0.4-0.3l-0.7,0.3l-0.7,0.3l0.6-0.4
		l0.6-0.4l-0.2-0.2l-0.2-0.2l0.2-0.4l0.2-0.4l0-0.8l0-0.8l-0.2-0.2l-0.2-0.2l-1-0.6l-1-0.6l-0.4-0.2l-0.4-0.2l-0.5-0.4l-0.5-0.4
		l-0.3-0.8l-0.3-0.8l-0.1-0.5l-0.1-0.5l0.9-0.3l0.9-0.3l-0.1-0.4l-0.1-0.4l-1.6-0.2l-1.6-0.2l-0.4,1.2l-0.4,1.2l-0.7,0.2l-0.7,0.2
		l-0.5,0.3l-0.5,0.3l0.2,0.7l0.2,0.7l-0.2,1.3l-0.2,1.3l0.4,0.7l0.4,0.7l0.3,0.1l0.3,0.1l-0.2,0.2l-0.2,0.2l0.4,1l0.4,1l-1-1.5
		l-1-1.5l0.2-1.6l0.2-1.6l-0.4-0.7l-0.4-0.7l0.3-0.8l0.3-0.8l0-1.1l0-1.1l-0.9-0.6l-0.9-0.6l0.3-0.7l0.3-0.7l-0.5-0.6l-0.5-0.6
		l0-0.5l0-0.5l0.5-1.4l0.5-1.4l-1.2-0.5l-1.2-0.5l-0.7,1.3l-0.7,1.3l-0.2-1.1l-0.2-1.1l-0.2,0l-0.2,0l-0.4,1l-0.4,1l-1.1,0.1
		l-1.1,0.1l-0.2,0.5l-0.2,0.5l-0.8,0.2l-0.8,0.2l-0.1,1l-0.1,1l1.1,0.1l1.1,0.1l-0.2,0.1l-0.2,0.1l-1.2,0l-1.2,0l-0.3,0.2l-0.3,0.2
		l0.5,1l0.5,1l-0.1,0.2l-0.1,0.2l-0.2-0.5l-0.2-0.5l-1.1-1.2l-1.1-1.2l-0.6,0.1l-0.6,0.1l-0.1,0.3l-0.1,0.3l-0.1-0.5l-0.1-0.5
		l-0.8,0l-0.8,0l-1.1,0l-1.1,0c-1.5,0.4-3,0.8-4.5,1.2l-1.3,0.4l-1.4,1.4l-1.4,1.4l-0.5,0.7L99,36.2l1.2,0.1l1.2,0.1l0.3,0.3
		l0.3,0.3l-1.3,0.2l-1.3,0.2l-0.7-0.1L98,37.5l0.4-0.5l0.4-0.5L97.7,37l-1.1,0.5l-1.6,0.1l-1.6,0.1l-0.1,0.3l-0.1,0.3l-1.2,0.3
		L90.6,39l0.4,0.3l0.4,0.3l-0.4,0.3l-0.4,0.3l-0.5-0.2l-0.5-0.2l-0.2-0.2l-0.2-0.2l0-0.2l0-0.2l0.4-0.2l0.4-0.2l-0.5-0.2L88.7,38
		l0.8-0.4l0.8-0.4l0.5-0.9l0.5-0.9L90.4,35l-0.8-0.3l-0.3-0.4l-0.3-0.4l-0.3,0.5l-0.3,0.5l-0.4-0.2l-0.4-0.2l0-0.5l0-0.5l-1.1-0.1
		l-1.1-0.1l-2.6,1.6l-2.6,1.6l-1.9,0.2l-1.9,0.2l0.2,0.5l0.2,0.5l1.7,0.9l1.7,0.9l-1.8-0.3l-1.9-0.3l-0.1,0.5l-0.1,0.5l-0.3-0.5
		l-0.3-0.5l-1.2,1.1L73.2,41l-2.5,0.4l-2.5,0.4L68,40.9l-0.2-0.8l-0.9,0.3L66,40.8l-0.7-0.6l-0.7-0.6l0.1,1l0.1,1l-1.3-0.1l-1.3-0.1
		l-0.1,1.1L62,43.7l0.8-0.1l0.8-0.1l-0.5,0.5l-0.5,0.5l1.2,0.3l1.2,0.3l1,0.4l1,0.4l0.1,0.5l0.1,0.5l1,0l1,0l1.2,1.3l1.2,1.3
		L71,49.4l-0.5-0.2l-0.9-0.9l-0.9-0.9l-0.8,0l-0.8,0l-0.2-0.5l-0.2-0.5l-0.3,0l-0.3,0l-0.9-0.4l-0.9-0.4l-0.6,0.3l-0.6,0.3l-0.3-0.3
		l-0.3-0.4l-1.8,0.4L59,46.2l0.5-0.6L60,45l-0.6-0.5l-0.6-0.5l-0.5,0.2l-0.5,0.2l0,1.4l0,1.4l-0.3,0.7l-0.3,0.7l0.9,0.2l0.9,0.2
		l0.5,0.9L60,51l1.6,0.1l1.6,0.1l2.3,0.8l2.3,0.8l0.3-0.1l0.3-0.1l0,0.5l0,0.5l-0.3-0.2l-0.3-0.2l-0.9-0.4L66,52.4l-0.1,0.4
		l-0.1,0.4l-0.6-0.6l-0.6-0.6l-0.8-0.2l-0.8-0.2L62,51.5l-1.1-0.1l-0.4,0l-0.4,0l0.3,0.4l0.3,0.4l-0.4-0.1L59.9,52l-0.5,0.3
		l-0.5,0.3l0.2-0.5l0.2-0.5l-0.4-0.9l-0.4-0.9l-1.5-0.5l-1.5-0.5l-1,0.5l-1,0.5l-0.7,0.1l-0.7,0.1l-0.1,0.2l-0.1,0.2l-0.3-0.4
		L51,49.2l-0.6,0.5l-0.6,0.5l-0.3-0.3l-0.3-0.3l-0.8,0.1l-0.8,0.1l-0.1,1.6L47.3,53l-0.1-0.3L47,52.5l-0.7-0.4l-0.7-0.4L45,51.9
		l-0.5,0.2l-1,0.9l-1,0.9l-0.2,0.8l-0.2,0.8l-0.5,0.3c0,0-0.5,0.3-0.5,0.3c-0.6,2.8-2,4-1.3,6.8l0.3,0.4l0.3,0.4L40.2,64L40,64.2
		l0.8,0.6l0.8,0.6L43,65l1.4-0.3l0.3-0.2l0.3-0.2l0.4,0.2l0.4,0.2l-1.8,0.4l-1.8,0.4l-0.4,0.8l-0.4,0.8l0.1-0.6l0.1-0.6l-0.2-0.1
		l-0.2-0.1l-0.2,0.2l-0.2,0.2l-0.8,1.3l-0.8,1.3l-0.1,0.3l-0.1,0.3l0.2,0.1l0.2,0.1l-0.5,0.7l-0.5,0.7l-0.5,1.5l-0.5,1.5l0.4,0.7
		l0.4,0.7l0.5,0l0.5,0l0.2,1.5l0.2,1.5l0.7,0.7l0.7,0.7l0,0.6l0,0.6l-0.7,0.5L39.6,82L39,81.6l-0.6-0.3l-0.1,0.6l-0.1,0.6l1.7-0.2
		l1.7-0.2l0.5-0.2l0.5-0.2l-0.4,0.3l-0.4,0.3l0.2,0.2l0.2,0.2l-0.3,0l-0.3,0l-0.8-0.1L40,82.4l-0.6,0.3l-0.6,0.3l0.7,0.8l0.7,0.8
		l-0.4,0.9l-0.4,0.9l0.3,0.1l0.3,0.1l-0.1,0.3L39.9,87l0.5,0.3l0.5,0.3l1.4-0.3l1.4-0.3l1.4,0l1.4,0l0.7-0.5l0.7-0.5l0.1-1l0.1-1
		l1-0.3l1-0.3l1.4,0.7l1.4,0.7l0.8,0.1l0.8,0.1l0.6,0.5l0.6,0.5l0.3-0.1l0.3-0.1l0.8,0l0.8,0l2-0.9l2-0.9l0.9-0.9l0.9-0.9l1.1,0.2
		l1.1,0.2l1.5-1.3l1.5-1.3l1.3-0.5l1.3-0.5l0.6,0l0.6,0l0.8-0.3l0.8-0.3l1.1,0.2l1.1,0.2l0.2-1l0.2-1l0.6-0.1l0.6-0.1l0.9,0.5
		l0.9,0.5l0.9-0.6l0.9-0.6l0.5,0l0.5,0l0.2-0.2l0.2-0.2l0.3-0.1l0.3-0.1l0.2-0.5l0.2-0.5l1-0.1l1-0.1l1-0.7l1-0.7l0.8-0.2l0.8-0.2
		l1.9-1.5l1.9-1.5l0.2-0.3l0.2-0.3l0.2,0.1l0.2,0.1l-2.3,2.1l-2.3,2.1L87.3,75L85.5,76L85,76l-0.4,0l-0.3,0.1l-0.3,0.1l-0.4,0.5
		l-0.4,0.5l-2,1l-2,1l-0.7,1l-0.7,1l-0.9,0.6l-0.9,0.6l-1,2.8l-1,2.8l0.4,0.1l0.4,0.1l2.4-1.3l2.4-1.3l0.5,0l0.5,0l-0.6,0.3L79.7,86
		l-0.8,1.1l-0.8,1.1l2.3-0.1l2.3-0.1l0.4-0.7l0.4-0.7l-0.1-0.8l-0.1-0.8l1.4-0.9l1.4-0.9l-0.7,1l-0.7,1l0.4,0l0.4,0l1.2-1.1l1.2-1.1
		l0.3-0.3l0.3-0.3L88,83.9l-0.7,1.7l1.7-0.3l1.7-0.3l-0.4-0.4L90,84.3l0.2-0.5l0.2-0.5l0.5,0.2l0.5,0.2l1.3-0.3L94,83l0.4,0l0.4,0
		l-0.5,0.4l-0.5,0.4L92.7,84l-1.1,0.3l0.7,0.3L93,85l-2.1,0.8l-2.1,0.8l0.8,0.3l0.8,0.3l-0.9,0.2l-0.9,0.2l-0.9,1.1l-0.9,1.1
		l1.5-0.3l1.5-0.3l0.9,0.5l0.9,0.5l0.6-0.7l0.6-0.7l0.6-0.1l0.6-0.1l0.9-0.6l0.9-0.6l0.5,0l0.5,0l-0.4,0.3l-0.4,0.3L94.1,89
		l-1.6,0.8l0.6,0.4l0.6,0.4l0.7-0.1l0.7-0.1l0.6,0.8l0.6,0.8l0.2-0.9l0.2-0.9l1.2-0.2l1.2-0.2l-1,0.5l-1,0.5l0.2,0.7l0.2,0.7l2.2,0
		l2.2,0.1l0.7,0.1l0.7,0.1l-0.8,0.4l-0.8,0.4l-0.4-0.3l-0.4-0.3l-1.2,0.5l-1.2,0.5l-0.3-0.4L98.1,93l-1.8,1.1l-1.8,1.1L93.7,95
		L93,94.8l-0.2,0.3l-0.2,0.3l0.5,0.3l0.5,0.3l1.1,0.6l1.1,0.6l0.6,0.9l0.6,0.9l1.2-0.5l1.2-0.5l0.6,0.8l0.6,0.8l2.7,0.2l2.7,0.2
		l0.3-0.1l0.3-0.1l-0.1,0.3l-0.1,0.3l1,0.4l1,0.4l2-1.1l2-1.1l-0.6,0.6l-0.6,0.6l-0.1,0.6l-0.1,0.6l-0.5,1.7l-0.5,1.7l0.3-2l0.3-2
		l-1.4,0.6l-1.4,0.6l-1-0.7l-1-0.7l-2.8-0.2l-2.8-0.2l0.2,0.6l0.2,0.6l-0.3-0.4l-0.3-0.4l-0.3-1.1l-0.3-1.1L98.7,99l-0.6,0.5
		l-0.7,0.2l-0.7,0.2l0-0.3l0-0.3l-0.6-0.5l-0.6-0.5l-0.8,0l-0.8,0l0.7-0.4l0.7-0.4L94,96.7l-1.4-0.9l-0.4,0.1L91.9,96l0.2-0.3
		l0.2-0.3l0-0.8l0-0.8l0.5,0l0.5,0l0.4,0.4l0.4,0.4l0.3-0.8l0.3-0.8l-2.4-0.3L90,92.4l-1.7,0.9l-1.7,0.9l-0.8-0.1L85,94.1l-0.8,0.7
		l-0.8,0.7l-0.9,0.2l-0.9,0.2l-1.4-0.1l-1.4-0.1l-0.7-1.1l-0.7-1.1l-2-0.1l-2-0.1l-0.7,0.5L72.1,94l-1.6,0.5l-1.6,0.5l-0.8-1.1
		l-0.8-1.1l1-1.2l1-1.2l-0.6-0.1l-0.6-0.1l-0.8,1.5l-0.8,1.5l-0.6,0.7l-0.6,0.7l-0.9-0.8l-0.9-0.8L63.3,92l-0.2-0.8l0.4-0.3l0.4-0.3
		l0.3-1.3l0.3-1.3l0.4-0.7l0.4-0.7l0.1-0.5l0.1-0.5l-0.4,0.1l-0.4,0.1l-0.8,0.3l-0.8,0.3l-1.2,1.2l-1.2,1.2l0.6,2.4l0.6,2.4l0.1,0.4
		l0.1,0.4l-0.6,0.6l-0.6,0.6L60,95.5l-0.9,0.2l-0.4-0.9l-0.4-0.9l-0.6,0.5l-0.6,0.5L56,94.9L54.9,95l0.8,0.4l0.8,0.4l-0.4,1.5
		l-0.4,1.5l0.6-0.4l0.6-0.4l0.9,0.5l0.9,0.5l0.8,0.1l0.8,0.1l1.3-0.5l1.3-0.5l0.7,0.7l0.7,0.7l0,0.7l0,0.7l-1.6,0.5l-1.6,0.5
		l0.5,0.3l0.5,0.3l0.6,2.5l0.6,2.5l-0.1,1.4l-0.1,1.4l-0.4,0.4l-0.4,0.4l0.5,0.6l0.5,0.6l0.5-0.2l0.5-0.2l0.2-0.8l0.2-0.8l0.8-0.8
		l0.8-0.8l0.6-1.5L68,106l0.7-0.8l0.7-0.8l-0.2-0.5l-0.2-0.5l0.2-0.5l0.2-0.5l0.2-0.1l0.2-0.1l1.7-0.2l1.7-0.2l1.1,0.3l1.1,0.3
		l0.4,0.4l0.4,0.4l0.6,0l0.6,0l1,0.4l1,0.4l1.5,0.4l1.5,0.4l0.5,0.9l0.5,0.9l1.9,0l1.9,0l0.4,0.3l0.4,0.3l0.2-0.1l0.2-0.1l0.3,0
		l0.3,0l0.2,0.5l0.2,0.5l0.5,0.2l0.5,0.2l0.4,0.9l0.4,0.9l0.2,0.7l0.2,0.7l-0.2,0.7L91,113l0.1,0.5l0.1,0.5l1,0.2l1,0.2l0.1,0.2
		l0.1,0.2l0,0.5l0,0.5l0.1,1l0.1,1l-0.8,0.7l-0.8,0.7l0,1.3l0,1.3l-0.7,1l-0.7,1l0,0.2l0,0.2l-0.5,0.2l-0.5,0.2l-1.1-0.7l-1.1-0.7
		l-0.3,0l-0.3,0l0.2,1.3l0.2,1.3l-0.6-1.5l-0.6-1.5l-1.2-0.9l-1.1-0.9l-0.9,0.2l-0.9,0.2l-0.8,0.2l-0.8,0.2l-1.1-0.1l-1.1-0.1
		l-0.9,0.6l-0.9,0.6l-1.4,0.1l-1.4,0.1l-0.5-0.1l-0.5-0.1l-1.2,0.8l-1.2,0.8l-0.8-0.2l-0.8-0.2l-1.6,0.1l-1.6,0.1l-0.7,0.8l-0.7,0.8
		l-1.1-0.3l-1.1-0.3l-0.8,0.1l-0.8,0.1l-2.1,0.9l-2.1,0.9l-0.4-0.2l-0.4-0.2l-0.2,0.3L55,128l-1.9-0.2l-1.9-0.2l-0.2,0.8l-0.2,0.8
		l-2.3-0.3l-2.3-0.3l-0.1,0.2l-0.1,0.2l0,0.3l0,0.3l0.4,0.9l0.4,0.9l-0.2,0.2l-0.2,0.2l-1.7,0.3l-1.7,0.3l0.8,0.4l0.8,0.4l1.6,0.6
		l1.6,0.6l1.7,0.1l1.7,0.1l0.6,0.3l0.6,0.3l1.1-0.5l1.1-0.5l0.6,0.9l0.6,0.9l1,0.2l1,0.2l0.3,0l0.3,0l0.5,0.7l0.5,0.7l1.2,0.5
		l1.2,0.5l0.9-0.9l0.9-0.9l0.3,0.1l0.3,0.1l0.3-0.4l0.3-0.4l0.1-1.5l0.1-1.5l-0.3-0.1l-0.3-0.1l0.4,0l0.4,0l0.3-0.2l0.3-0.2l0.3-0.1
		l0.2-0.1l1.7,0.1l1.7,0.1l0,0.1l0,0.1L68,133l-2.2,0.2l-0.3,1.9l-0.3,1.9l2,0.7l2,0.7l1.5,1.2l1.5,1.2l0.5,0l0.5,0l2.2,2
		c0,0,2.1,1.8,2.2,2c1.6,1.4,2.7,4.2,3.7,6.1l1.4,2.5l0.4,1l0.4,1l1.5-0.5l1.5-0.5l-1,0.9l-1,0.9l-0.1,0.8l-0.1,0.8l0.4,1.3L85,160
		l0.3,1.1l0.3,1.1l-0.1,1.4l-0.1,1.4l-1.6,0.8l-1.6,0.8l0,0.3l0,0.3l0.4,0.4l0.4,0.4l0.1,1.1l0.1,1.1l2.4,0l2.4,0l1.4-0.2l1.4-0.2
		l0.7,0.6L92,171l0.8-0.6l0.8-0.6l0,0.3l0,0.3l-0.4,0.4l-0.4,0.4l0.7,0.2l0.7,0.2l2.1-0.2l2.1-0.2l0.8-0.2l0.8-0.2l-0.4-1.1
		l-0.4-1.1l0.2-0.2l0.2-0.2l0.4,0.9l0.4,0.9l0.9,0.5l0.9,0.5l1.1-0.9l1.1-0.9l-0.1-0.5l-0.1-0.5l0.4-0.1l0.4-0.1l0.2-1.6l0.2-1.6
		l-1.2-0.3l-1.2-0.3l-0.6-1.1l-0.6-1.1l-1.1-1.2l-1.1-1.2l0.8,0.6l0.8,0.6l0.8-1.5l0.8-1.5l0.6,0.4l0.6,0.5l0.3,1.4l0.3,1.4
		l-0.2,1.3l-0.2,1.3l0.2,0l0.2,0l0.3-0.7l0.3-0.7l0.6-0.4l0.6-0.4l1.4-0.8l1.4-0.8l0.6,0.3l0.6,0.3l0-0.8l0-0.8l-0.5-0.4l-0.5-0.4
		l0-0.5l0-0.5l-1-0.9l-1-0.9l-0.7,0.3l-0.7,0.3l-0.8-0.2l-0.8-0.2l-0.3-1l-0.3-1l0.5,0.9l0.5,0.9l1.1-0.1l1.1-0.1l-0.1-1l-0.1-1
		l0.4-1.2l0.4-1.2l0.5,0l0.5,0l0-0.4l0-0.4l0.7-0.1l0.7-0.1l0.4-0.4l0.4-0.4l0-1.1l0-1.1l-0.5-0.2l-0.5-0.2l0.5-0.2l0.5-0.2
		l-0.1-0.6l-0.1-0.6l-0.3-0.1l-0.3-0.1l0.5,0.1l0.5,0.1l0.4-0.3l0.4-0.3L111,143l-0.8-0.7l0.1-0.6l0.1-0.6l0.3,0.5l0.3,0.5l0.8,0.5
		l0.8,0.5l0.1,0.7l0.1,0.7l-0.2,0.8l-0.2,0.8l-0.6,0.2l-0.6,0.2l0,0.6l0,0.6l0.7,0l0.7,0l0.7-0.8l0.7-0.8l-0.6,0.9l-0.6,0.9l1.4,0.6
		l1.4,0.6l-0.2,0l-0.2,0l-0.4-0.2l-0.4-0.2l-1-0.4l-1-0.4l-0.5,0l-0.5,0l-0.1,0.4l-0.1,0.4l-0.5,0.5l-0.5,0.5l-0.7,0l-0.7,0
		l-0.1,0.4l-0.1,0.4l-0.4,0l-0.4,0l-0.2,1l-0.2,1l0.1,1l0.1,1l0.7,0.5l0.7,0.5l0.6-0.3l0.6-0.3l-0.5,0.4l-0.5,0.4l0.1,0.3l0.1,0.3
		l0.9,0.5l0.9,0.5l-0.5-0.1l-0.5-0.1l-0.2,0.4l-0.2,0.4l0.4,0.5l0.4,0.5l0.5,0l0.5,0l0.1,0.7l0.1,0.7l0.5,0.1l0.5,0.1l0.3-0.3
		l0.3-0.3l0.5,0l0.5,0l-0.2-0.8l-0.2-0.8l0.3,0.6l0.3,0.6l0.4-0.3l0.4-0.3l-0.3,0.4l-0.3,0.4l1.3,1l1.3,1l-2.1-0.7l-2.1-0.7l2.4,1.1
		l2.4,1.1l3.5-0.6l3.5-0.6l-0.4-0.5l-0.4-0.5l-0.4-1.7l-0.4-1.7l0.9-0.6l0.9-0.6l-0.6,0.1l-0.6,0.1l-0.3-0.6l-0.3-0.6l0.5,0.2
		l0.5,0.2l0.2-1.1l0.2-1.1l0.2,1l0.2,1l1,0l1,0l0.5-0.7l0.5-0.7l-0.1,0.8l-0.1,0.8l0.3,0.7l0.3,0.7l0.4,0.3l0.4,0.3l0.3,0.7l0.3,0.7
		l0.8,0.3l0.8,0.3l0.4,0.4l0.4,0.4l0.1,0.3l0.1,0.3l-0.4,0.3l-0.4,0.3l0.2,0.2l0.2,0.2l0.5,0.1l0.5,0.1l1.2-0.7l1.2-0.7l-0.6,0.5
		l-0.6,0.5l-0.1,0.5l-0.1,0.5L134,163l-0.4,0.4l0.1,0.5l0.1,0.5l2.3,2.4l2.3,2.4l0.3,0.8l0.3,0.8l0.8-0.2l0.8-0.2l1.4,0.2l1.4,0.2
		l0.2,0.4l0.2,0.4l0.4,0.1l0.4,0.1l0.7-0.3l0.7-0.3l1.4,0.2l1.4,0.2l1.2-0.7l1.2-0.7l-0.4-1.3l-0.4-1.3l-0.6-0.2l-0.6-0.2l0.6-0.1
		l0.6-0.1l-0.1-0.6l-0.1-0.6l-0.6-0.7l-0.6-0.7l0.5-0.5l0.5-0.5l-0.3-0.1l-0.3-0.1l0.4-0.3l0.4-0.3l-0.1,0.3l-0.1,0.3l0.2,0.1
		l0.2,0.1l-0.3,0.6l-0.3,0.6l0.4,0.5l0.4,0.5l0.1,0.8l0.1,0.8l0.5,1.2l0.5,1.2l1.5-1.1l1.5-1.1l0.5-1.1l0.5-1.1l0,0.8l0,0.8l0.4-0.1
		l0.4-0.1l0.8-0.3l0.8-0.3l1.1,0.2l1.1,0.2l0.7-0.4l0.7-0.4l-0.5,0.6l-0.5,0.6l-0.3,0l-0.3,0l-0.8-0.2l-0.8-0.2l-1.5,0.5l-1.5,0.5
		l0,0.7l0,0.7l-0.4-0.3l-0.4-0.3l-0.8,0.8l-0.8,0.8l0,0.4l0,0.4l2.4,1.7l2.4,1.7l0.5-0.4l0.5-0.4l0.8,0.1l0.8,0.1l0.7-1l0.7-1
		l-0.4,1.2l-0.4,1.2l1.7,0.5l1.7,0.5l0.3,0l0.3,0l2.4,0.1l2.4,0.1l1.6,0.4l1.6,0.4l0.4-0.5l0.4-0.5l-0.2-0.4l-0.2-0.4l0.3-0.9
		l0.3-0.9l-0.1-0.3l-0.1-0.3l0.5-0.9l0.5-0.9l-0.4-0.1l-0.4-0.1l0.3-0.3l0.3-0.3l-0.6-0.4l-0.6-0.4l-0.1-0.6l-0.1-0.6l-0.3-0.1
		l-0.3-0.1l0.1-1.1l0.1-1.1l0.7-0.6l0.7-0.6l-0.3-0.7l-0.3-0.7l-0.6-0.4l-0.6-0.4l0.1-0.7l0.1-0.7l0.1,0.7l0.1,0.7l0.5,0l0.5,0
		l0.4,0.6l0.4,0.6l0,0.3l0,0.3l-0.8,0.8l-0.8,0.8l0,0.9l0,0.9l0.3,0.2l0.3,0.2l0,0.5l0,0.5l0.7,0.4l0.7,0.4l-0.2,0.4l-0.2,0.4l0.4,0
		l0.4,0l-0.6,1.1l-0.6,1.1l0.6,0.3l0.6,0.3l-0.5-0.1l-0.5-0.1l-0.2,0.5l-0.2,0.5l0.2,1.3l0.2,1.3l1,1.3l1,1.3l0.3,0.8l0.3,0.8
		l0.1,0.5l0.1,0.5l2.3,2.6l2.3,2.6l0.5,0.1l0.5,0.1l0.9-0.5l0.9-0.5l0.7,0.2l0.7,0.2l0.2-0.2l0.2-0.2l1.1,0.1l1.1,0.1l0.5-0.2
		l0.5-0.2l0.7-0.8l0.7-0.8l0.1-0.8l0.1-0.8l0.6-0.5l0.6-0.5l0.3-1l0.3-1l-0.3-1.2l-0.3-1.2l-0.4-0.1l-0.4-0.1l-0.5-0.9l-0.5-0.9
		l0.1-0.3l0.1-0.3l-0.3-0.6l-0.3-0.6l-0.4-0.1l-0.4-0.1l0.2-0.4l0.2-0.4l-0.7-1.4l-0.7-1.4l-0.5-0.1l-0.5-0.1l0.7-0.1l0.7-0.1
		l0.1-0.5l0.1-0.5l-0.2-0.5l-0.2-0.5l0.2-0.5l0.2-0.5l0,0.4l0,0.4l0.2,0.5l0.2,0.5l-0.3,0.8l-0.3,0.8l1.2,2.5l1.2,2.5l0.4,0.3
		l0.4,0.3l-0.1,0.5l-0.1,0.5l0.4,0.1l0.4,0.1l0.5,1.6l0.5,1.6l1.2-0.4l1.2-0.4l-0.2-1.5l-0.2-1.5l0.4,0.9l0.4,0.9l1-0.8l1-0.8
		l0.2-0.6l0.2-0.6l0.6,0.2l0.6,0.2l0.1-0.4l0.1-0.4l-0.6-0.5l-0.6-0.5l0.1-0.7l0.1-0.7l1-0.1l1-0.1l-0.9,0.2l-0.9,0.2l-0.1,0.5
		l-0.1,0.5l0.5,0.5l0.5,0.5l-0.3,0.9l-0.3,0.9l-0.5-0.3l-0.5-0.3l-0.6,1.7l-0.6,1.7l-0.5,0.3l-0.5,0.3l-0.3,0.8l-0.3,0.8l-0.7-0.1
		l-0.7-0.1l0.1,0.5l0.1,0.5l-0.7-0.4l-0.7-0.4l-0.1,0.8l-0.1,0.8l0.3,0.7l0.3,0.7l-0.9,0.5l-0.9,0.5l0.3,0.4l0.3,0.4l0.7-0.4
		l0.7-0.4l1.5,0.1l1.5,0.1l0.3,0.3l0.3,0.3l1,0.2l1,0.2l0.4,1l0.4,1l-0.5,0.1l-0.5,0.1l-1-0.4l-1-0.4l-1-0.6l-1-0.6l-0.3,0.2
		l-0.3,0.2l-0.6,0.1l-0.6,0.1l-0.5-0.2l-0.5-0.2l-0.4,0.7l-0.4,0.7l0.2,0.3l0.2,0.3l0.5-0.6l0.5-0.6l1.9,0.3l1.9,0.3l1.8,0.8
		l1.8,0.8l3.4,2.8l3.4,2.8l0.1-0.6l0.1-0.6l-0.1-1.3l-0.1-1.3l0.8-1l0.8-1l-0.9-1l-0.9-1l1.1,0.5l1.1,0.5l1-0.4l1-0.4l0.4-0.1
		l0.4-0.1l0.9,0.2l0.9,0.2l0,0.3l0,0.3l-0.5,0.2l-0.5,0.2l-0.3,0.4l-0.3,0.4l-1.1,0l-1.1,0l-0.4,0.3l-0.4,0.3l-0.7,0.8l-0.7,0.8
		l0.1,0.2l0.1,0.2l-0.1,0.3l-0.1,0.3l0.2,1l0.2,1l-0.3,0.4l-0.3,0.4l0.7,1.5l0.7,1.5l2.1,1.3l2.1,1.3l0.9,2l0.9,2l0.1,1.7l0.1,1.7
		l0.2,1l0.2,1l-0.3,0.7l-0.3,0.7l-0.3,0.4l-0.3,0.4l-0.7,0.4l-0.7,0.4l0.3,0.4l0.3,0.4l0.1,1.3l0.1,1.3l0.5,1.5l0.5,1.5l0.6,0.6
		l0.6,0.6l0.8-0.1l0.8-0.1l1.3,0.4l1.3,0.4l0.2,0l0.2,0l-0.4-0.7l-0.4-0.7l-1.2-1.1l-1.2-1.1l-0.1-0.5l-0.1-0.5l0.1-0.5l0.1-0.5
		l-0.4-0.3l-0.4-0.3l-0.3-1.3l-0.3-1.3l0.2-2.4l0.2-2.4l0.7-1.2l0.7-1.2l-0.7,0.2l-0.7,0.2l0-1.9l0-1.9l1.4,1.3l1.4,1.3l0.6,0.5
		l0.6,0.5l-0.7-0.1l-0.7-0.1l0.4,1.1l0.4,1.1l1.8-0.7l1.8-0.7l0.5,0.3l0.5,0.3l0.2-0.7l0.2-0.7l0.6-0.1l0.6-0.1l0-0.7l0-0.7l1.1,1.6
		l1.1,1.6l-0.3-1.8l-0.3-1.8l0.2-0.1l0.2-0.1l0.1,0l0.1,0l0.7,1.5l0.7,1.5l0.4,0.3l0.4,0.3l0.5-0.3l0.5-0.3l-0.1-1.3l-0.1-1.3
		l0.3,0.3l0.3,0.3l0,0.3l0,0.3l0.9,0.6l0.9,0.6l0.4,1.3l0.4,1.3l0.6-0.8l0.6-0.8l0.4,0.7l0.4,0.7l1.2,0.1l1.2,0.1l-1.1-1.6l-1.1-1.6
		l-1.2-1l-1.2-1l0.8-0.7l0.8-0.7l-0.9-0.6l-0.9-0.6l0.9-0.6l0.9-0.6l-0.4-1.6l-0.4-1.6l-0.5,0l-0.5,0l0.1-0.9l0.1-0.9l-0.6-0.8
		l-0.6-0.8l0.2-0.3l0.2-0.3l0.2,0.4l0.2,0.4l0.4,0.6l0.4,0.6l-0.1,0.5l-0.1,0.5l0.5,0.2l0.5,0.2l-0.2,0.2l-0.2,0.2l0.2,0.7l0.2,0.7
		l0.7-0.2l0.7-0.2l0.4,0.3l0.4,0.3l-0.4-0.1l-0.4-0.1l-0.2,0.4l-0.2,0.4l-0.2,0.9l-0.2,0.9l0.8,1.8l0.8,1.8l0.3-1.6l0.3-1.6l0.1,1.1
		l0.1,1.1l0.5-0.9l0.5-0.9l0.1,0.7l0.1,0.7l-0.6,0.4l-0.6,0.4l0.4,0.5l0.4,0.5l0.4-0.7l0.4-0.7l0.4,0.6l0.4,0.6l0.7,0.4l0.7,0.4
		l0.2-0.1l0.2-0.1l0-1.8l0-1.8l1.3,0.6l1.3,0.6l0.2-0.5l0.2-0.5l-0.5-0.4l-0.5-0.4l0.6-0.5l0.6-0.5l-0.1-0.4l-0.1-0.4l-0.5,0l-0.5,0
		l0.4-0.3l0.4-0.3l1.6,0.5l1.6,0.5l1-0.4l1-0.4l1.1,0.3l1.1,0.3l0.5-0.2l0.5-0.2l0.2-0.5l0.2-0.5l-0.2-0.5l-0.2-0.5l0.9,0.1l0.9,0.1
		l0.2-0.8l0.2-0.8l0.6,1.7l0.6,1.7l0.3-0.6l0.3-0.6l0.3,1l0.3,1l-2.1-0.8l-2.1-0.8l-0.1,0.4l-0.1,0.4l2.5,1.5l2.5,1.5l-0.3-0.5
		l-0.3-0.5l0.8,0.2l0.8,0.2l0.2,0.5l0.2,0.5l-0.1,0.6l-0.1,0.6l0.2,1l0.2,1l-0.6,1.1l-0.6,1.1l-0.1,0.9l-0.1,0.9l0.1,0.4l0.1,0.4
		l-0.6,0.3l-0.6,0.3l-0.1-0.2l-0.1-0.2l-0.7,0.5l-0.7,0.5l-1.4-0.2l-1.4-0.2l0.1-0.6l0.1-0.6l-0.5-0.4l-0.5-0.4l-0.7,0.3l-0.7,0.3
		l0.1,0.8l0.1,0.8l-0.4-0.3l-0.4-0.3l-0.1-1l-0.1-1l-0.8-0.1l-0.8-0.1l0.4,1.2l0.4,1.2l-0.6,0.3l-0.6,0.3l0-0.9l0-0.9l-0.7,0.5
		l-0.7,0.5l-0.5-0.3l-0.5-0.3l0,0.6l0,0.6l-0.2,0.2l-0.2,0.2l-0.4-0.2l-0.4-0.2l0.2-0.9l0.2-0.9l-0.8,0.4l-0.8,0.4l0.1-1l0.1-1
		l-0.4,0.4l-0.4,0.4l-0.1-0.8l-0.1-0.8l-0.9,0.6l-0.9,0.6l-0.2-0.5l-0.2-0.5l-0.8,0.4l-0.8,0.4l0.3,0.7l0.3,0.7l-0.6,0l-0.6,0
		l0.4,0.6l0.4,0.6l1.1-0.2l1.1-0.2l-0.8,0.4l-0.8,0.4l0.3,0.3l0.3,0.3l0.4-0.3l0.4-0.3l1.2,0.6l1.2,0.6l0.6,0.9l0.6,0.9l0.3,0l0.3,0
		l0.3,1.6l0.3,1.6l1.7,0.9l1.7,0.9l0.5-0.1l0.5-0.1l0.5,0.2l0.5,0.2l0.8-0.8l0.8-0.8l1.6-0.3l1.6-0.3l1.2-0.6l1.2-0.6l0.8,0.1
		l0.8,0.1l1.8,0.8l1.8,0.8l0.9-1.9l0.9-1.9l1.3,0.3l1.3,0.3l0.3,0.4l0.3,0.4l0.3,0.5l0.3,0.5l0.3,0l0.3,0l1.4-0.9l1.4-0.9l1.1,0
		l1.1,0l1.1,0.3l1.1,0.3l0.3-0.1l0.3-0.1l0.4-0.7l0.4-0.7l0.5-0.2l0.5-0.2l1.1,0l1.1,0l0.8,0.6l0.8,0.6l1.8,0.5l1.8,0.5l1.4,1l1.4,1
		l0.1,0.2l0.1,0.2l1,0.1l1,0.1l-0.1,0.2l-0.1,0.2l-1.1-0.1l-1.1-0.1l-1.1,0.7l-1.1,0.7l-1.4-0.9l-1.4-0.9l-0.5,0.5l-0.5,0.5l0.6,1.4
		l0.6,1.4l-0.4,1l-0.4,1l0.2,0.8l0.2,0.8l0.7,0.5l0.7,0.5l0.7-0.5l0.7-0.5l0.5,0.1l0.5,0.1l0.5-1.2l0.5-1.2l0.5-0.2l0.5-0.2l0.9-0.9
		l0.9-0.9l0.2,0.8l0.2,0.8l0.5,0.6l0.5,0.6l0.8,0.2l0.8,0.2l1-0.5l1-0.5l0.6,0l0.6,0l0.6,0.6l0.6,0.6l2.1-0.5l2.1-0.5l0.1-1.6
		l0.1-1.6l0.7-1.2l0.7-1.2l0.1-1.4l0.1-1.3l0.1,0l0.1,0l0.9,0.4l0.9,0.4l1.1-0.1l1.1-0.1l0.2,0.2l0.2,0.2l-0.3,0.7l-0.3,0.7l0.9,0.5
		l0.9,0.5l1.5-1l1.5-1l1-0.3l1-0.3l0.6-0.1l0.6-0.1l0.1,0.2l0.1,0.2l-0.2,1l-0.2,1l0.2,0.2l0.2,0.2l1.1,0.2l1.1,0.2l0.6-0.5l0.6-0.5
		l0.1-1.9l0.1-1.9l0.5-0.2l0.5-0.2l2.4-0.7l2.4-0.7l0.1-0.5l0.1-0.5l-0.4-0.7l-0.4-0.7l0.4-1.8l0.4-1.8l-0.4-0.4l-0.4-0.4l0.2-0.1
		l0.2-0.1l-0.1-1.3l-0.1-1.3l0.9-0.6l0.9-0.6l0.1-0.3l0.1-0.3l0-1.1l0-1.1l-0.7-0.9l-0.7-0.9l0.8-1.4l0.8-1.4l1.6-0.1l1.6-0.1l0.2-1
		l0.2-1l0.2-0.1l0.2-0.1l0.4-0.2l0.4-0.2l1.2,0.2l1.2,0.2l2.1-2.2c0,0,2.1-2.2,2.1-2.1l0.2,0.5l0.2,0.5l0,1.1l0,1.1l0.2,0.2l0.2,0.2
		l0.5,0l0.5,0l1.1-1.2l1.1-1.2l2.7-0.7l2.7-0.7l0.1,0.1l0.1,0.1l0.8-0.5l0.8-0.5l0.2-0.4l0.2-0.4l0.5-0.1l0.5-0.1l0.8,0.1l0.8,0.1
		l0.5-0.2l0.5-0.2l0.4,0.3l0.4,0.3l1.8,0.4l1.8,0.4l0.8,0.1l0.8,0.1l1.1-0.6l1.1-0.6l0.9,0.4l0.9,0.4l0.2,0.2l0.2,0.2l1-0.1l1-0.1
		l0-0.5l0-0.5l0.2-0.1l0.2-0.1l1.1-0.3l1.1-0.3l1.4,0.2l1.4,0.2l0.9-0.9l0.9-0.9l0.3,0l0.3,0l0.1-1.5l0.1-1.5l0.5-1.4l0.5-1.4
		l0.4-0.3l0.4-0.3l0.7,0l0.7,0l0.4-0.3l0.4-0.3l0.2-0.7l0.2-0.7l0.5-0.2l0.5-0.2l0.5,0.1l0.5,0.1l1-0.4l1-0.4l1.4-0.1l1.4-0.1l1-1
		l1-1l0.4-0.3l0.4-0.3l0.5,0.2l0.5,0.2l0.8-0.2l0.8-0.2l0.6-0.4l0.6-0.4l-0.1-0.7l-0.1-0.7l-0.7-1.3l-0.7-1.3l0.1-0.2l0.1-0.2l0.8,0
		l0.8,0l0.5,0.2l0.5,0.2l1.8,0l1.8,0l0.4,0.3l0.4,0.3l0.3,0l0.3,0l0.2,0.2l0.2,0.2l0.7-0.3l0.7-0.3l1.5,2.2l1.5,2.1l1.3,0.4l1.3,0.4
		l0.2,0l0.2,0l4.9,1.4l4.9,1.4l0.5-1.5l0.5-1.5l-0.2-0.5l-0.2-0.5l-0.1-0.5l-0.1-0.5l0.2-0.1l0.2-0.1l0.3-0.7l0.3-0.7l0.5,0l0.5,0
		l0.4-1.3l0.4-1.3l0.1-0.5l0.1-0.5l-0.4-0.6l-0.4-0.6l0.5-0.5l0.5-0.5l0.5,0l0.5,0l0.7-0.8l0.7-0.8l-0.4-0.9l-0.4-0.9l0-0.5l0-0.5
		l0.3-0.4l0.3-0.4l0.9-0.5l0.9-0.5l0-1l0-1l0.4-0.4l0.4-0.4l0.3-1l0.3-1l-0.2-0.5l-0.2-0.5l0.4-0.4l0.4-0.4l-0.1-1.1l-0.1-1.1
		l0.3-0.9l0.3-0.9l0.4-0.3l0.4-0.3l1-0.2l1-0.2l0.4-1.2l0.4-1.2l0.8-0.2l0.8-0.2l0.8,0.1l0.8,0.1l0.8,0.2l0.8,0.2l0.5,0.1l0.5,0.1
		l1-0.1l1-0.1l1.1-0.6l1.1-0.6l0.5-0.2l0.5-0.2l0.2-0.5l0.2-0.5l-0.2-1.2L442.7,136z"/>
</g>
<g>
	<polygon fill="none" stroke="#B8BECC" stroke-miterlimit="10" points="119.2,23 119.7,23.2 120.2,23.4 120.5,23.4 120.8,23.4 
		121,23.2 121.2,23 121.5,23 121.7,22.9 121.9,23.1 122.2,23.3 122.7,23.3 123.3,23.3 123.5,23.6 123.7,24 123.9,23.7 124.1,23.5 
		124,23.1 123.8,22.7 123.3,22.5 122.8,22.3 122.4,21.9 122,21.5 121.3,21.5 120.6,21.4 119.7,21.9 118.9,22.4 118.8,22.5 
		118.8,22.7 118.9,22.8 118.9,22.9 119.1,23 119.2,23 119.2,23 	"/>
</g>
<g>
	<path fill="none" stroke="#B8BECC" stroke-miterlimit="10" d="M19.1,76.7c0.1,0.2,0.5,1.7,0.8,1.2c0.6-0.9,0.3-1-0.3-1.8
		C19.5,76.3,19.2,76.5,19.1,76.7L19.1,76.7z"/>
</g>
<g>
	<polygon fill="none" stroke="#B8BECC" stroke-miterlimit="10" points="11.4,66.4 10.8,66.4 10.3,66.3 9.9,66.2 9.5,66 9.7,65.2 
		9.8,64.4 9.4,64.4 9,64.4 8.7,64.1 8.5,63.7 8.1,63.6 7.7,63.5 7.6,63.6 7.4,63.6 7.6,63.8 7.7,64.1 7.7,64.2 7.6,64.3 7.4,64.5 
		7.2,64.7 7,64.8 6.7,64.9 6.1,64.8 5.6,64.8 4.9,65 4.2,65.2 3.9,65.7 3.6,66.1 2.5,66.7 1.3,67.3 0.9,67.9 0.6,68.4 0.6,68.5 
		0.6,68.7 0.8,68.7 0.9,68.7 1.2,68.7 1.5,68.7 2.8,68.3 4.2,67.8 4.3,67.8 4.5,67.7 4.7,67.8 5,67.9 5.2,68.1 5.4,68.3 5.3,68.6 
		5.3,68.8 4.6,69.3 3.9,69.7 3.5,70.1 3.1,70.5 3.8,70.6 4.5,70.7 4.6,70.5 4.8,70.3 5.3,70.2 5.9,70 6.4,69.3 6.8,68.7 7.9,68.6 
		9.1,68.6 9.6,67.9 10.2,67.3 10.8,67.3 11.3,67.2 11.5,67 11.7,66.8 11.7,66.7 11.6,66.5 11.5,66.5 11.4,66.4 11.4,66.4 	"/>
</g>
<g>
	<path fill="none" stroke="#B8BECC" stroke-miterlimit="10" d="M31.5,132.4c-0.3,0.2-1.5-0.2-1.8-0.6c-0.4,0.3-0.3,0.7,0.1,1
		c0.3-0.8,1.1,0.1,1.4,0.4c0.5,0.5,0.5,0.7,1.3,0.5C31.6,133.5,31.7,133.3,31.5,132.4L31.5,132.4z"/>
</g>
<g>
	<path fill="none" stroke="#B8BECC" stroke-miterlimit="10" d="M168,14.3c0.6,0.1,1.4,0.2,1.6-0.5c0.2-0.6-0.1-0.8-0.6-0.8
		c-0.1,0-1.6,0.4-1.6,0.4c-0.3,0.3,0,1.3,0.1,1.6C167.7,14.8,167.9,14.5,168,14.3L168,14.3z"/>
</g>
<g>
	<polygon fill="none" stroke="#B8BECC" stroke-miterlimit="10" points="228.7,6 228.9,7.1 229.1,8.2 229.3,8.3 229.5,8.4 229.6,8.1 
		229.8,7.8 229.9,8.1 230,8.4 230.3,8.2 230.6,8.1 230.6,7.5 230.5,7 230.7,6.7 230.9,6.5 230.8,6.2 230.7,6 230.8,5.3 230.9,4.6 
		231.3,4.7 231.7,4.8 231.8,4.4 231.8,4 231.3,4 230.8,4 230.5,4.4 230.2,4.7 229.6,4.8 229,4.8 228.9,5 228.9,5.3 229.6,5.5 
		230.3,5.8 230.3,6.1 230.2,6.4 229.4,6.2 228.7,6 228.7,6 	"/>
</g>
</svg>
