<svg xmlns="http://www.w3.org/2000/svg" class="svg-general" width="65.296" height="65.037" viewBox="0 0 65.296 65.037">
  <g id="email" transform="translate(-944.867 -909.921)">
    <path id="Tracé_8464" data-name="Tracé 8464" d="M1009.515,930.071v40.258a4.13,4.13,0,0,1-4.129,4.129H949.644a4.129,4.129,0,0,1-4.129-4.129V930.071" fill="none" stroke="#b8becc" stroke-linecap="round" stroke-miterlimit="10" stroke-width="1"/>
    <line id="Ligne_681" data-name="Ligne 681" x1="6.151" y2="3.917" transform="translate(945.557 926.096)" fill="none" stroke="" stroke-linecap="round" stroke-miterlimit="10" stroke-width="1"/>
    <path id="Tracé_8465" data-name="Tracé 8465" d="M988.373,916.654l-8.756-5.544a3.989,3.989,0,0,0-4.373,0l-8.7,5.541" fill="none" stroke="" stroke-linecap="round" stroke-miterlimit="10" stroke-width="1"/>
    <line id="Ligne_682" data-name="Ligne 682" x1="6.15" y1="3.894" transform="translate(1003.322 926.119)" fill="none" stroke="" stroke-linecap="round" stroke-miterlimit="10" stroke-width="1"/>
    <path id="Tracé_8466" data-name="Tracé 8466" d="M1009.473,943.531l-29.856,18.9a3.985,3.985,0,0,1-4.373,0l-29.687-18.9" fill="none" stroke="" stroke-linecap="round" stroke-miterlimit="10" stroke-width="1"/>
    <path id="Tracé_8467" data-name="Tracé 8467" d="M951.709,941.425V916.651h51.613v24.774" fill="none" stroke="" stroke-linecap="round" stroke-miterlimit="10" stroke-width="1"/>
    <g id="Groupe_35839" data-name="Groupe 35839">
      <path id="Tracé_8468" data-name="Tracé 8468" d="M980.134,952.187a17.726,17.726,0,0,1-10.729-3.1c-5.387-3.975-6.328-11.9-3.293-17.647a13.6,13.6,0,0,1,14.83-6.663,12.37,12.37,0,0,1,9.887,11.51c0,.166,0,.332.006.5.2,11.855-9.191,7.659-9.191,4.6V931.1" fill="none" stroke="" stroke-linecap="round" stroke-miterlimit="10" stroke-width="1"/>
      <path id="Tracé_8469" data-name="Tracé 8469" d="M980.641,931.885a7.53,7.53,0,0,0-5.144.221c-3.2,1.476-4.466,5.443-3.6,8.54a5.125,5.125,0,0,0,3.306,3.523c3.311,1.019,5.2-.8,6.146-3.068" fill="none" stroke="" stroke-linecap="round" stroke-miterlimit="10" stroke-width="1"/>
    </g>
  </g>
</svg>
