<?xml version="1.0" encoding="utf-8"?>
<!-- Generator: Adobe Illustrator 24.0.3, SVG Export Plug-In . SVG Version: 6.00 Build 0)  -->
<svg version="1.1" id="picto_x5F_ms-excel" xmlns="http://www.w3.org/2000/svg" xmlns:xlink="http://www.w3.org/1999/xlink" x="0px"
	 y="0px" viewBox="0 0 18.9 17" enable-background="new 0 0 18.9 17" xml:space="preserve">
<path d="M9.4,0L0,1.9v13.2L9.4,17V0z M11.3,1.9v1.9h1.9v1.9h-1.9v1.9h1.9v1.9h-1.9v1.9h1.9v1.9h-1.9v1.9h6.6c0.5,0,0.9-0.4,0.9-0.9
	V2.8c0-0.5-0.4-0.9-0.9-0.9H11.3z M15.1,3.8H17v1.9h-1.9V3.8z M2.1,5h1.7l0.9,2.1c0.1,0.2,0.1,0.4,0.2,0.6h0c0-0.1,0.1-0.3,0.2-0.6
	L6,5h1.5L5.7,8.5L7.6,12H5.9L4.9,9.7c0-0.1-0.1-0.2-0.1-0.5h0c0,0.1-0.1,0.3-0.1,0.5L3.5,12H1.9l1.9-3.5L2.1,5z M15.1,7.6H17v1.9
	h-1.9V7.6z M15.1,11.3H17v1.9h-1.9V11.3z"/>
</svg>
