<?xml version="1.0" encoding="utf-8"?>
<!-- Generator: Adobe Illustrator 24.0.3, SVG Export Plug-In . SVG Version: 6.00 Build 0)  -->
<svg version="1.1" id="Calque_1" xmlns="http://www.w3.org/2000/svg" xmlns:xlink="http://www.w3.org/1999/xlink" x="0px" y="0px"
	 viewBox="0 0 17 17" enable-background="new 0 0 17 17" xml:space="preserve">
<g id="Groupe_34287" transform="translate(-589.5 -1044.265)">
	<path id="Tracé_7794" fill="none" stroke="#B7BDCB" stroke-linecap="round" stroke-miterlimit="10" d="M590,1048.9L590,1048.9
		c0-1.2,0.9-2.1,2.1-2.1l0,0h11.8c1.2,0,2.1,0.9,2.1,2.1l0,0l0,0"/>
	<path id="Tracé_7795" fill="none" stroke="#B7BDCB" stroke-linecap="round" stroke-miterlimit="10" d="M601.1,1046.9h-7
		c0-1.2,0.9-2.1,2.1-2.1l0,0h2.8C600.2,1044.8,601.1,1045.7,601.1,1046.9L601.1,1046.9L601.1,1046.9z"/>
	<path id="Tracé_7796" fill="none" stroke="#B7BDCB" stroke-linecap="round" stroke-miterlimit="10" d="M603.9,1048.2v12.5h-11.8
		v-12.5"/>
	
		<line id="Ligne_98" fill="none" stroke="#B7BDCB" stroke-linecap="round" stroke-miterlimit="10" x1="594.9" y1="1050.3" x2="594.9" y2="1058.7"/>
	
		<line id="Ligne_99" fill="none" stroke="#B7BDCB" stroke-linecap="round" stroke-miterlimit="10" x1="598.3" y1="1050.3" x2="598.3" y2="1058.7"/>
	
		<line id="Ligne_100" fill="none" stroke="#B7BDCB" stroke-linecap="round" stroke-miterlimit="10" x1="601.8" y1="1050.3" x2="601.8" y2="1058.7"/>
</g>
</svg>
