<?xml version="1.0" encoding="utf-8"?>
<!-- Generator: Adobe Illustrator 24.0.3, SVG Export Plug-In . SVG Version: 6.00 Build 0)  -->
<svg version="1.1" id="picto-status-registered" xmlns="http://www.w3.org/2000/svg" xmlns:xlink="http://www.w3.org/1999/xlink"
	 x="0px" y="0px" viewBox="0 0 25 25" enable-background="new 0 0 25 25" xml:space="preserve">
<path id="Tracé_8149" fill="none" stroke="#1F222D" stroke-linecap="round" stroke-miterlimit="10" d="M11.3,9.5V8.9
	c0-1.2,0.5-2.3,1.4-3.2l3.8-3.8c0.9-0.9,2-1.4,3.3-1.4l0,0c2.6,0,4.7,2.1,4.7,4.7l0,0c0,1.3-0.5,2.4-1.4,3.3l-3.8,3.8
	c-0.8,0.8-2,1.3-3.2,1.4h-0.6"/>
<path id="Tracé_8150" fill="none" stroke="#1F222D" stroke-linecap="round" stroke-miterlimit="10" d="M9.5,11.3H8.9
	c-1.2,0-2.3,0.5-3.2,1.4l-3.8,3.8c-0.9,0.9-1.4,2-1.4,3.3l0,0c0,2.6,2.1,4.7,4.7,4.7l0,0l0,0c1.3,0,2.4-0.5,3.3-1.4l3.8-3.8
	c0.8-0.8,1.4-2,1.4-3.2v-0.6"/>
<line id="Ligne_324" fill="none" stroke="#1F222D" stroke-linecap="round" stroke-miterlimit="10" x1="7.9" y1="17.1" x2="17.1" y2="7.9"/>
</svg>
