<?xml version="1.0" encoding="utf-8"?>
<!-- Generator: Adobe Illustrator 24.0.3, SVG Export Plug-In . SVG Version: 6.00 Build 0)  -->
<svg version="1.1" id="picto-interlocuteur" xmlns="http://www.w3.org/2000/svg" xmlns:xlink="http://www.w3.org/1999/xlink"
	 x="0px" y="0px" viewBox="0 0 48.8 51" enable-background="new 0 0 48.8 51" xml:space="preserve">
<g id="batiment">
	<path id="Tracé_8157" fill="none" stroke="#B7BDCB" stroke-linecap="round" stroke-miterlimit="10" d="M23.9,45.8H1.2V0.5h29.6
		l-0.2,12.8"/>
	<path id="Rectangle_453" fill="none" stroke="#B7BDCB" stroke-linecap="round" stroke-miterlimit="10" d="M10.3,35.5l5.9,0.1
		c1.1,0,2,0.9,2,2L18,45.5l0,0H8.1v-0.2l0.1-7.9C8.2,36.4,9.2,35.5,10.3,35.5z"/>
	
		<line id="Ligne_342" fill="none" stroke="#B7BDCB" stroke-linecap="round" stroke-miterlimit="10" x1="7" y1="6.5" x2="9" y2="6.5"/>
	
		<line id="Ligne_343" fill="none" stroke="#B7BDCB" stroke-linecap="round" stroke-miterlimit="10" x1="14.9" y1="6.6" x2="16.9" y2="6.7"/>
	
		<line id="Ligne_344" fill="none" stroke="#B7BDCB" stroke-linecap="round" stroke-miterlimit="10" x1="22.8" y1="6.7" x2="24.8" y2="6.8"/>
	
		<line id="Ligne_345" fill="none" stroke="#B7BDCB" stroke-linecap="round" stroke-miterlimit="10" x1="6.9" y1="12.4" x2="8.9" y2="12.4"/>
	
		<line id="Ligne_346" fill="none" stroke="#B7BDCB" stroke-linecap="round" stroke-miterlimit="10" x1="14.8" y1="12.5" x2="16.8" y2="12.6"/>
	
		<line id="Ligne_347" fill="none" stroke="#B7BDCB" stroke-linecap="round" stroke-miterlimit="10" x1="22.7" y1="12.7" x2="24.7" y2="12.7"/>
	
		<line id="Ligne_348" fill="none" stroke="#B7BDCB" stroke-linecap="round" stroke-miterlimit="10" x1="6.8" y1="18.3" x2="8.8" y2="18.4"/>
	
		<line id="Ligne_349" fill="none" stroke="#B7BDCB" stroke-linecap="round" stroke-miterlimit="10" x1="14.7" y1="18.4" x2="16.7" y2="18.5"/>
	
		<line id="Ligne_350" fill="none" stroke="#B7BDCB" stroke-linecap="round" stroke-miterlimit="10" x1="22.6" y1="18.6" x2="24.6" y2="18.6"/>
	
		<line id="Ligne_351" fill="none" stroke="#B7BDCB" stroke-linecap="round" stroke-miterlimit="10" x1="6.7" y1="24.2" x2="8.7" y2="24.3"/>
	
		<line id="Ligne_352" fill="none" stroke="#B7BDCB" stroke-linecap="round" stroke-miterlimit="10" x1="14.6" y1="24.4" x2="16.6" y2="24.4"/>
	
		<line id="Ligne_353" fill="none" stroke="#B7BDCB" stroke-linecap="round" stroke-miterlimit="10" x1="6.7" y1="30.2" x2="8.6" y2="30.2"/>
	
		<line id="Ligne_354" fill="none" stroke="#B7BDCB" stroke-linecap="round" stroke-miterlimit="10" x1="14.5" y1="30.3" x2="16.5" y2="30.3"/>
</g>
<g id="interlocuteur">
	
		<ellipse id="Ellipse_72" fill="none" stroke="#B7BDCB" stroke-linecap="round" stroke-miterlimit="10" cx="35.7" cy="28.2" rx="7" ry="8.4"/>
	<path id="Tracé_8158" fill="none" stroke="#B7BDCB" stroke-linecap="round" stroke-miterlimit="10" d="M48.3,50.5H23.2
		c0-5.4,4.4-9.8,9.8-9.8h5.6C43.9,40.7,48.3,45.1,48.3,50.5L48.3,50.5z"/>
</g>
</svg>
