<?xml version="1.0" encoding="utf-8"?>
<!-- Generator: Adobe Illustrator 24.0.3, SVG Export Plug-In . SVG Version: 6.00 Build 0)  -->
<svg version="1.1" id="picto-status-not-register" xmlns="http://www.w3.org/2000/svg" xmlns:xlink="http://www.w3.org/1999/xlink"
	 x="0px" y="0px" viewBox="0 0 25 25" enable-background="new 0 0 25 25" xml:space="preserve">
<line id="Ligne_336" fill="none" stroke="#FFFFFF" stroke-linecap="round" stroke-miterlimit="10" x1="7.5" y1="7.5" x2="4.3" y2="4.3"/>
<line id="Ligne_337" fill="none" stroke="#FFFFFF" stroke-linecap="round" stroke-miterlimit="10" x1="1.7" y1="9.5" x2="5.9" y2="9.5"/>
<line id="Ligne_338" fill="none" stroke="#FFFFFF" stroke-linecap="round" stroke-miterlimit="10" x1="9.5" y1="1.7" x2="9.5" y2="5.9"/>
<line id="Ligne_339" fill="none" stroke="#FFFFFF" stroke-linecap="round" stroke-miterlimit="10" x1="17.5" y1="17.5" x2="20.7" y2="20.7"/>
<line id="Ligne_340" fill="none" stroke="#FFFFFF" stroke-linecap="round" stroke-miterlimit="10" x1="15.5" y1="23.3" x2="15.5" y2="19.1"/>
<line id="Ligne_341" fill="none" stroke="#FFFFFF" stroke-linecap="round" stroke-miterlimit="10" x1="23.3" y1="15.5" x2="19.1" y2="15.5"/>
<path id="Tracé_8155" fill="none" stroke="#FFFFFF" stroke-linecap="round" stroke-miterlimit="10" d="M18.7,12.9l4.4-4.4
	c0.9-0.9,1.4-2,1.4-3.3l0,0c0-2.6-2.1-4.7-4.7-4.7l0,0l0,0c-1.3,0-2.4,0.5-3.3,1.4l-4.4,4.4"/>
<path id="Tracé_8156" fill="none" stroke="#FFFFFF" stroke-linecap="round" stroke-miterlimit="10" d="M6.3,12.1l-4.4,4.4
	c-0.9,0.9-1.4,2-1.4,3.3l0,0c0,2.6,2.1,4.7,4.7,4.7l0,0c1.3,0,2.4-0.5,3.3-1.4l4.4-4.4"/>
</svg>
