<svg xmlns="http://www.w3.org/2000/svg" class="svg-general" width="66.164" height="65.105" viewBox="0 0 66.164 65.105">
  <g id="Groupe_35832" data-name="Groupe 35832" transform="translate(-340.785 -1300.343)">
    <path id="Tracé_8456" data-name="Tracé 8456" d="M341.39,1364.843l3.763-15.355a7.346,7.346,0,0,1,5.33-5.369c3.786-.965,8.969-1.983,12.365-2.965a4.226,4.226,0,0,0,3.047-4.064v-3.909l-.519-.583a10.637,10.637,0,0,1-2.582-5.52,1.579,1.579,0,0,1-1.585-1.246c-.619-3.846-1.066-4.012-1.066-5.7s.625-2.089,1.378-1.653a10.39,10.39,0,0,1-.383-2.59c-.257-9.087,5.722-15.044,12.73-15.044s12.986,5.957,12.729,15.044a10.389,10.389,0,0,1-.383,2.59c.753-.436,1.379-.034,1.379,1.653s-.448,1.856-1.067,5.7a1.579,1.579,0,0,1-1.585,1.246,10.638,10.638,0,0,1-2.582,5.52l-.519.583v3.909a4.226,4.226,0,0,0,3.047,4.064c3.4.982,8.58,2,12.366,2.965a7.346,7.346,0,0,1,5.329,5.369l3.763,15.355" fill="none"
          stroke="" stroke-linecap="round" stroke-miterlimit="10" stroke-width="1"/>
  </g>
</svg>
