<svg xmlns="http://www.w3.org/2000/svg" class="svg-general" width="74.95" height="65.204" viewBox="0 0 74.95 65.204">
  <g id="Groupe_35841" data-name="Groupe 35841" transform="translate(-862.239 -556.94)">
    <g id="email">
      <path id="Tracé_8470" data-name="Tracé 8470" d="M898.329,599.413H868.165a5.237,5.237,0,0,1-5.222-5.221V557.644" fill="none" stroke="" stroke-linecap="round" stroke-miterlimit="10" stroke-width="1"/>
      <line id="Ligne_683" data-name="Ligne 683" y2="20.885" transform="translate(920.376 557.644)" fill="none" stroke="" stroke-linecap="round" stroke-miterlimit="10" stroke-width="1"/>
      <path id="Tracé_8471" data-name="Tracé 8471" d="M920.376,557.644l-25.645,21.262a5.223,5.223,0,0,1-6.142,0l-25.646-21.262" fill="none" stroke="" stroke-linecap="round" stroke-miterlimit="10" stroke-width="1"/>
      <line id="Ligne_684" data-name="Ligne 684" x2="57.433" transform="translate(862.943 557.644)" fill="none" stroke="" stroke-linecap="round" stroke-miterlimit="10" stroke-width="1"/>
    </g>
    <g id="Groupe_35840" data-name="Groupe 35840">
      <path id="Tracé_8472" data-name="Tracé 8472" d="M935.081,601.959a3.2,3.2,0,0,0-1.942-1.425l-.28-.032c-1.377-.153-4.6-.513-5.7-2.6-.122-.234-.286-.585-.475-.992-1.355-2.908-4.174-8.958-9.182-10.773a8.508,8.508,0,0,0-3.252-.5c-.03-.074-.058-.148-.092-.219a4.275,4.275,0,0,0-7.737,3.638c.034.071.071.142.109.213a8.526,8.526,0,0,0-1.684,2.824c-1.8,5.014,1.067,11.045,2.443,13.942.192.406.358.757.461,1,.911,2.176-.869,4.891-1.629,6.05-.057.086-.108.165-.154.236a3.2,3.2,0,0,0-.141,2.405c.317,1.4,1.15,3.2,2.069,3.766a2.469,2.469,0,0,0,1.239.233,21.883,21.883,0,0,0,5.364-1l.006.014a5.077,5.077,0,0,0,9.45-3.646c6.473-3.112,12.468-7.4,12.708-9.127C936.812,604.885,935.959,603.1,935.081,601.959ZM914.5,618.714c.38-.122,3.13-.856,5.231-1.66a36.124,36.124,0,0,0,4.225-1.972" fill="none" stroke="" stroke-linecap="round" stroke-miterlimit="10" stroke-width="1"/>
      <path id="Tracé_8473" data-name="Tracé 8473" d="M905.869,614.46c1.895,0,10.608-2.136,15.22-4.3,5.031-2.366,12.4-7.481,13.164-8.79" fill="none" stroke="" stroke-linecap="round" stroke-miterlimit="10" stroke-width="1"/>
    </g>
  </g>
</svg>
