<svg xmlns="http://www.w3.org/2000/svg" width="24.395" height="25.102" viewBox="0 0 24.395 25.102">
  <g id="Groupe_35725" data-name="Groupe 35725" transform="translate(-931.62 -300.29)">
    <path id="Tracé_8420" data-name="Tracé 8420" d="M946.158,317.3l-8.778-8.778-1.646-.549-3.292-4.389,1.646-1.646,4.389,3.292.549,1.646,8.778,8.778" fill="none" stroke="#b8becc" stroke-linecap="round" stroke-miterlimit="10" stroke-width="1"/>
    <path id="Tracé_8421" data-name="Tracé 8421" d="M952.741,324.437l-4.388-4.389-2.2-.549s-.554-1.238-.548-1.243l3.05-3.051c.006,0,1.338.454,1.338.454l.549,2.194,4.389,4.389a1.552,1.552,0,0,1,0,2.2h0A1.552,1.552,0,0,1,952.741,324.437Z" fill="none" stroke="#b8becc" stroke-linecap="round" stroke-miterlimit="10" stroke-width="1"/>
    <path id="Tracé_8422" data-name="Tracé 8422" d="M944.22,309.634l1.629-1.628c-.876-1.835-.947-3.709.573-5.229L947.2,302a4.641,4.641,0,0,1,5.229-.573l-2.9,2.9,2.328,2.328,2.9-2.9a4.639,4.639,0,0,1-.573,5.228l-.776.776c-1.519,1.52-3.393,1.448-5.228.573l-1.485,1.486" fill="none" stroke="#b8becc" stroke-linecap="round" stroke-miterlimit="10" stroke-width="1"/>
    <path id="Tracé_8423" data-name="Tracé 8423" d="M940.38,314.013l-7.681,7.68a1.552,1.552,0,0,0,0,2.2h0a1.551,1.551,0,0,0,2.194,0l7.681-7.681" fill="none" stroke="#b8becc" stroke-linecap="round" stroke-miterlimit="10" stroke-width="1"/>
  </g>
</svg>
