<svg id="Layer_1" data-name="Layer 1" xmlns="http://www.w3.org/2000/svg"
     viewBox="0 0 50.45 54.05"><defs><style>.cls-1{fill:#1b3744;}</style></defs><title>calendar</title><g id="Groupe_33300" data-name="Groupe 33300"><g id="Groupe_33243" data-name="Groupe 33243"><path id="Tracé_6975" data-name="Tracé 6975" class="cls-1" d="M50.55,3.6H44.24V.9a.9.9,0,0,0-.9-.9H37a.9.9,0,0,0-.9.9V3.6H16.32V.9a.91.91,0,0,0-.9-.9H9.11a.9.9,0,0,0-.9.9V3.6H1.91a.9.9,0,0,0-.9.9V53.15a.9.9,0,0,0,.9.9H50.55a.9.9,0,0,0,.9-.9V4.5a.9.9,0,0,0-.9-.9ZM37.94,1.8h4.5V7.2h-4.5ZM10,1.8h4.5V7.2H10ZM2.81,5.4h5.4V8.1a.9.9,0,0,0,.9.9h6.31a.9.9,0,0,0,.9-.9V5.4H36.13V8.1A.9.9,0,0,0,37,9h6.31a.9.9,0,0,0,.9-.9V5.4h5.41v8.11H2.8Zm0,46.84V15.31H49.65V52.24Z" transform="translate(-1.01 0)"/></g></g></svg>