<?xml version="1.0" encoding="utf-8"?>
<!-- Generator: Adobe Illustrator 15.0.0, SVG Export Plug-In . SVG Version: 6.00 Build 0)  -->
<!DOCTYPE svg PUBLIC "-//W3C//DTD SVG 1.1//EN" "http://www.w3.org/Graphics/SVG/1.1/DTD/svg11.dtd">
<svg version="1.1" id="Calque_1" xmlns="http://www.w3.org/2000/svg" xmlns:xlink="http://www.w3.org/1999/xlink" x="0px" y="0px"
	 width="150px" height="150px" viewBox="0 0 150 150" enable-background="new 0 0 150 150" xml:space="preserve">
<g>
	<path fill="#F7B505" d="M112.549,53.635c8.883,0,16.091-7.207,16.091-16.09c0-8.883-7.208-16.091-16.091-16.091
		c-8.886,0-16.091,7.208-16.091,16.091C96.458,46.429,103.663,53.635,112.549,53.635z"/>
	<path fill="#F7B505" d="M140.706,0H9.299C4.071,0-0.087,4.258-0.087,9.487v109.752c0,5.229,4.158,9.487,9.387,9.487h131.407
		c5.23,0,9.387-4.258,9.387-9.487V9.487C150.093,4.258,145.937,0,140.706,0z M106.144,66.273c-1.005-1.173-2.546-2.079-4.289-2.079
		c-1.71,0-2.916,0.805-4.291,1.911l-6.269,5.296c-1.308,0.939-2.347,1.577-3.855,1.577c-1.442,0-2.749-0.537-3.688-1.375
		c-0.335-0.301-0.938-0.872-1.441-1.374L64.276,50.72c-1.341-1.542-3.354-2.514-5.599-2.514c-2.247,0-4.325,1.105-5.633,2.615
		L10.64,101.975V14.649c0.336-2.279,2.112-3.922,4.391-3.922H134.94c2.314,0,4.191,1.71,4.325,4.023l0.101,87.292L106.144,66.273z"
		/>
</g>
</svg>
