<?xml version="1.0" encoding="utf-8"?>
<!-- Generator: Adobe Illustrator 15.0.0, SVG Export Plug-In . SVG Version: 6.00 Build 0)  -->
<!DOCTYPE svg PUBLIC "-//W3C//DTD SVG 1.1//EN" "http://www.w3.org/Graphics/SVG/1.1/DTD/svg11.dtd">
<svg version="1.1" id="Calque_1" xmlns="http://www.w3.org/2000/svg" xmlns:xlink="http://www.w3.org/1999/xlink" x="0px" y="0px"
	 width="150px" height="150px" viewBox="0 0 150 150" enable-background="new 0 0 150 150" xml:space="preserve">
<g>
	<path fill="#F7B505" d="M139.539,61.804c2.944,0,5.34,2.392,5.34,5.331v36.379c0,2.939-2.396,5.332-5.34,5.332H51.328
		c-2.946,0-5.343-2.393-5.343-5.332V67.135c0-2.939,2.396-5.331,5.343-5.331H139.539 M139.539,56.804H51.328
		c-5.715,0-10.343,4.67-10.343,10.331v36.379c0,5.708,4.676,10.332,10.343,10.332h88.211c5.712,0,10.34-4.67,10.34-10.332V67.135
		C149.879,61.427,145.203,56.804,139.539,56.804L139.539,56.804z"/>
	<path fill="#F7B505" d="M98.027,119.03v10.382c0,5.742-4.641,10.361-10.361,10.361H9.857c-5.735,0-10.357-4.662-10.357-10.412
		V10.172c0-5.751,4.664-10.409,10.415-10.409h51.81v31.123c0,5.763,4.658,10.361,10.403,10.361h25.899v10.371h-46.64
		c-8.611,0-15.589,6.96-15.589,15.552v36.31c0,8.587,6.927,15.55,15.589,15.55H98.027L98.027,119.03z M66.911-0.236v31.098
		c0,2.871,2.338,5.201,5.139,5.201h25.978L66.911-0.236L66.911-0.236z"/>
	<g>
		<path fill="#F7B505" d="M60.747,97.797V72.253h9.636c1.695,0,2.991,0.081,3.886,0.244c1.254,0.209,2.306,0.606,3.153,1.193
			s1.53,1.409,2.048,2.466c0.517,1.057,0.775,2.219,0.775,3.484c0,2.172-0.691,4.011-2.074,5.516
			c-1.382,1.504-3.88,2.256-7.492,2.256h-6.552v10.385H60.747z M64.127,84.398h6.604c2.184,0,3.734-0.407,4.652-1.221
			c0.917-0.813,1.376-1.957,1.376-3.432c0-1.069-0.27-1.984-0.811-2.745c-0.54-0.761-1.251-1.263-2.134-1.507
			c-0.569-0.15-1.621-0.227-3.154-0.227h-6.534V84.398z"/>
		<path fill="#F7B505" d="M84.549,97.797V72.253h8.799c1.986,0,3.503,0.122,4.548,0.366c1.464,0.337,2.713,0.947,3.746,1.83
			c1.348,1.138,2.355,2.593,3.023,4.364s1.002,3.796,1.002,6.072c0,1.94-0.227,3.659-0.68,5.157s-1.034,2.738-1.742,3.721
			c-0.709,0.981-1.484,1.754-2.326,2.316c-0.843,0.564-1.858,0.991-3.049,1.281c-1.191,0.291-2.56,0.436-4.104,0.436H84.549z
			 M87.929,94.783h5.454c1.685,0,3.006-0.158,3.964-0.471c0.959-0.314,1.723-0.756,2.292-1.324c0.801-0.802,1.426-1.879,1.873-3.232
			c0.446-1.354,0.67-2.994,0.67-4.922c0-2.672-0.438-4.725-1.315-6.16c-0.877-1.435-1.942-2.396-3.197-2.884
			c-0.905-0.349-2.363-0.522-4.373-0.522h-5.367V94.783z"/>
		<path fill="#F7B505" d="M110.493,97.797V72.253h17.232v3.015h-13.853v7.91h11.987v3.015h-11.987v11.604H110.493z"/>
	</g>
</g>
</svg>
