<?xml version="1.0" encoding="utf-8"?>
<!-- Generator: Adobe Illustrator 15.0.0, SVG Export Plug-In . SVG Version: 6.00 Build 0)  -->
<!DOCTYPE svg PUBLIC "-//W3C//DTD SVG 1.1//EN" "http://www.w3.org/Graphics/SVG/1.1/DTD/svg11.dtd">
<svg version="1.1" id="Calque_1" xmlns="http://www.w3.org/2000/svg" xmlns:xlink="http://www.w3.org/1999/xlink" x="0px" y="0px"
	 width="150px" height="150px" viewBox="0 0 150 150" enable-background="new 0 0 150 150" xml:space="preserve">
<g>
	<path fill="#F7B505" d="M64.818,136.02c-34.584,0-62.722-28.135-62.722-62.72c0-34.586,28.137-62.723,62.722-62.723
		c0.01,0,0.019,0,0.028,0h0.03c34.556,0.031,62.659,28.157,62.659,62.723C127.536,107.884,99.401,136.02,64.818,136.02z
		 M64.818,16.406C50.189,16.406,37.83,42.46,37.83,73.3c0,30.838,12.36,56.89,26.989,56.89c14.628,0,26.987-26.052,26.987-56.89
		C91.805,42.46,79.447,16.406,64.818,16.406z M48.281,18.857C24.952,25.958,7.926,47.679,7.926,73.3
		c0,25.619,17.024,47.338,40.355,54.439C38.472,117.012,32,96.868,32,73.3C32,49.731,38.473,29.584,48.281,18.857z M81.355,18.857
		C91.163,29.584,97.635,49.731,97.635,73.3c0,23.568-6.472,43.712-16.279,54.439c23.328-7.101,40.35-28.82,40.35-54.439
		C121.706,47.679,104.683,25.958,81.355,18.857z"/>
</g>
<g>
	<path fill="#F7B505" d="M67.733,133.509h-5.83v-29.663c-16.583,0.403-31.873,4.24-42.309,10.665l-3.057-4.964
		c11.318-6.968,27.72-11.119,45.366-11.531V76.214H4.606v-5.83h57.297V48.583c-17.355-0.409-33.58-4.452-44.876-11.234l3-4.999
		c10.43,6.261,25.561,10.003,41.876,10.401V13.087h5.83v29.664c16.576-0.404,31.868-4.24,42.309-10.665l3.054,4.964
		C101.774,44.02,85.372,48.17,67.733,48.583v21.802h57.297v5.83H67.733v21.801c17.363,0.408,33.587,4.451,44.876,11.232
		l-3.003,4.999c-10.42-6.261-25.552-10.001-41.874-10.4V133.509z"/>
</g>
<path fill="#F7B505" d="M115.204,84.963l28.944,28.033l4.575,4.429l-6.342,0.563c-3.322,0.299-6.641,0.598-9.96,0.894
	c2.112,4.854,4.23,9.709,6.342,14.563l1.133,2.593l-2.562,1.207l-5.306,2.502l-2.758,1.304l-1.176-2.821
	c-2.015-4.842-4.036-9.687-6.052-14.532l-6.814,6.727l-4.965,4.899v-6.971V87.059v-6.88L115.204,84.963L115.204,84.963z"/>
<path fill="none" stroke="#FFFFFF" stroke-width="2" stroke-miterlimit="10" d="M115.204,84.963l28.944,28.033l4.575,4.429
	l-6.342,0.563c-3.322,0.299-6.641,0.598-9.96,0.894c2.112,4.854,4.23,9.709,6.342,14.563l1.133,2.593l-2.562,1.207l-5.306,2.502
	l-2.758,1.304l-1.176-2.821c-2.015-4.842-4.036-9.687-6.052-14.532l-6.814,6.727l-4.965,4.899v-6.971V87.059v-6.88L115.204,84.963
	L115.204,84.963z"/>
</svg>
